%TF.GenerationSoftware,KiCad,Pcbnew,8.0.2*%
%TF.CreationDate,2024-06-24T21:48:59-04:00*%
%TF.ProjectId,MacroPad,4d616372-6f50-4616-942e-6b696361645f,rev?*%
%TF.SameCoordinates,Original*%
%TF.FileFunction,Soldermask,Top*%
%TF.FilePolarity,Negative*%
%FSLAX46Y46*%
G04 Gerber Fmt 4.6, Leading zero omitted, Abs format (unit mm)*
G04 Created by KiCad (PCBNEW 8.0.2) date 2024-06-24 21:48:59*
%MOMM*%
%LPD*%
G01*
G04 APERTURE LIST*
G04 Aperture macros list*
%AMRoundRect*
0 Rectangle with rounded corners*
0 $1 Rounding radius*
0 $2 $3 $4 $5 $6 $7 $8 $9 X,Y pos of 4 corners*
0 Add a 4 corners polygon primitive as box body*
4,1,4,$2,$3,$4,$5,$6,$7,$8,$9,$2,$3,0*
0 Add four circle primitives for the rounded corners*
1,1,$1+$1,$2,$3*
1,1,$1+$1,$4,$5*
1,1,$1+$1,$6,$7*
1,1,$1+$1,$8,$9*
0 Add four rect primitives between the rounded corners*
20,1,$1+$1,$2,$3,$4,$5,0*
20,1,$1+$1,$4,$5,$6,$7,0*
20,1,$1+$1,$6,$7,$8,$9,0*
20,1,$1+$1,$8,$9,$2,$3,0*%
G04 Aperture macros list end*
%ADD10RoundRect,0.237500X0.300000X0.237500X-0.300000X0.237500X-0.300000X-0.237500X0.300000X-0.237500X0*%
%ADD11RoundRect,0.237500X0.237500X-0.300000X0.237500X0.300000X-0.237500X0.300000X-0.237500X-0.300000X0*%
%ADD12RoundRect,0.300000X0.600000X-0.300000X0.600000X0.300000X-0.600000X0.300000X-0.600000X-0.300000X0*%
%ADD13C,1.700000*%
%ADD14C,4.000000*%
%ADD15C,2.200000*%
%ADD16R,1.700000X1.700000*%
%ADD17O,1.700000X1.700000*%
%ADD18RoundRect,0.102000X0.279400X-0.635000X0.279400X0.635000X-0.279400X0.635000X-0.279400X-0.635000X0*%
%ADD19R,1.350000X1.350000*%
%ADD20O,1.350000X1.350000*%
%ADD21RoundRect,0.250000X-1.075000X0.400000X-1.075000X-0.400000X1.075000X-0.400000X1.075000X0.400000X0*%
%ADD22R,1.600000X1.600000*%
%ADD23O,1.600000X1.600000*%
G04 APERTURE END LIST*
D10*
%TO.C,C2*%
X92000000Y-116500000D03*
X90275000Y-116500000D03*
%TD*%
D11*
%TO.C,C1*%
X87275000Y-118362500D03*
X87275000Y-116637500D03*
%TD*%
D12*
%TO.C,D23*%
X142225000Y-157762500D03*
X142225000Y-154462500D03*
%TD*%
D13*
%TO.C,SW21*%
X108020000Y-148560000D03*
D14*
X113100000Y-148560000D03*
D13*
X118180000Y-148560000D03*
D15*
X115640000Y-143480000D03*
X109290000Y-146020000D03*
%TD*%
D13*
%TO.C,SW4*%
X165170000Y-53310000D03*
D14*
X170250000Y-53310000D03*
D13*
X175330000Y-53310000D03*
D15*
X172790000Y-48230000D03*
X166440000Y-50770000D03*
%TD*%
D13*
%TO.C,SW10*%
X127070000Y-91410000D03*
D14*
X132150000Y-91410000D03*
D13*
X137230000Y-91410000D03*
D15*
X134690000Y-86330000D03*
X128340000Y-88870000D03*
%TD*%
D13*
%TO.C,SW7*%
X146120000Y-72360000D03*
D14*
X151200000Y-72360000D03*
D13*
X156280000Y-72360000D03*
D15*
X153740000Y-67280000D03*
X147390000Y-69820000D03*
%TD*%
D13*
%TO.C,SW9*%
X108020000Y-91410000D03*
D14*
X113100000Y-91410000D03*
D13*
X118180000Y-91410000D03*
D15*
X115640000Y-86330000D03*
X109290000Y-88870000D03*
%TD*%
D16*
%TO.C,SW25*%
X80500000Y-95080000D03*
D17*
X80500000Y-92540000D03*
X80500000Y-90000000D03*
%TD*%
D13*
%TO.C,SW23*%
X146120000Y-148560000D03*
D14*
X151200000Y-148560000D03*
D13*
X156280000Y-148560000D03*
D15*
X153740000Y-143480000D03*
X147390000Y-146020000D03*
%TD*%
D16*
%TO.C,SW0*%
X86075000Y-132885000D03*
D17*
X88615000Y-132885000D03*
X91155000Y-132885000D03*
X93695000Y-132885000D03*
X96235000Y-132885000D03*
%TD*%
D12*
%TO.C,D24*%
X161275000Y-157762500D03*
X161275000Y-154462500D03*
%TD*%
%TO.C,D15*%
X142225000Y-119662500D03*
X142225000Y-116362500D03*
%TD*%
%TO.C,D5*%
X104125000Y-81562500D03*
X104125000Y-78262500D03*
%TD*%
%TO.C,D10*%
X123175000Y-100612500D03*
X123175000Y-97312500D03*
%TD*%
%TO.C,D3*%
X142225000Y-62512500D03*
X142225000Y-59212500D03*
%TD*%
D13*
%TO.C,SW17*%
X108020000Y-129510000D03*
D14*
X113100000Y-129510000D03*
D13*
X118180000Y-129510000D03*
D15*
X115640000Y-124430000D03*
X109290000Y-126970000D03*
%TD*%
D13*
%TO.C,SW15*%
X146120000Y-110460000D03*
D14*
X151200000Y-110460000D03*
D13*
X156280000Y-110460000D03*
D15*
X153740000Y-105380000D03*
X147390000Y-107920000D03*
%TD*%
D12*
%TO.C,D22*%
X123175000Y-157762500D03*
X123175000Y-154462500D03*
%TD*%
D13*
%TO.C,SW20*%
X165170000Y-129510000D03*
D14*
X170250000Y-129510000D03*
D13*
X175330000Y-129510000D03*
D15*
X172790000Y-124430000D03*
X166440000Y-126970000D03*
%TD*%
D18*
%TO.C,U4*%
X86120400Y-110590800D03*
X87060200Y-110590800D03*
X88000000Y-110590800D03*
X88000000Y-108000000D03*
X86120400Y-108000000D03*
%TD*%
D13*
%TO.C,SW12*%
X165170000Y-91410000D03*
D14*
X170250000Y-91410000D03*
D13*
X175330000Y-91410000D03*
D15*
X172790000Y-86330000D03*
X166440000Y-88870000D03*
%TD*%
D12*
%TO.C,D6*%
X123175000Y-81562500D03*
X123175000Y-78262500D03*
%TD*%
%TO.C,D9*%
X104125000Y-100612500D03*
X104125000Y-97312500D03*
%TD*%
D13*
%TO.C,SW1*%
X108020000Y-53310000D03*
D14*
X113100000Y-53310000D03*
D13*
X118180000Y-53310000D03*
D15*
X115640000Y-48230000D03*
X109290000Y-50770000D03*
%TD*%
D12*
%TO.C,D21*%
X104125000Y-157762500D03*
X104125000Y-154462500D03*
%TD*%
%TO.C,D8*%
X161275000Y-81562500D03*
X161275000Y-78262500D03*
%TD*%
D13*
%TO.C,SW6*%
X127070000Y-72360000D03*
D14*
X132150000Y-72360000D03*
D13*
X137230000Y-72360000D03*
D15*
X134690000Y-67280000D03*
X128340000Y-69820000D03*
%TD*%
D12*
%TO.C,D16*%
X161275000Y-119662500D03*
X161275000Y-116362500D03*
%TD*%
%TO.C,D7*%
X142225000Y-81562500D03*
X142225000Y-78262500D03*
%TD*%
D13*
%TO.C,SW8*%
X165170000Y-72360000D03*
D14*
X170250000Y-72360000D03*
D13*
X175330000Y-72360000D03*
D15*
X172790000Y-67280000D03*
X166440000Y-69820000D03*
%TD*%
D12*
%TO.C,D11*%
X142225000Y-100612500D03*
X142225000Y-97312500D03*
%TD*%
D13*
%TO.C,SW14*%
X127070000Y-110460000D03*
D14*
X132150000Y-110460000D03*
D13*
X137230000Y-110460000D03*
D15*
X134690000Y-105380000D03*
X128340000Y-107920000D03*
%TD*%
D12*
%TO.C,D20*%
X161275000Y-138712500D03*
X161275000Y-135412500D03*
%TD*%
%TO.C,D2*%
X123175000Y-62512500D03*
X123175000Y-59212500D03*
%TD*%
D13*
%TO.C,SW16*%
X165170000Y-110460000D03*
D14*
X170250000Y-110460000D03*
D13*
X175330000Y-110460000D03*
D15*
X172790000Y-105380000D03*
X166440000Y-107920000D03*
%TD*%
D13*
%TO.C,SW18*%
X127070000Y-129510000D03*
D14*
X132150000Y-129510000D03*
D13*
X137230000Y-129510000D03*
D15*
X134690000Y-124430000D03*
X128340000Y-126970000D03*
%TD*%
D13*
%TO.C,SW19*%
X146120000Y-129510000D03*
D14*
X151200000Y-129510000D03*
D13*
X156280000Y-129510000D03*
D15*
X153740000Y-124430000D03*
X147390000Y-126970000D03*
%TD*%
D12*
%TO.C,D17*%
X104125000Y-138712500D03*
X104125000Y-135412500D03*
%TD*%
%TO.C,D14*%
X123175000Y-119662500D03*
X123175000Y-116362500D03*
%TD*%
%TO.C,D18*%
X123175000Y-138712500D03*
X123175000Y-135412500D03*
%TD*%
%TO.C,D1*%
X104125000Y-62512500D03*
X104125000Y-59212500D03*
%TD*%
D13*
%TO.C,SW13*%
X108020000Y-110460000D03*
D14*
X113100000Y-110460000D03*
D13*
X118180000Y-110460000D03*
D15*
X115640000Y-105380000D03*
X109290000Y-107920000D03*
%TD*%
D13*
%TO.C,SW22*%
X127070000Y-148560000D03*
D14*
X132150000Y-148560000D03*
D13*
X137230000Y-148560000D03*
D15*
X134690000Y-143480000D03*
X128340000Y-146020000D03*
%TD*%
D19*
%TO.C,BT1*%
X99500000Y-43500000D03*
D20*
X97500000Y-43500000D03*
%TD*%
D13*
%TO.C,SW11*%
X146120000Y-91410000D03*
D14*
X151200000Y-91410000D03*
D13*
X156280000Y-91410000D03*
D15*
X153740000Y-86330000D03*
X147390000Y-88870000D03*
%TD*%
D16*
%TO.C,U1*%
X86305000Y-91885000D03*
D17*
X91385000Y-91885000D03*
X93925000Y-91885000D03*
X88845000Y-91885000D03*
%TD*%
D12*
%TO.C,D19*%
X142225000Y-138712500D03*
X142225000Y-135412500D03*
%TD*%
D13*
%TO.C,SW5*%
X108020000Y-72360000D03*
D14*
X113100000Y-72360000D03*
D13*
X118180000Y-72360000D03*
D15*
X115640000Y-67280000D03*
X109290000Y-69820000D03*
%TD*%
D13*
%TO.C,SW2*%
X127070000Y-53310000D03*
D14*
X132150000Y-53310000D03*
D13*
X137230000Y-53310000D03*
D15*
X134690000Y-48230000D03*
X128340000Y-50770000D03*
%TD*%
D12*
%TO.C,D4*%
X161275000Y-62512500D03*
X161275000Y-59212500D03*
%TD*%
%TO.C,D13*%
X104125000Y-119662500D03*
X104125000Y-116362500D03*
%TD*%
D13*
%TO.C,SW24*%
X165170000Y-148560000D03*
D14*
X170250000Y-148560000D03*
D13*
X175330000Y-148560000D03*
D15*
X172790000Y-143480000D03*
X166440000Y-146020000D03*
%TD*%
D21*
%TO.C,R2*%
X95500000Y-106450000D03*
X95500000Y-109550000D03*
%TD*%
D12*
%TO.C,D12*%
X161275000Y-100612500D03*
X161275000Y-97312500D03*
%TD*%
D13*
%TO.C,SW3*%
X146120000Y-53310000D03*
D14*
X151200000Y-53310000D03*
D13*
X156280000Y-53310000D03*
D15*
X153740000Y-48230000D03*
X147390000Y-50770000D03*
%TD*%
D22*
%TO.C,U2*%
X82500000Y-51500000D03*
D23*
X82500000Y-54040000D03*
X82500000Y-56580000D03*
X82500000Y-59120000D03*
X82500000Y-61660000D03*
X82500000Y-64200000D03*
X82500000Y-66740000D03*
X82500000Y-69280000D03*
X82500000Y-71820000D03*
X82500000Y-74360000D03*
X82500000Y-76900000D03*
X82500000Y-79440000D03*
X97740000Y-79440000D03*
X97740000Y-76900000D03*
X97740000Y-74360000D03*
X97740000Y-71820000D03*
X97740000Y-69280000D03*
X97740000Y-66740000D03*
X97740000Y-64200000D03*
X97740000Y-61660000D03*
X97740000Y-59120000D03*
X97740000Y-56580000D03*
X97740000Y-54040000D03*
X97740000Y-51500000D03*
%TD*%
D16*
%TO.C,U3*%
X86305000Y-99115000D03*
D17*
X91385000Y-99115000D03*
X93925000Y-99115000D03*
X88845000Y-99115000D03*
%TD*%
M02*
