%TF.GenerationSoftware,KiCad,Pcbnew,8.0.2*%
%TF.CreationDate,2024-06-24T21:49:00-04:00*%
%TF.ProjectId,MacroPad,4d616372-6f50-4616-942e-6b696361645f,rev?*%
%TF.SameCoordinates,Original*%
%TF.FileFunction,OtherDrawing,Comment*%
%FSLAX46Y46*%
G04 Gerber Fmt 4.6, Leading zero omitted, Abs format (unit mm)*
G04 Created by KiCad (PCBNEW 8.0.2) date 2024-06-24 21:49:00*
%MOMM*%
%LPD*%
G01*
G04 APERTURE LIST*
%ADD10C,0.150000*%
G04 APERTURE END LIST*
D10*
%TO.C,SW21*%
X103575000Y-139035000D02*
X122625000Y-139035000D01*
X103575000Y-158085000D02*
X103575000Y-139035000D01*
X122625000Y-139035000D02*
X122625000Y-158085000D01*
X122625000Y-158085000D02*
X103575000Y-158085000D01*
%TO.C,SW4*%
X160725000Y-43785000D02*
X179775000Y-43785000D01*
X160725000Y-62835000D02*
X160725000Y-43785000D01*
X179775000Y-43785000D02*
X179775000Y-62835000D01*
X179775000Y-62835000D02*
X160725000Y-62835000D01*
%TO.C,SW10*%
X122625000Y-81885000D02*
X141675000Y-81885000D01*
X122625000Y-100935000D02*
X122625000Y-81885000D01*
X141675000Y-81885000D02*
X141675000Y-100935000D01*
X141675000Y-100935000D02*
X122625000Y-100935000D01*
%TO.C,SW7*%
X141675000Y-62835000D02*
X160725000Y-62835000D01*
X141675000Y-81885000D02*
X141675000Y-62835000D01*
X160725000Y-62835000D02*
X160725000Y-81885000D01*
X160725000Y-81885000D02*
X141675000Y-81885000D01*
%TO.C,SW9*%
X103575000Y-81885000D02*
X122625000Y-81885000D01*
X103575000Y-100935000D02*
X103575000Y-81885000D01*
X122625000Y-81885000D02*
X122625000Y-100935000D01*
X122625000Y-100935000D02*
X103575000Y-100935000D01*
%TO.C,SW23*%
X141675000Y-139035000D02*
X160725000Y-139035000D01*
X141675000Y-158085000D02*
X141675000Y-139035000D01*
X160725000Y-139035000D02*
X160725000Y-158085000D01*
X160725000Y-158085000D02*
X141675000Y-158085000D01*
%TO.C,SW17*%
X103575000Y-119985000D02*
X122625000Y-119985000D01*
X103575000Y-139035000D02*
X103575000Y-119985000D01*
X122625000Y-119985000D02*
X122625000Y-139035000D01*
X122625000Y-139035000D02*
X103575000Y-139035000D01*
%TO.C,SW15*%
X141675000Y-100935000D02*
X160725000Y-100935000D01*
X141675000Y-119985000D02*
X141675000Y-100935000D01*
X160725000Y-100935000D02*
X160725000Y-119985000D01*
X160725000Y-119985000D02*
X141675000Y-119985000D01*
%TO.C,SW20*%
X160725000Y-119985000D02*
X179775000Y-119985000D01*
X160725000Y-139035000D02*
X160725000Y-119985000D01*
X179775000Y-119985000D02*
X179775000Y-139035000D01*
X179775000Y-139035000D02*
X160725000Y-139035000D01*
%TO.C,SW12*%
X160725000Y-81885000D02*
X179775000Y-81885000D01*
X160725000Y-100935000D02*
X160725000Y-81885000D01*
X179775000Y-81885000D02*
X179775000Y-100935000D01*
X179775000Y-100935000D02*
X160725000Y-100935000D01*
%TO.C,SW1*%
X103575000Y-43785000D02*
X122625000Y-43785000D01*
X103575000Y-62835000D02*
X103575000Y-43785000D01*
X122625000Y-43785000D02*
X122625000Y-62835000D01*
X122625000Y-62835000D02*
X103575000Y-62835000D01*
%TO.C,SW6*%
X122625000Y-62835000D02*
X141675000Y-62835000D01*
X122625000Y-81885000D02*
X122625000Y-62835000D01*
X141675000Y-62835000D02*
X141675000Y-81885000D01*
X141675000Y-81885000D02*
X122625000Y-81885000D01*
%TO.C,SW8*%
X160725000Y-62835000D02*
X179775000Y-62835000D01*
X160725000Y-81885000D02*
X160725000Y-62835000D01*
X179775000Y-62835000D02*
X179775000Y-81885000D01*
X179775000Y-81885000D02*
X160725000Y-81885000D01*
%TO.C,SW14*%
X122625000Y-100935000D02*
X141675000Y-100935000D01*
X122625000Y-119985000D02*
X122625000Y-100935000D01*
X141675000Y-100935000D02*
X141675000Y-119985000D01*
X141675000Y-119985000D02*
X122625000Y-119985000D01*
%TO.C,SW16*%
X160725000Y-100935000D02*
X179775000Y-100935000D01*
X160725000Y-119985000D02*
X160725000Y-100935000D01*
X179775000Y-100935000D02*
X179775000Y-119985000D01*
X179775000Y-119985000D02*
X160725000Y-119985000D01*
%TO.C,SW18*%
X122625000Y-119985000D02*
X141675000Y-119985000D01*
X122625000Y-139035000D02*
X122625000Y-119985000D01*
X141675000Y-119985000D02*
X141675000Y-139035000D01*
X141675000Y-139035000D02*
X122625000Y-139035000D01*
%TO.C,SW19*%
X141675000Y-119985000D02*
X160725000Y-119985000D01*
X141675000Y-139035000D02*
X141675000Y-119985000D01*
X160725000Y-119985000D02*
X160725000Y-139035000D01*
X160725000Y-139035000D02*
X141675000Y-139035000D01*
%TO.C,SW13*%
X103575000Y-100935000D02*
X122625000Y-100935000D01*
X103575000Y-119985000D02*
X103575000Y-100935000D01*
X122625000Y-100935000D02*
X122625000Y-119985000D01*
X122625000Y-119985000D02*
X103575000Y-119985000D01*
%TO.C,SW22*%
X122625000Y-139035000D02*
X141675000Y-139035000D01*
X122625000Y-158085000D02*
X122625000Y-139035000D01*
X141675000Y-139035000D02*
X141675000Y-158085000D01*
X141675000Y-158085000D02*
X122625000Y-158085000D01*
%TO.C,SW11*%
X141675000Y-81885000D02*
X160725000Y-81885000D01*
X141675000Y-100935000D02*
X141675000Y-81885000D01*
X160725000Y-81885000D02*
X160725000Y-100935000D01*
X160725000Y-100935000D02*
X141675000Y-100935000D01*
%TO.C,SW5*%
X103575000Y-62835000D02*
X122625000Y-62835000D01*
X103575000Y-81885000D02*
X103575000Y-62835000D01*
X122625000Y-62835000D02*
X122625000Y-81885000D01*
X122625000Y-81885000D02*
X103575000Y-81885000D01*
%TO.C,SW2*%
X122625000Y-43785000D02*
X141675000Y-43785000D01*
X122625000Y-62835000D02*
X122625000Y-43785000D01*
X141675000Y-43785000D02*
X141675000Y-62835000D01*
X141675000Y-62835000D02*
X122625000Y-62835000D01*
%TO.C,SW24*%
X160725000Y-139035000D02*
X179775000Y-139035000D01*
X160725000Y-158085000D02*
X160725000Y-139035000D01*
X179775000Y-139035000D02*
X179775000Y-158085000D01*
X179775000Y-158085000D02*
X160725000Y-158085000D01*
%TO.C,SW3*%
X141675000Y-43785000D02*
X160725000Y-43785000D01*
X141675000Y-62835000D02*
X141675000Y-43785000D01*
X160725000Y-43785000D02*
X160725000Y-62835000D01*
X160725000Y-62835000D02*
X141675000Y-62835000D01*
%TD*%
M02*
