%TF.GenerationSoftware,KiCad,Pcbnew,8.0.2*%
%TF.CreationDate,2024-06-24T21:48:59-04:00*%
%TF.ProjectId,MacroPad,4d616372-6f50-4616-942e-6b696361645f,rev?*%
%TF.SameCoordinates,Original*%
%TF.FileFunction,Legend,Top*%
%TF.FilePolarity,Positive*%
%FSLAX46Y46*%
G04 Gerber Fmt 4.6, Leading zero omitted, Abs format (unit mm)*
G04 Created by KiCad (PCBNEW 8.0.2) date 2024-06-24 21:48:59*
%MOMM*%
%LPD*%
G01*
G04 APERTURE LIST*
%ADD10C,0.150000*%
%ADD11C,0.100000*%
%ADD12C,0.120000*%
%ADD13C,0.152400*%
%ADD14C,0.040000*%
G04 APERTURE END LIST*
D10*
X90970833Y-118289580D02*
X90923214Y-118337200D01*
X90923214Y-118337200D02*
X90780357Y-118384819D01*
X90780357Y-118384819D02*
X90685119Y-118384819D01*
X90685119Y-118384819D02*
X90542262Y-118337200D01*
X90542262Y-118337200D02*
X90447024Y-118241961D01*
X90447024Y-118241961D02*
X90399405Y-118146723D01*
X90399405Y-118146723D02*
X90351786Y-117956247D01*
X90351786Y-117956247D02*
X90351786Y-117813390D01*
X90351786Y-117813390D02*
X90399405Y-117622914D01*
X90399405Y-117622914D02*
X90447024Y-117527676D01*
X90447024Y-117527676D02*
X90542262Y-117432438D01*
X90542262Y-117432438D02*
X90685119Y-117384819D01*
X90685119Y-117384819D02*
X90780357Y-117384819D01*
X90780357Y-117384819D02*
X90923214Y-117432438D01*
X90923214Y-117432438D02*
X90970833Y-117480057D01*
X91351786Y-117480057D02*
X91399405Y-117432438D01*
X91399405Y-117432438D02*
X91494643Y-117384819D01*
X91494643Y-117384819D02*
X91732738Y-117384819D01*
X91732738Y-117384819D02*
X91827976Y-117432438D01*
X91827976Y-117432438D02*
X91875595Y-117480057D01*
X91875595Y-117480057D02*
X91923214Y-117575295D01*
X91923214Y-117575295D02*
X91923214Y-117670533D01*
X91923214Y-117670533D02*
X91875595Y-117813390D01*
X91875595Y-117813390D02*
X91304167Y-118384819D01*
X91304167Y-118384819D02*
X91923214Y-118384819D01*
X86204580Y-117666666D02*
X86252200Y-117714285D01*
X86252200Y-117714285D02*
X86299819Y-117857142D01*
X86299819Y-117857142D02*
X86299819Y-117952380D01*
X86299819Y-117952380D02*
X86252200Y-118095237D01*
X86252200Y-118095237D02*
X86156961Y-118190475D01*
X86156961Y-118190475D02*
X86061723Y-118238094D01*
X86061723Y-118238094D02*
X85871247Y-118285713D01*
X85871247Y-118285713D02*
X85728390Y-118285713D01*
X85728390Y-118285713D02*
X85537914Y-118238094D01*
X85537914Y-118238094D02*
X85442676Y-118190475D01*
X85442676Y-118190475D02*
X85347438Y-118095237D01*
X85347438Y-118095237D02*
X85299819Y-117952380D01*
X85299819Y-117952380D02*
X85299819Y-117857142D01*
X85299819Y-117857142D02*
X85347438Y-117714285D01*
X85347438Y-117714285D02*
X85395057Y-117666666D01*
X86299819Y-116714285D02*
X86299819Y-117285713D01*
X86299819Y-116999999D02*
X85299819Y-116999999D01*
X85299819Y-116999999D02*
X85442676Y-117095237D01*
X85442676Y-117095237D02*
X85537914Y-117190475D01*
X85537914Y-117190475D02*
X85585533Y-117285713D01*
D11*
X142182419Y-157576785D02*
X141182419Y-157576785D01*
X141182419Y-157576785D02*
X141182419Y-157338690D01*
X141182419Y-157338690D02*
X141230038Y-157195833D01*
X141230038Y-157195833D02*
X141325276Y-157100595D01*
X141325276Y-157100595D02*
X141420514Y-157052976D01*
X141420514Y-157052976D02*
X141610990Y-157005357D01*
X141610990Y-157005357D02*
X141753847Y-157005357D01*
X141753847Y-157005357D02*
X141944323Y-157052976D01*
X141944323Y-157052976D02*
X142039561Y-157100595D01*
X142039561Y-157100595D02*
X142134800Y-157195833D01*
X142134800Y-157195833D02*
X142182419Y-157338690D01*
X142182419Y-157338690D02*
X142182419Y-157576785D01*
X141277657Y-156624404D02*
X141230038Y-156576785D01*
X141230038Y-156576785D02*
X141182419Y-156481547D01*
X141182419Y-156481547D02*
X141182419Y-156243452D01*
X141182419Y-156243452D02*
X141230038Y-156148214D01*
X141230038Y-156148214D02*
X141277657Y-156100595D01*
X141277657Y-156100595D02*
X141372895Y-156052976D01*
X141372895Y-156052976D02*
X141468133Y-156052976D01*
X141468133Y-156052976D02*
X141610990Y-156100595D01*
X141610990Y-156100595D02*
X142182419Y-156672023D01*
X142182419Y-156672023D02*
X142182419Y-156052976D01*
X141182419Y-155719642D02*
X141182419Y-155100595D01*
X141182419Y-155100595D02*
X141563371Y-155433928D01*
X141563371Y-155433928D02*
X141563371Y-155291071D01*
X141563371Y-155291071D02*
X141610990Y-155195833D01*
X141610990Y-155195833D02*
X141658609Y-155148214D01*
X141658609Y-155148214D02*
X141753847Y-155100595D01*
X141753847Y-155100595D02*
X141991942Y-155100595D01*
X141991942Y-155100595D02*
X142087180Y-155148214D01*
X142087180Y-155148214D02*
X142134800Y-155195833D01*
X142134800Y-155195833D02*
X142182419Y-155291071D01*
X142182419Y-155291071D02*
X142182419Y-155576785D01*
X142182419Y-155576785D02*
X142134800Y-155672023D01*
X142134800Y-155672023D02*
X142087180Y-155719642D01*
D10*
X111290476Y-141093200D02*
X111433333Y-141140819D01*
X111433333Y-141140819D02*
X111671428Y-141140819D01*
X111671428Y-141140819D02*
X111766666Y-141093200D01*
X111766666Y-141093200D02*
X111814285Y-141045580D01*
X111814285Y-141045580D02*
X111861904Y-140950342D01*
X111861904Y-140950342D02*
X111861904Y-140855104D01*
X111861904Y-140855104D02*
X111814285Y-140759866D01*
X111814285Y-140759866D02*
X111766666Y-140712247D01*
X111766666Y-140712247D02*
X111671428Y-140664628D01*
X111671428Y-140664628D02*
X111480952Y-140617009D01*
X111480952Y-140617009D02*
X111385714Y-140569390D01*
X111385714Y-140569390D02*
X111338095Y-140521771D01*
X111338095Y-140521771D02*
X111290476Y-140426533D01*
X111290476Y-140426533D02*
X111290476Y-140331295D01*
X111290476Y-140331295D02*
X111338095Y-140236057D01*
X111338095Y-140236057D02*
X111385714Y-140188438D01*
X111385714Y-140188438D02*
X111480952Y-140140819D01*
X111480952Y-140140819D02*
X111719047Y-140140819D01*
X111719047Y-140140819D02*
X111861904Y-140188438D01*
X112195238Y-140140819D02*
X112433333Y-141140819D01*
X112433333Y-141140819D02*
X112623809Y-140426533D01*
X112623809Y-140426533D02*
X112814285Y-141140819D01*
X112814285Y-141140819D02*
X113052381Y-140140819D01*
X113385714Y-140236057D02*
X113433333Y-140188438D01*
X113433333Y-140188438D02*
X113528571Y-140140819D01*
X113528571Y-140140819D02*
X113766666Y-140140819D01*
X113766666Y-140140819D02*
X113861904Y-140188438D01*
X113861904Y-140188438D02*
X113909523Y-140236057D01*
X113909523Y-140236057D02*
X113957142Y-140331295D01*
X113957142Y-140331295D02*
X113957142Y-140426533D01*
X113957142Y-140426533D02*
X113909523Y-140569390D01*
X113909523Y-140569390D02*
X113338095Y-141140819D01*
X113338095Y-141140819D02*
X113957142Y-141140819D01*
X114909523Y-141140819D02*
X114338095Y-141140819D01*
X114623809Y-141140819D02*
X114623809Y-140140819D01*
X114623809Y-140140819D02*
X114528571Y-140283676D01*
X114528571Y-140283676D02*
X114433333Y-140378914D01*
X114433333Y-140378914D02*
X114338095Y-140426533D01*
X168916667Y-45843200D02*
X169059524Y-45890819D01*
X169059524Y-45890819D02*
X169297619Y-45890819D01*
X169297619Y-45890819D02*
X169392857Y-45843200D01*
X169392857Y-45843200D02*
X169440476Y-45795580D01*
X169440476Y-45795580D02*
X169488095Y-45700342D01*
X169488095Y-45700342D02*
X169488095Y-45605104D01*
X169488095Y-45605104D02*
X169440476Y-45509866D01*
X169440476Y-45509866D02*
X169392857Y-45462247D01*
X169392857Y-45462247D02*
X169297619Y-45414628D01*
X169297619Y-45414628D02*
X169107143Y-45367009D01*
X169107143Y-45367009D02*
X169011905Y-45319390D01*
X169011905Y-45319390D02*
X168964286Y-45271771D01*
X168964286Y-45271771D02*
X168916667Y-45176533D01*
X168916667Y-45176533D02*
X168916667Y-45081295D01*
X168916667Y-45081295D02*
X168964286Y-44986057D01*
X168964286Y-44986057D02*
X169011905Y-44938438D01*
X169011905Y-44938438D02*
X169107143Y-44890819D01*
X169107143Y-44890819D02*
X169345238Y-44890819D01*
X169345238Y-44890819D02*
X169488095Y-44938438D01*
X169821429Y-44890819D02*
X170059524Y-45890819D01*
X170059524Y-45890819D02*
X170250000Y-45176533D01*
X170250000Y-45176533D02*
X170440476Y-45890819D01*
X170440476Y-45890819D02*
X170678572Y-44890819D01*
X171488095Y-45224152D02*
X171488095Y-45890819D01*
X171250000Y-44843200D02*
X171011905Y-45557485D01*
X171011905Y-45557485D02*
X171630952Y-45557485D01*
X130340476Y-83943200D02*
X130483333Y-83990819D01*
X130483333Y-83990819D02*
X130721428Y-83990819D01*
X130721428Y-83990819D02*
X130816666Y-83943200D01*
X130816666Y-83943200D02*
X130864285Y-83895580D01*
X130864285Y-83895580D02*
X130911904Y-83800342D01*
X130911904Y-83800342D02*
X130911904Y-83705104D01*
X130911904Y-83705104D02*
X130864285Y-83609866D01*
X130864285Y-83609866D02*
X130816666Y-83562247D01*
X130816666Y-83562247D02*
X130721428Y-83514628D01*
X130721428Y-83514628D02*
X130530952Y-83467009D01*
X130530952Y-83467009D02*
X130435714Y-83419390D01*
X130435714Y-83419390D02*
X130388095Y-83371771D01*
X130388095Y-83371771D02*
X130340476Y-83276533D01*
X130340476Y-83276533D02*
X130340476Y-83181295D01*
X130340476Y-83181295D02*
X130388095Y-83086057D01*
X130388095Y-83086057D02*
X130435714Y-83038438D01*
X130435714Y-83038438D02*
X130530952Y-82990819D01*
X130530952Y-82990819D02*
X130769047Y-82990819D01*
X130769047Y-82990819D02*
X130911904Y-83038438D01*
X131245238Y-82990819D02*
X131483333Y-83990819D01*
X131483333Y-83990819D02*
X131673809Y-83276533D01*
X131673809Y-83276533D02*
X131864285Y-83990819D01*
X131864285Y-83990819D02*
X132102381Y-82990819D01*
X133007142Y-83990819D02*
X132435714Y-83990819D01*
X132721428Y-83990819D02*
X132721428Y-82990819D01*
X132721428Y-82990819D02*
X132626190Y-83133676D01*
X132626190Y-83133676D02*
X132530952Y-83228914D01*
X132530952Y-83228914D02*
X132435714Y-83276533D01*
X133626190Y-82990819D02*
X133721428Y-82990819D01*
X133721428Y-82990819D02*
X133816666Y-83038438D01*
X133816666Y-83038438D02*
X133864285Y-83086057D01*
X133864285Y-83086057D02*
X133911904Y-83181295D01*
X133911904Y-83181295D02*
X133959523Y-83371771D01*
X133959523Y-83371771D02*
X133959523Y-83609866D01*
X133959523Y-83609866D02*
X133911904Y-83800342D01*
X133911904Y-83800342D02*
X133864285Y-83895580D01*
X133864285Y-83895580D02*
X133816666Y-83943200D01*
X133816666Y-83943200D02*
X133721428Y-83990819D01*
X133721428Y-83990819D02*
X133626190Y-83990819D01*
X133626190Y-83990819D02*
X133530952Y-83943200D01*
X133530952Y-83943200D02*
X133483333Y-83895580D01*
X133483333Y-83895580D02*
X133435714Y-83800342D01*
X133435714Y-83800342D02*
X133388095Y-83609866D01*
X133388095Y-83609866D02*
X133388095Y-83371771D01*
X133388095Y-83371771D02*
X133435714Y-83181295D01*
X133435714Y-83181295D02*
X133483333Y-83086057D01*
X133483333Y-83086057D02*
X133530952Y-83038438D01*
X133530952Y-83038438D02*
X133626190Y-82990819D01*
X149866667Y-64893200D02*
X150009524Y-64940819D01*
X150009524Y-64940819D02*
X150247619Y-64940819D01*
X150247619Y-64940819D02*
X150342857Y-64893200D01*
X150342857Y-64893200D02*
X150390476Y-64845580D01*
X150390476Y-64845580D02*
X150438095Y-64750342D01*
X150438095Y-64750342D02*
X150438095Y-64655104D01*
X150438095Y-64655104D02*
X150390476Y-64559866D01*
X150390476Y-64559866D02*
X150342857Y-64512247D01*
X150342857Y-64512247D02*
X150247619Y-64464628D01*
X150247619Y-64464628D02*
X150057143Y-64417009D01*
X150057143Y-64417009D02*
X149961905Y-64369390D01*
X149961905Y-64369390D02*
X149914286Y-64321771D01*
X149914286Y-64321771D02*
X149866667Y-64226533D01*
X149866667Y-64226533D02*
X149866667Y-64131295D01*
X149866667Y-64131295D02*
X149914286Y-64036057D01*
X149914286Y-64036057D02*
X149961905Y-63988438D01*
X149961905Y-63988438D02*
X150057143Y-63940819D01*
X150057143Y-63940819D02*
X150295238Y-63940819D01*
X150295238Y-63940819D02*
X150438095Y-63988438D01*
X150771429Y-63940819D02*
X151009524Y-64940819D01*
X151009524Y-64940819D02*
X151200000Y-64226533D01*
X151200000Y-64226533D02*
X151390476Y-64940819D01*
X151390476Y-64940819D02*
X151628572Y-63940819D01*
X151914286Y-63940819D02*
X152580952Y-63940819D01*
X152580952Y-63940819D02*
X152152381Y-64940819D01*
X111766667Y-83943200D02*
X111909524Y-83990819D01*
X111909524Y-83990819D02*
X112147619Y-83990819D01*
X112147619Y-83990819D02*
X112242857Y-83943200D01*
X112242857Y-83943200D02*
X112290476Y-83895580D01*
X112290476Y-83895580D02*
X112338095Y-83800342D01*
X112338095Y-83800342D02*
X112338095Y-83705104D01*
X112338095Y-83705104D02*
X112290476Y-83609866D01*
X112290476Y-83609866D02*
X112242857Y-83562247D01*
X112242857Y-83562247D02*
X112147619Y-83514628D01*
X112147619Y-83514628D02*
X111957143Y-83467009D01*
X111957143Y-83467009D02*
X111861905Y-83419390D01*
X111861905Y-83419390D02*
X111814286Y-83371771D01*
X111814286Y-83371771D02*
X111766667Y-83276533D01*
X111766667Y-83276533D02*
X111766667Y-83181295D01*
X111766667Y-83181295D02*
X111814286Y-83086057D01*
X111814286Y-83086057D02*
X111861905Y-83038438D01*
X111861905Y-83038438D02*
X111957143Y-82990819D01*
X111957143Y-82990819D02*
X112195238Y-82990819D01*
X112195238Y-82990819D02*
X112338095Y-83038438D01*
X112671429Y-82990819D02*
X112909524Y-83990819D01*
X112909524Y-83990819D02*
X113100000Y-83276533D01*
X113100000Y-83276533D02*
X113290476Y-83990819D01*
X113290476Y-83990819D02*
X113528572Y-82990819D01*
X113957143Y-83990819D02*
X114147619Y-83990819D01*
X114147619Y-83990819D02*
X114242857Y-83943200D01*
X114242857Y-83943200D02*
X114290476Y-83895580D01*
X114290476Y-83895580D02*
X114385714Y-83752723D01*
X114385714Y-83752723D02*
X114433333Y-83562247D01*
X114433333Y-83562247D02*
X114433333Y-83181295D01*
X114433333Y-83181295D02*
X114385714Y-83086057D01*
X114385714Y-83086057D02*
X114338095Y-83038438D01*
X114338095Y-83038438D02*
X114242857Y-82990819D01*
X114242857Y-82990819D02*
X114052381Y-82990819D01*
X114052381Y-82990819D02*
X113957143Y-83038438D01*
X113957143Y-83038438D02*
X113909524Y-83086057D01*
X113909524Y-83086057D02*
X113861905Y-83181295D01*
X113861905Y-83181295D02*
X113861905Y-83419390D01*
X113861905Y-83419390D02*
X113909524Y-83514628D01*
X113909524Y-83514628D02*
X113957143Y-83562247D01*
X113957143Y-83562247D02*
X114052381Y-83609866D01*
X114052381Y-83609866D02*
X114242857Y-83609866D01*
X114242857Y-83609866D02*
X114338095Y-83562247D01*
X114338095Y-83562247D02*
X114385714Y-83514628D01*
X114385714Y-83514628D02*
X114433333Y-83419390D01*
X78690476Y-97817200D02*
X78833333Y-97864819D01*
X78833333Y-97864819D02*
X79071428Y-97864819D01*
X79071428Y-97864819D02*
X79166666Y-97817200D01*
X79166666Y-97817200D02*
X79214285Y-97769580D01*
X79214285Y-97769580D02*
X79261904Y-97674342D01*
X79261904Y-97674342D02*
X79261904Y-97579104D01*
X79261904Y-97579104D02*
X79214285Y-97483866D01*
X79214285Y-97483866D02*
X79166666Y-97436247D01*
X79166666Y-97436247D02*
X79071428Y-97388628D01*
X79071428Y-97388628D02*
X78880952Y-97341009D01*
X78880952Y-97341009D02*
X78785714Y-97293390D01*
X78785714Y-97293390D02*
X78738095Y-97245771D01*
X78738095Y-97245771D02*
X78690476Y-97150533D01*
X78690476Y-97150533D02*
X78690476Y-97055295D01*
X78690476Y-97055295D02*
X78738095Y-96960057D01*
X78738095Y-96960057D02*
X78785714Y-96912438D01*
X78785714Y-96912438D02*
X78880952Y-96864819D01*
X78880952Y-96864819D02*
X79119047Y-96864819D01*
X79119047Y-96864819D02*
X79261904Y-96912438D01*
X79595238Y-96864819D02*
X79833333Y-97864819D01*
X79833333Y-97864819D02*
X80023809Y-97150533D01*
X80023809Y-97150533D02*
X80214285Y-97864819D01*
X80214285Y-97864819D02*
X80452381Y-96864819D01*
X80785714Y-96960057D02*
X80833333Y-96912438D01*
X80833333Y-96912438D02*
X80928571Y-96864819D01*
X80928571Y-96864819D02*
X81166666Y-96864819D01*
X81166666Y-96864819D02*
X81261904Y-96912438D01*
X81261904Y-96912438D02*
X81309523Y-96960057D01*
X81309523Y-96960057D02*
X81357142Y-97055295D01*
X81357142Y-97055295D02*
X81357142Y-97150533D01*
X81357142Y-97150533D02*
X81309523Y-97293390D01*
X81309523Y-97293390D02*
X80738095Y-97864819D01*
X80738095Y-97864819D02*
X81357142Y-97864819D01*
X82261904Y-96864819D02*
X81785714Y-96864819D01*
X81785714Y-96864819D02*
X81738095Y-97341009D01*
X81738095Y-97341009D02*
X81785714Y-97293390D01*
X81785714Y-97293390D02*
X81880952Y-97245771D01*
X81880952Y-97245771D02*
X82119047Y-97245771D01*
X82119047Y-97245771D02*
X82214285Y-97293390D01*
X82214285Y-97293390D02*
X82261904Y-97341009D01*
X82261904Y-97341009D02*
X82309523Y-97436247D01*
X82309523Y-97436247D02*
X82309523Y-97674342D01*
X82309523Y-97674342D02*
X82261904Y-97769580D01*
X82261904Y-97769580D02*
X82214285Y-97817200D01*
X82214285Y-97817200D02*
X82119047Y-97864819D01*
X82119047Y-97864819D02*
X81880952Y-97864819D01*
X81880952Y-97864819D02*
X81785714Y-97817200D01*
X81785714Y-97817200D02*
X81738095Y-97769580D01*
X149390476Y-141093200D02*
X149533333Y-141140819D01*
X149533333Y-141140819D02*
X149771428Y-141140819D01*
X149771428Y-141140819D02*
X149866666Y-141093200D01*
X149866666Y-141093200D02*
X149914285Y-141045580D01*
X149914285Y-141045580D02*
X149961904Y-140950342D01*
X149961904Y-140950342D02*
X149961904Y-140855104D01*
X149961904Y-140855104D02*
X149914285Y-140759866D01*
X149914285Y-140759866D02*
X149866666Y-140712247D01*
X149866666Y-140712247D02*
X149771428Y-140664628D01*
X149771428Y-140664628D02*
X149580952Y-140617009D01*
X149580952Y-140617009D02*
X149485714Y-140569390D01*
X149485714Y-140569390D02*
X149438095Y-140521771D01*
X149438095Y-140521771D02*
X149390476Y-140426533D01*
X149390476Y-140426533D02*
X149390476Y-140331295D01*
X149390476Y-140331295D02*
X149438095Y-140236057D01*
X149438095Y-140236057D02*
X149485714Y-140188438D01*
X149485714Y-140188438D02*
X149580952Y-140140819D01*
X149580952Y-140140819D02*
X149819047Y-140140819D01*
X149819047Y-140140819D02*
X149961904Y-140188438D01*
X150295238Y-140140819D02*
X150533333Y-141140819D01*
X150533333Y-141140819D02*
X150723809Y-140426533D01*
X150723809Y-140426533D02*
X150914285Y-141140819D01*
X150914285Y-141140819D02*
X151152381Y-140140819D01*
X151485714Y-140236057D02*
X151533333Y-140188438D01*
X151533333Y-140188438D02*
X151628571Y-140140819D01*
X151628571Y-140140819D02*
X151866666Y-140140819D01*
X151866666Y-140140819D02*
X151961904Y-140188438D01*
X151961904Y-140188438D02*
X152009523Y-140236057D01*
X152009523Y-140236057D02*
X152057142Y-140331295D01*
X152057142Y-140331295D02*
X152057142Y-140426533D01*
X152057142Y-140426533D02*
X152009523Y-140569390D01*
X152009523Y-140569390D02*
X151438095Y-141140819D01*
X151438095Y-141140819D02*
X152057142Y-141140819D01*
X152390476Y-140140819D02*
X153009523Y-140140819D01*
X153009523Y-140140819D02*
X152676190Y-140521771D01*
X152676190Y-140521771D02*
X152819047Y-140521771D01*
X152819047Y-140521771D02*
X152914285Y-140569390D01*
X152914285Y-140569390D02*
X152961904Y-140617009D01*
X152961904Y-140617009D02*
X153009523Y-140712247D01*
X153009523Y-140712247D02*
X153009523Y-140950342D01*
X153009523Y-140950342D02*
X152961904Y-141045580D01*
X152961904Y-141045580D02*
X152914285Y-141093200D01*
X152914285Y-141093200D02*
X152819047Y-141140819D01*
X152819047Y-141140819D02*
X152533333Y-141140819D01*
X152533333Y-141140819D02*
X152438095Y-141093200D01*
X152438095Y-141093200D02*
X152390476Y-141045580D01*
X84152200Y-134218332D02*
X84199819Y-134075475D01*
X84199819Y-134075475D02*
X84199819Y-133837380D01*
X84199819Y-133837380D02*
X84152200Y-133742142D01*
X84152200Y-133742142D02*
X84104580Y-133694523D01*
X84104580Y-133694523D02*
X84009342Y-133646904D01*
X84009342Y-133646904D02*
X83914104Y-133646904D01*
X83914104Y-133646904D02*
X83818866Y-133694523D01*
X83818866Y-133694523D02*
X83771247Y-133742142D01*
X83771247Y-133742142D02*
X83723628Y-133837380D01*
X83723628Y-133837380D02*
X83676009Y-134027856D01*
X83676009Y-134027856D02*
X83628390Y-134123094D01*
X83628390Y-134123094D02*
X83580771Y-134170713D01*
X83580771Y-134170713D02*
X83485533Y-134218332D01*
X83485533Y-134218332D02*
X83390295Y-134218332D01*
X83390295Y-134218332D02*
X83295057Y-134170713D01*
X83295057Y-134170713D02*
X83247438Y-134123094D01*
X83247438Y-134123094D02*
X83199819Y-134027856D01*
X83199819Y-134027856D02*
X83199819Y-133789761D01*
X83199819Y-133789761D02*
X83247438Y-133646904D01*
X83199819Y-133313570D02*
X84199819Y-133075475D01*
X84199819Y-133075475D02*
X83485533Y-132884999D01*
X83485533Y-132884999D02*
X84199819Y-132694523D01*
X84199819Y-132694523D02*
X83199819Y-132456428D01*
X83199819Y-131884999D02*
X83199819Y-131789761D01*
X83199819Y-131789761D02*
X83247438Y-131694523D01*
X83247438Y-131694523D02*
X83295057Y-131646904D01*
X83295057Y-131646904D02*
X83390295Y-131599285D01*
X83390295Y-131599285D02*
X83580771Y-131551666D01*
X83580771Y-131551666D02*
X83818866Y-131551666D01*
X83818866Y-131551666D02*
X84009342Y-131599285D01*
X84009342Y-131599285D02*
X84104580Y-131646904D01*
X84104580Y-131646904D02*
X84152200Y-131694523D01*
X84152200Y-131694523D02*
X84199819Y-131789761D01*
X84199819Y-131789761D02*
X84199819Y-131884999D01*
X84199819Y-131884999D02*
X84152200Y-131980237D01*
X84152200Y-131980237D02*
X84104580Y-132027856D01*
X84104580Y-132027856D02*
X84009342Y-132075475D01*
X84009342Y-132075475D02*
X83818866Y-132123094D01*
X83818866Y-132123094D02*
X83580771Y-132123094D01*
X83580771Y-132123094D02*
X83390295Y-132075475D01*
X83390295Y-132075475D02*
X83295057Y-132027856D01*
X83295057Y-132027856D02*
X83247438Y-131980237D01*
X83247438Y-131980237D02*
X83199819Y-131884999D01*
D11*
X161232419Y-157576785D02*
X160232419Y-157576785D01*
X160232419Y-157576785D02*
X160232419Y-157338690D01*
X160232419Y-157338690D02*
X160280038Y-157195833D01*
X160280038Y-157195833D02*
X160375276Y-157100595D01*
X160375276Y-157100595D02*
X160470514Y-157052976D01*
X160470514Y-157052976D02*
X160660990Y-157005357D01*
X160660990Y-157005357D02*
X160803847Y-157005357D01*
X160803847Y-157005357D02*
X160994323Y-157052976D01*
X160994323Y-157052976D02*
X161089561Y-157100595D01*
X161089561Y-157100595D02*
X161184800Y-157195833D01*
X161184800Y-157195833D02*
X161232419Y-157338690D01*
X161232419Y-157338690D02*
X161232419Y-157576785D01*
X160327657Y-156624404D02*
X160280038Y-156576785D01*
X160280038Y-156576785D02*
X160232419Y-156481547D01*
X160232419Y-156481547D02*
X160232419Y-156243452D01*
X160232419Y-156243452D02*
X160280038Y-156148214D01*
X160280038Y-156148214D02*
X160327657Y-156100595D01*
X160327657Y-156100595D02*
X160422895Y-156052976D01*
X160422895Y-156052976D02*
X160518133Y-156052976D01*
X160518133Y-156052976D02*
X160660990Y-156100595D01*
X160660990Y-156100595D02*
X161232419Y-156672023D01*
X161232419Y-156672023D02*
X161232419Y-156052976D01*
X160565752Y-155195833D02*
X161232419Y-155195833D01*
X160184800Y-155433928D02*
X160899085Y-155672023D01*
X160899085Y-155672023D02*
X160899085Y-155052976D01*
X142182419Y-119476785D02*
X141182419Y-119476785D01*
X141182419Y-119476785D02*
X141182419Y-119238690D01*
X141182419Y-119238690D02*
X141230038Y-119095833D01*
X141230038Y-119095833D02*
X141325276Y-119000595D01*
X141325276Y-119000595D02*
X141420514Y-118952976D01*
X141420514Y-118952976D02*
X141610990Y-118905357D01*
X141610990Y-118905357D02*
X141753847Y-118905357D01*
X141753847Y-118905357D02*
X141944323Y-118952976D01*
X141944323Y-118952976D02*
X142039561Y-119000595D01*
X142039561Y-119000595D02*
X142134800Y-119095833D01*
X142134800Y-119095833D02*
X142182419Y-119238690D01*
X142182419Y-119238690D02*
X142182419Y-119476785D01*
X142182419Y-117952976D02*
X142182419Y-118524404D01*
X142182419Y-118238690D02*
X141182419Y-118238690D01*
X141182419Y-118238690D02*
X141325276Y-118333928D01*
X141325276Y-118333928D02*
X141420514Y-118429166D01*
X141420514Y-118429166D02*
X141468133Y-118524404D01*
X141182419Y-117048214D02*
X141182419Y-117524404D01*
X141182419Y-117524404D02*
X141658609Y-117572023D01*
X141658609Y-117572023D02*
X141610990Y-117524404D01*
X141610990Y-117524404D02*
X141563371Y-117429166D01*
X141563371Y-117429166D02*
X141563371Y-117191071D01*
X141563371Y-117191071D02*
X141610990Y-117095833D01*
X141610990Y-117095833D02*
X141658609Y-117048214D01*
X141658609Y-117048214D02*
X141753847Y-117000595D01*
X141753847Y-117000595D02*
X141991942Y-117000595D01*
X141991942Y-117000595D02*
X142087180Y-117048214D01*
X142087180Y-117048214D02*
X142134800Y-117095833D01*
X142134800Y-117095833D02*
X142182419Y-117191071D01*
X142182419Y-117191071D02*
X142182419Y-117429166D01*
X142182419Y-117429166D02*
X142134800Y-117524404D01*
X142134800Y-117524404D02*
X142087180Y-117572023D01*
X104082419Y-80900594D02*
X103082419Y-80900594D01*
X103082419Y-80900594D02*
X103082419Y-80662499D01*
X103082419Y-80662499D02*
X103130038Y-80519642D01*
X103130038Y-80519642D02*
X103225276Y-80424404D01*
X103225276Y-80424404D02*
X103320514Y-80376785D01*
X103320514Y-80376785D02*
X103510990Y-80329166D01*
X103510990Y-80329166D02*
X103653847Y-80329166D01*
X103653847Y-80329166D02*
X103844323Y-80376785D01*
X103844323Y-80376785D02*
X103939561Y-80424404D01*
X103939561Y-80424404D02*
X104034800Y-80519642D01*
X104034800Y-80519642D02*
X104082419Y-80662499D01*
X104082419Y-80662499D02*
X104082419Y-80900594D01*
X103082419Y-79424404D02*
X103082419Y-79900594D01*
X103082419Y-79900594D02*
X103558609Y-79948213D01*
X103558609Y-79948213D02*
X103510990Y-79900594D01*
X103510990Y-79900594D02*
X103463371Y-79805356D01*
X103463371Y-79805356D02*
X103463371Y-79567261D01*
X103463371Y-79567261D02*
X103510990Y-79472023D01*
X103510990Y-79472023D02*
X103558609Y-79424404D01*
X103558609Y-79424404D02*
X103653847Y-79376785D01*
X103653847Y-79376785D02*
X103891942Y-79376785D01*
X103891942Y-79376785D02*
X103987180Y-79424404D01*
X103987180Y-79424404D02*
X104034800Y-79472023D01*
X104034800Y-79472023D02*
X104082419Y-79567261D01*
X104082419Y-79567261D02*
X104082419Y-79805356D01*
X104082419Y-79805356D02*
X104034800Y-79900594D01*
X104034800Y-79900594D02*
X103987180Y-79948213D01*
X123132419Y-100426785D02*
X122132419Y-100426785D01*
X122132419Y-100426785D02*
X122132419Y-100188690D01*
X122132419Y-100188690D02*
X122180038Y-100045833D01*
X122180038Y-100045833D02*
X122275276Y-99950595D01*
X122275276Y-99950595D02*
X122370514Y-99902976D01*
X122370514Y-99902976D02*
X122560990Y-99855357D01*
X122560990Y-99855357D02*
X122703847Y-99855357D01*
X122703847Y-99855357D02*
X122894323Y-99902976D01*
X122894323Y-99902976D02*
X122989561Y-99950595D01*
X122989561Y-99950595D02*
X123084800Y-100045833D01*
X123084800Y-100045833D02*
X123132419Y-100188690D01*
X123132419Y-100188690D02*
X123132419Y-100426785D01*
X123132419Y-98902976D02*
X123132419Y-99474404D01*
X123132419Y-99188690D02*
X122132419Y-99188690D01*
X122132419Y-99188690D02*
X122275276Y-99283928D01*
X122275276Y-99283928D02*
X122370514Y-99379166D01*
X122370514Y-99379166D02*
X122418133Y-99474404D01*
X122132419Y-98283928D02*
X122132419Y-98188690D01*
X122132419Y-98188690D02*
X122180038Y-98093452D01*
X122180038Y-98093452D02*
X122227657Y-98045833D01*
X122227657Y-98045833D02*
X122322895Y-97998214D01*
X122322895Y-97998214D02*
X122513371Y-97950595D01*
X122513371Y-97950595D02*
X122751466Y-97950595D01*
X122751466Y-97950595D02*
X122941942Y-97998214D01*
X122941942Y-97998214D02*
X123037180Y-98045833D01*
X123037180Y-98045833D02*
X123084800Y-98093452D01*
X123084800Y-98093452D02*
X123132419Y-98188690D01*
X123132419Y-98188690D02*
X123132419Y-98283928D01*
X123132419Y-98283928D02*
X123084800Y-98379166D01*
X123084800Y-98379166D02*
X123037180Y-98426785D01*
X123037180Y-98426785D02*
X122941942Y-98474404D01*
X122941942Y-98474404D02*
X122751466Y-98522023D01*
X122751466Y-98522023D02*
X122513371Y-98522023D01*
X122513371Y-98522023D02*
X122322895Y-98474404D01*
X122322895Y-98474404D02*
X122227657Y-98426785D01*
X122227657Y-98426785D02*
X122180038Y-98379166D01*
X122180038Y-98379166D02*
X122132419Y-98283928D01*
X142182419Y-61850594D02*
X141182419Y-61850594D01*
X141182419Y-61850594D02*
X141182419Y-61612499D01*
X141182419Y-61612499D02*
X141230038Y-61469642D01*
X141230038Y-61469642D02*
X141325276Y-61374404D01*
X141325276Y-61374404D02*
X141420514Y-61326785D01*
X141420514Y-61326785D02*
X141610990Y-61279166D01*
X141610990Y-61279166D02*
X141753847Y-61279166D01*
X141753847Y-61279166D02*
X141944323Y-61326785D01*
X141944323Y-61326785D02*
X142039561Y-61374404D01*
X142039561Y-61374404D02*
X142134800Y-61469642D01*
X142134800Y-61469642D02*
X142182419Y-61612499D01*
X142182419Y-61612499D02*
X142182419Y-61850594D01*
X141182419Y-60945832D02*
X141182419Y-60326785D01*
X141182419Y-60326785D02*
X141563371Y-60660118D01*
X141563371Y-60660118D02*
X141563371Y-60517261D01*
X141563371Y-60517261D02*
X141610990Y-60422023D01*
X141610990Y-60422023D02*
X141658609Y-60374404D01*
X141658609Y-60374404D02*
X141753847Y-60326785D01*
X141753847Y-60326785D02*
X141991942Y-60326785D01*
X141991942Y-60326785D02*
X142087180Y-60374404D01*
X142087180Y-60374404D02*
X142134800Y-60422023D01*
X142134800Y-60422023D02*
X142182419Y-60517261D01*
X142182419Y-60517261D02*
X142182419Y-60802975D01*
X142182419Y-60802975D02*
X142134800Y-60898213D01*
X142134800Y-60898213D02*
X142087180Y-60945832D01*
D10*
X111290476Y-122043200D02*
X111433333Y-122090819D01*
X111433333Y-122090819D02*
X111671428Y-122090819D01*
X111671428Y-122090819D02*
X111766666Y-122043200D01*
X111766666Y-122043200D02*
X111814285Y-121995580D01*
X111814285Y-121995580D02*
X111861904Y-121900342D01*
X111861904Y-121900342D02*
X111861904Y-121805104D01*
X111861904Y-121805104D02*
X111814285Y-121709866D01*
X111814285Y-121709866D02*
X111766666Y-121662247D01*
X111766666Y-121662247D02*
X111671428Y-121614628D01*
X111671428Y-121614628D02*
X111480952Y-121567009D01*
X111480952Y-121567009D02*
X111385714Y-121519390D01*
X111385714Y-121519390D02*
X111338095Y-121471771D01*
X111338095Y-121471771D02*
X111290476Y-121376533D01*
X111290476Y-121376533D02*
X111290476Y-121281295D01*
X111290476Y-121281295D02*
X111338095Y-121186057D01*
X111338095Y-121186057D02*
X111385714Y-121138438D01*
X111385714Y-121138438D02*
X111480952Y-121090819D01*
X111480952Y-121090819D02*
X111719047Y-121090819D01*
X111719047Y-121090819D02*
X111861904Y-121138438D01*
X112195238Y-121090819D02*
X112433333Y-122090819D01*
X112433333Y-122090819D02*
X112623809Y-121376533D01*
X112623809Y-121376533D02*
X112814285Y-122090819D01*
X112814285Y-122090819D02*
X113052381Y-121090819D01*
X113957142Y-122090819D02*
X113385714Y-122090819D01*
X113671428Y-122090819D02*
X113671428Y-121090819D01*
X113671428Y-121090819D02*
X113576190Y-121233676D01*
X113576190Y-121233676D02*
X113480952Y-121328914D01*
X113480952Y-121328914D02*
X113385714Y-121376533D01*
X114290476Y-121090819D02*
X114957142Y-121090819D01*
X114957142Y-121090819D02*
X114528571Y-122090819D01*
X149390476Y-102993200D02*
X149533333Y-103040819D01*
X149533333Y-103040819D02*
X149771428Y-103040819D01*
X149771428Y-103040819D02*
X149866666Y-102993200D01*
X149866666Y-102993200D02*
X149914285Y-102945580D01*
X149914285Y-102945580D02*
X149961904Y-102850342D01*
X149961904Y-102850342D02*
X149961904Y-102755104D01*
X149961904Y-102755104D02*
X149914285Y-102659866D01*
X149914285Y-102659866D02*
X149866666Y-102612247D01*
X149866666Y-102612247D02*
X149771428Y-102564628D01*
X149771428Y-102564628D02*
X149580952Y-102517009D01*
X149580952Y-102517009D02*
X149485714Y-102469390D01*
X149485714Y-102469390D02*
X149438095Y-102421771D01*
X149438095Y-102421771D02*
X149390476Y-102326533D01*
X149390476Y-102326533D02*
X149390476Y-102231295D01*
X149390476Y-102231295D02*
X149438095Y-102136057D01*
X149438095Y-102136057D02*
X149485714Y-102088438D01*
X149485714Y-102088438D02*
X149580952Y-102040819D01*
X149580952Y-102040819D02*
X149819047Y-102040819D01*
X149819047Y-102040819D02*
X149961904Y-102088438D01*
X150295238Y-102040819D02*
X150533333Y-103040819D01*
X150533333Y-103040819D02*
X150723809Y-102326533D01*
X150723809Y-102326533D02*
X150914285Y-103040819D01*
X150914285Y-103040819D02*
X151152381Y-102040819D01*
X152057142Y-103040819D02*
X151485714Y-103040819D01*
X151771428Y-103040819D02*
X151771428Y-102040819D01*
X151771428Y-102040819D02*
X151676190Y-102183676D01*
X151676190Y-102183676D02*
X151580952Y-102278914D01*
X151580952Y-102278914D02*
X151485714Y-102326533D01*
X152961904Y-102040819D02*
X152485714Y-102040819D01*
X152485714Y-102040819D02*
X152438095Y-102517009D01*
X152438095Y-102517009D02*
X152485714Y-102469390D01*
X152485714Y-102469390D02*
X152580952Y-102421771D01*
X152580952Y-102421771D02*
X152819047Y-102421771D01*
X152819047Y-102421771D02*
X152914285Y-102469390D01*
X152914285Y-102469390D02*
X152961904Y-102517009D01*
X152961904Y-102517009D02*
X153009523Y-102612247D01*
X153009523Y-102612247D02*
X153009523Y-102850342D01*
X153009523Y-102850342D02*
X152961904Y-102945580D01*
X152961904Y-102945580D02*
X152914285Y-102993200D01*
X152914285Y-102993200D02*
X152819047Y-103040819D01*
X152819047Y-103040819D02*
X152580952Y-103040819D01*
X152580952Y-103040819D02*
X152485714Y-102993200D01*
X152485714Y-102993200D02*
X152438095Y-102945580D01*
D11*
X123132419Y-157576785D02*
X122132419Y-157576785D01*
X122132419Y-157576785D02*
X122132419Y-157338690D01*
X122132419Y-157338690D02*
X122180038Y-157195833D01*
X122180038Y-157195833D02*
X122275276Y-157100595D01*
X122275276Y-157100595D02*
X122370514Y-157052976D01*
X122370514Y-157052976D02*
X122560990Y-157005357D01*
X122560990Y-157005357D02*
X122703847Y-157005357D01*
X122703847Y-157005357D02*
X122894323Y-157052976D01*
X122894323Y-157052976D02*
X122989561Y-157100595D01*
X122989561Y-157100595D02*
X123084800Y-157195833D01*
X123084800Y-157195833D02*
X123132419Y-157338690D01*
X123132419Y-157338690D02*
X123132419Y-157576785D01*
X122227657Y-156624404D02*
X122180038Y-156576785D01*
X122180038Y-156576785D02*
X122132419Y-156481547D01*
X122132419Y-156481547D02*
X122132419Y-156243452D01*
X122132419Y-156243452D02*
X122180038Y-156148214D01*
X122180038Y-156148214D02*
X122227657Y-156100595D01*
X122227657Y-156100595D02*
X122322895Y-156052976D01*
X122322895Y-156052976D02*
X122418133Y-156052976D01*
X122418133Y-156052976D02*
X122560990Y-156100595D01*
X122560990Y-156100595D02*
X123132419Y-156672023D01*
X123132419Y-156672023D02*
X123132419Y-156052976D01*
X122227657Y-155672023D02*
X122180038Y-155624404D01*
X122180038Y-155624404D02*
X122132419Y-155529166D01*
X122132419Y-155529166D02*
X122132419Y-155291071D01*
X122132419Y-155291071D02*
X122180038Y-155195833D01*
X122180038Y-155195833D02*
X122227657Y-155148214D01*
X122227657Y-155148214D02*
X122322895Y-155100595D01*
X122322895Y-155100595D02*
X122418133Y-155100595D01*
X122418133Y-155100595D02*
X122560990Y-155148214D01*
X122560990Y-155148214D02*
X123132419Y-155719642D01*
X123132419Y-155719642D02*
X123132419Y-155100595D01*
D10*
X168440476Y-122043200D02*
X168583333Y-122090819D01*
X168583333Y-122090819D02*
X168821428Y-122090819D01*
X168821428Y-122090819D02*
X168916666Y-122043200D01*
X168916666Y-122043200D02*
X168964285Y-121995580D01*
X168964285Y-121995580D02*
X169011904Y-121900342D01*
X169011904Y-121900342D02*
X169011904Y-121805104D01*
X169011904Y-121805104D02*
X168964285Y-121709866D01*
X168964285Y-121709866D02*
X168916666Y-121662247D01*
X168916666Y-121662247D02*
X168821428Y-121614628D01*
X168821428Y-121614628D02*
X168630952Y-121567009D01*
X168630952Y-121567009D02*
X168535714Y-121519390D01*
X168535714Y-121519390D02*
X168488095Y-121471771D01*
X168488095Y-121471771D02*
X168440476Y-121376533D01*
X168440476Y-121376533D02*
X168440476Y-121281295D01*
X168440476Y-121281295D02*
X168488095Y-121186057D01*
X168488095Y-121186057D02*
X168535714Y-121138438D01*
X168535714Y-121138438D02*
X168630952Y-121090819D01*
X168630952Y-121090819D02*
X168869047Y-121090819D01*
X168869047Y-121090819D02*
X169011904Y-121138438D01*
X169345238Y-121090819D02*
X169583333Y-122090819D01*
X169583333Y-122090819D02*
X169773809Y-121376533D01*
X169773809Y-121376533D02*
X169964285Y-122090819D01*
X169964285Y-122090819D02*
X170202381Y-121090819D01*
X170535714Y-121186057D02*
X170583333Y-121138438D01*
X170583333Y-121138438D02*
X170678571Y-121090819D01*
X170678571Y-121090819D02*
X170916666Y-121090819D01*
X170916666Y-121090819D02*
X171011904Y-121138438D01*
X171011904Y-121138438D02*
X171059523Y-121186057D01*
X171059523Y-121186057D02*
X171107142Y-121281295D01*
X171107142Y-121281295D02*
X171107142Y-121376533D01*
X171107142Y-121376533D02*
X171059523Y-121519390D01*
X171059523Y-121519390D02*
X170488095Y-122090819D01*
X170488095Y-122090819D02*
X171107142Y-122090819D01*
X171726190Y-121090819D02*
X171821428Y-121090819D01*
X171821428Y-121090819D02*
X171916666Y-121138438D01*
X171916666Y-121138438D02*
X171964285Y-121186057D01*
X171964285Y-121186057D02*
X172011904Y-121281295D01*
X172011904Y-121281295D02*
X172059523Y-121471771D01*
X172059523Y-121471771D02*
X172059523Y-121709866D01*
X172059523Y-121709866D02*
X172011904Y-121900342D01*
X172011904Y-121900342D02*
X171964285Y-121995580D01*
X171964285Y-121995580D02*
X171916666Y-122043200D01*
X171916666Y-122043200D02*
X171821428Y-122090819D01*
X171821428Y-122090819D02*
X171726190Y-122090819D01*
X171726190Y-122090819D02*
X171630952Y-122043200D01*
X171630952Y-122043200D02*
X171583333Y-121995580D01*
X171583333Y-121995580D02*
X171535714Y-121900342D01*
X171535714Y-121900342D02*
X171488095Y-121709866D01*
X171488095Y-121709866D02*
X171488095Y-121471771D01*
X171488095Y-121471771D02*
X171535714Y-121281295D01*
X171535714Y-121281295D02*
X171583333Y-121186057D01*
X171583333Y-121186057D02*
X171630952Y-121138438D01*
X171630952Y-121138438D02*
X171726190Y-121090819D01*
X83248090Y-110088133D02*
X84576410Y-110088133D01*
X84576410Y-110088133D02*
X84732683Y-110009997D01*
X84732683Y-110009997D02*
X84810820Y-109931860D01*
X84810820Y-109931860D02*
X84888956Y-109775587D01*
X84888956Y-109775587D02*
X84888956Y-109463041D01*
X84888956Y-109463041D02*
X84810820Y-109306768D01*
X84810820Y-109306768D02*
X84732683Y-109228632D01*
X84732683Y-109228632D02*
X84576410Y-109150495D01*
X84576410Y-109150495D02*
X83248090Y-109150495D01*
X83795045Y-107665903D02*
X84888956Y-107665903D01*
X83169954Y-108056585D02*
X84342001Y-108447268D01*
X84342001Y-108447268D02*
X84342001Y-107431493D01*
X168440476Y-83943200D02*
X168583333Y-83990819D01*
X168583333Y-83990819D02*
X168821428Y-83990819D01*
X168821428Y-83990819D02*
X168916666Y-83943200D01*
X168916666Y-83943200D02*
X168964285Y-83895580D01*
X168964285Y-83895580D02*
X169011904Y-83800342D01*
X169011904Y-83800342D02*
X169011904Y-83705104D01*
X169011904Y-83705104D02*
X168964285Y-83609866D01*
X168964285Y-83609866D02*
X168916666Y-83562247D01*
X168916666Y-83562247D02*
X168821428Y-83514628D01*
X168821428Y-83514628D02*
X168630952Y-83467009D01*
X168630952Y-83467009D02*
X168535714Y-83419390D01*
X168535714Y-83419390D02*
X168488095Y-83371771D01*
X168488095Y-83371771D02*
X168440476Y-83276533D01*
X168440476Y-83276533D02*
X168440476Y-83181295D01*
X168440476Y-83181295D02*
X168488095Y-83086057D01*
X168488095Y-83086057D02*
X168535714Y-83038438D01*
X168535714Y-83038438D02*
X168630952Y-82990819D01*
X168630952Y-82990819D02*
X168869047Y-82990819D01*
X168869047Y-82990819D02*
X169011904Y-83038438D01*
X169345238Y-82990819D02*
X169583333Y-83990819D01*
X169583333Y-83990819D02*
X169773809Y-83276533D01*
X169773809Y-83276533D02*
X169964285Y-83990819D01*
X169964285Y-83990819D02*
X170202381Y-82990819D01*
X171107142Y-83990819D02*
X170535714Y-83990819D01*
X170821428Y-83990819D02*
X170821428Y-82990819D01*
X170821428Y-82990819D02*
X170726190Y-83133676D01*
X170726190Y-83133676D02*
X170630952Y-83228914D01*
X170630952Y-83228914D02*
X170535714Y-83276533D01*
X171488095Y-83086057D02*
X171535714Y-83038438D01*
X171535714Y-83038438D02*
X171630952Y-82990819D01*
X171630952Y-82990819D02*
X171869047Y-82990819D01*
X171869047Y-82990819D02*
X171964285Y-83038438D01*
X171964285Y-83038438D02*
X172011904Y-83086057D01*
X172011904Y-83086057D02*
X172059523Y-83181295D01*
X172059523Y-83181295D02*
X172059523Y-83276533D01*
X172059523Y-83276533D02*
X172011904Y-83419390D01*
X172011904Y-83419390D02*
X171440476Y-83990819D01*
X171440476Y-83990819D02*
X172059523Y-83990819D01*
D11*
X123132419Y-80900594D02*
X122132419Y-80900594D01*
X122132419Y-80900594D02*
X122132419Y-80662499D01*
X122132419Y-80662499D02*
X122180038Y-80519642D01*
X122180038Y-80519642D02*
X122275276Y-80424404D01*
X122275276Y-80424404D02*
X122370514Y-80376785D01*
X122370514Y-80376785D02*
X122560990Y-80329166D01*
X122560990Y-80329166D02*
X122703847Y-80329166D01*
X122703847Y-80329166D02*
X122894323Y-80376785D01*
X122894323Y-80376785D02*
X122989561Y-80424404D01*
X122989561Y-80424404D02*
X123084800Y-80519642D01*
X123084800Y-80519642D02*
X123132419Y-80662499D01*
X123132419Y-80662499D02*
X123132419Y-80900594D01*
X122132419Y-79472023D02*
X122132419Y-79662499D01*
X122132419Y-79662499D02*
X122180038Y-79757737D01*
X122180038Y-79757737D02*
X122227657Y-79805356D01*
X122227657Y-79805356D02*
X122370514Y-79900594D01*
X122370514Y-79900594D02*
X122560990Y-79948213D01*
X122560990Y-79948213D02*
X122941942Y-79948213D01*
X122941942Y-79948213D02*
X123037180Y-79900594D01*
X123037180Y-79900594D02*
X123084800Y-79852975D01*
X123084800Y-79852975D02*
X123132419Y-79757737D01*
X123132419Y-79757737D02*
X123132419Y-79567261D01*
X123132419Y-79567261D02*
X123084800Y-79472023D01*
X123084800Y-79472023D02*
X123037180Y-79424404D01*
X123037180Y-79424404D02*
X122941942Y-79376785D01*
X122941942Y-79376785D02*
X122703847Y-79376785D01*
X122703847Y-79376785D02*
X122608609Y-79424404D01*
X122608609Y-79424404D02*
X122560990Y-79472023D01*
X122560990Y-79472023D02*
X122513371Y-79567261D01*
X122513371Y-79567261D02*
X122513371Y-79757737D01*
X122513371Y-79757737D02*
X122560990Y-79852975D01*
X122560990Y-79852975D02*
X122608609Y-79900594D01*
X122608609Y-79900594D02*
X122703847Y-79948213D01*
X104082419Y-99950594D02*
X103082419Y-99950594D01*
X103082419Y-99950594D02*
X103082419Y-99712499D01*
X103082419Y-99712499D02*
X103130038Y-99569642D01*
X103130038Y-99569642D02*
X103225276Y-99474404D01*
X103225276Y-99474404D02*
X103320514Y-99426785D01*
X103320514Y-99426785D02*
X103510990Y-99379166D01*
X103510990Y-99379166D02*
X103653847Y-99379166D01*
X103653847Y-99379166D02*
X103844323Y-99426785D01*
X103844323Y-99426785D02*
X103939561Y-99474404D01*
X103939561Y-99474404D02*
X104034800Y-99569642D01*
X104034800Y-99569642D02*
X104082419Y-99712499D01*
X104082419Y-99712499D02*
X104082419Y-99950594D01*
X104082419Y-98902975D02*
X104082419Y-98712499D01*
X104082419Y-98712499D02*
X104034800Y-98617261D01*
X104034800Y-98617261D02*
X103987180Y-98569642D01*
X103987180Y-98569642D02*
X103844323Y-98474404D01*
X103844323Y-98474404D02*
X103653847Y-98426785D01*
X103653847Y-98426785D02*
X103272895Y-98426785D01*
X103272895Y-98426785D02*
X103177657Y-98474404D01*
X103177657Y-98474404D02*
X103130038Y-98522023D01*
X103130038Y-98522023D02*
X103082419Y-98617261D01*
X103082419Y-98617261D02*
X103082419Y-98807737D01*
X103082419Y-98807737D02*
X103130038Y-98902975D01*
X103130038Y-98902975D02*
X103177657Y-98950594D01*
X103177657Y-98950594D02*
X103272895Y-98998213D01*
X103272895Y-98998213D02*
X103510990Y-98998213D01*
X103510990Y-98998213D02*
X103606228Y-98950594D01*
X103606228Y-98950594D02*
X103653847Y-98902975D01*
X103653847Y-98902975D02*
X103701466Y-98807737D01*
X103701466Y-98807737D02*
X103701466Y-98617261D01*
X103701466Y-98617261D02*
X103653847Y-98522023D01*
X103653847Y-98522023D02*
X103606228Y-98474404D01*
X103606228Y-98474404D02*
X103510990Y-98426785D01*
D10*
X111766667Y-45843200D02*
X111909524Y-45890819D01*
X111909524Y-45890819D02*
X112147619Y-45890819D01*
X112147619Y-45890819D02*
X112242857Y-45843200D01*
X112242857Y-45843200D02*
X112290476Y-45795580D01*
X112290476Y-45795580D02*
X112338095Y-45700342D01*
X112338095Y-45700342D02*
X112338095Y-45605104D01*
X112338095Y-45605104D02*
X112290476Y-45509866D01*
X112290476Y-45509866D02*
X112242857Y-45462247D01*
X112242857Y-45462247D02*
X112147619Y-45414628D01*
X112147619Y-45414628D02*
X111957143Y-45367009D01*
X111957143Y-45367009D02*
X111861905Y-45319390D01*
X111861905Y-45319390D02*
X111814286Y-45271771D01*
X111814286Y-45271771D02*
X111766667Y-45176533D01*
X111766667Y-45176533D02*
X111766667Y-45081295D01*
X111766667Y-45081295D02*
X111814286Y-44986057D01*
X111814286Y-44986057D02*
X111861905Y-44938438D01*
X111861905Y-44938438D02*
X111957143Y-44890819D01*
X111957143Y-44890819D02*
X112195238Y-44890819D01*
X112195238Y-44890819D02*
X112338095Y-44938438D01*
X112671429Y-44890819D02*
X112909524Y-45890819D01*
X112909524Y-45890819D02*
X113100000Y-45176533D01*
X113100000Y-45176533D02*
X113290476Y-45890819D01*
X113290476Y-45890819D02*
X113528572Y-44890819D01*
X114433333Y-45890819D02*
X113861905Y-45890819D01*
X114147619Y-45890819D02*
X114147619Y-44890819D01*
X114147619Y-44890819D02*
X114052381Y-45033676D01*
X114052381Y-45033676D02*
X113957143Y-45128914D01*
X113957143Y-45128914D02*
X113861905Y-45176533D01*
D11*
X104082419Y-157576785D02*
X103082419Y-157576785D01*
X103082419Y-157576785D02*
X103082419Y-157338690D01*
X103082419Y-157338690D02*
X103130038Y-157195833D01*
X103130038Y-157195833D02*
X103225276Y-157100595D01*
X103225276Y-157100595D02*
X103320514Y-157052976D01*
X103320514Y-157052976D02*
X103510990Y-157005357D01*
X103510990Y-157005357D02*
X103653847Y-157005357D01*
X103653847Y-157005357D02*
X103844323Y-157052976D01*
X103844323Y-157052976D02*
X103939561Y-157100595D01*
X103939561Y-157100595D02*
X104034800Y-157195833D01*
X104034800Y-157195833D02*
X104082419Y-157338690D01*
X104082419Y-157338690D02*
X104082419Y-157576785D01*
X103177657Y-156624404D02*
X103130038Y-156576785D01*
X103130038Y-156576785D02*
X103082419Y-156481547D01*
X103082419Y-156481547D02*
X103082419Y-156243452D01*
X103082419Y-156243452D02*
X103130038Y-156148214D01*
X103130038Y-156148214D02*
X103177657Y-156100595D01*
X103177657Y-156100595D02*
X103272895Y-156052976D01*
X103272895Y-156052976D02*
X103368133Y-156052976D01*
X103368133Y-156052976D02*
X103510990Y-156100595D01*
X103510990Y-156100595D02*
X104082419Y-156672023D01*
X104082419Y-156672023D02*
X104082419Y-156052976D01*
X104082419Y-155100595D02*
X104082419Y-155672023D01*
X104082419Y-155386309D02*
X103082419Y-155386309D01*
X103082419Y-155386309D02*
X103225276Y-155481547D01*
X103225276Y-155481547D02*
X103320514Y-155576785D01*
X103320514Y-155576785D02*
X103368133Y-155672023D01*
X161232419Y-80900594D02*
X160232419Y-80900594D01*
X160232419Y-80900594D02*
X160232419Y-80662499D01*
X160232419Y-80662499D02*
X160280038Y-80519642D01*
X160280038Y-80519642D02*
X160375276Y-80424404D01*
X160375276Y-80424404D02*
X160470514Y-80376785D01*
X160470514Y-80376785D02*
X160660990Y-80329166D01*
X160660990Y-80329166D02*
X160803847Y-80329166D01*
X160803847Y-80329166D02*
X160994323Y-80376785D01*
X160994323Y-80376785D02*
X161089561Y-80424404D01*
X161089561Y-80424404D02*
X161184800Y-80519642D01*
X161184800Y-80519642D02*
X161232419Y-80662499D01*
X161232419Y-80662499D02*
X161232419Y-80900594D01*
X160660990Y-79757737D02*
X160613371Y-79852975D01*
X160613371Y-79852975D02*
X160565752Y-79900594D01*
X160565752Y-79900594D02*
X160470514Y-79948213D01*
X160470514Y-79948213D02*
X160422895Y-79948213D01*
X160422895Y-79948213D02*
X160327657Y-79900594D01*
X160327657Y-79900594D02*
X160280038Y-79852975D01*
X160280038Y-79852975D02*
X160232419Y-79757737D01*
X160232419Y-79757737D02*
X160232419Y-79567261D01*
X160232419Y-79567261D02*
X160280038Y-79472023D01*
X160280038Y-79472023D02*
X160327657Y-79424404D01*
X160327657Y-79424404D02*
X160422895Y-79376785D01*
X160422895Y-79376785D02*
X160470514Y-79376785D01*
X160470514Y-79376785D02*
X160565752Y-79424404D01*
X160565752Y-79424404D02*
X160613371Y-79472023D01*
X160613371Y-79472023D02*
X160660990Y-79567261D01*
X160660990Y-79567261D02*
X160660990Y-79757737D01*
X160660990Y-79757737D02*
X160708609Y-79852975D01*
X160708609Y-79852975D02*
X160756228Y-79900594D01*
X160756228Y-79900594D02*
X160851466Y-79948213D01*
X160851466Y-79948213D02*
X161041942Y-79948213D01*
X161041942Y-79948213D02*
X161137180Y-79900594D01*
X161137180Y-79900594D02*
X161184800Y-79852975D01*
X161184800Y-79852975D02*
X161232419Y-79757737D01*
X161232419Y-79757737D02*
X161232419Y-79567261D01*
X161232419Y-79567261D02*
X161184800Y-79472023D01*
X161184800Y-79472023D02*
X161137180Y-79424404D01*
X161137180Y-79424404D02*
X161041942Y-79376785D01*
X161041942Y-79376785D02*
X160851466Y-79376785D01*
X160851466Y-79376785D02*
X160756228Y-79424404D01*
X160756228Y-79424404D02*
X160708609Y-79472023D01*
X160708609Y-79472023D02*
X160660990Y-79567261D01*
D10*
X130816667Y-64893200D02*
X130959524Y-64940819D01*
X130959524Y-64940819D02*
X131197619Y-64940819D01*
X131197619Y-64940819D02*
X131292857Y-64893200D01*
X131292857Y-64893200D02*
X131340476Y-64845580D01*
X131340476Y-64845580D02*
X131388095Y-64750342D01*
X131388095Y-64750342D02*
X131388095Y-64655104D01*
X131388095Y-64655104D02*
X131340476Y-64559866D01*
X131340476Y-64559866D02*
X131292857Y-64512247D01*
X131292857Y-64512247D02*
X131197619Y-64464628D01*
X131197619Y-64464628D02*
X131007143Y-64417009D01*
X131007143Y-64417009D02*
X130911905Y-64369390D01*
X130911905Y-64369390D02*
X130864286Y-64321771D01*
X130864286Y-64321771D02*
X130816667Y-64226533D01*
X130816667Y-64226533D02*
X130816667Y-64131295D01*
X130816667Y-64131295D02*
X130864286Y-64036057D01*
X130864286Y-64036057D02*
X130911905Y-63988438D01*
X130911905Y-63988438D02*
X131007143Y-63940819D01*
X131007143Y-63940819D02*
X131245238Y-63940819D01*
X131245238Y-63940819D02*
X131388095Y-63988438D01*
X131721429Y-63940819D02*
X131959524Y-64940819D01*
X131959524Y-64940819D02*
X132150000Y-64226533D01*
X132150000Y-64226533D02*
X132340476Y-64940819D01*
X132340476Y-64940819D02*
X132578572Y-63940819D01*
X133388095Y-63940819D02*
X133197619Y-63940819D01*
X133197619Y-63940819D02*
X133102381Y-63988438D01*
X133102381Y-63988438D02*
X133054762Y-64036057D01*
X133054762Y-64036057D02*
X132959524Y-64178914D01*
X132959524Y-64178914D02*
X132911905Y-64369390D01*
X132911905Y-64369390D02*
X132911905Y-64750342D01*
X132911905Y-64750342D02*
X132959524Y-64845580D01*
X132959524Y-64845580D02*
X133007143Y-64893200D01*
X133007143Y-64893200D02*
X133102381Y-64940819D01*
X133102381Y-64940819D02*
X133292857Y-64940819D01*
X133292857Y-64940819D02*
X133388095Y-64893200D01*
X133388095Y-64893200D02*
X133435714Y-64845580D01*
X133435714Y-64845580D02*
X133483333Y-64750342D01*
X133483333Y-64750342D02*
X133483333Y-64512247D01*
X133483333Y-64512247D02*
X133435714Y-64417009D01*
X133435714Y-64417009D02*
X133388095Y-64369390D01*
X133388095Y-64369390D02*
X133292857Y-64321771D01*
X133292857Y-64321771D02*
X133102381Y-64321771D01*
X133102381Y-64321771D02*
X133007143Y-64369390D01*
X133007143Y-64369390D02*
X132959524Y-64417009D01*
X132959524Y-64417009D02*
X132911905Y-64512247D01*
D11*
X161232419Y-119476785D02*
X160232419Y-119476785D01*
X160232419Y-119476785D02*
X160232419Y-119238690D01*
X160232419Y-119238690D02*
X160280038Y-119095833D01*
X160280038Y-119095833D02*
X160375276Y-119000595D01*
X160375276Y-119000595D02*
X160470514Y-118952976D01*
X160470514Y-118952976D02*
X160660990Y-118905357D01*
X160660990Y-118905357D02*
X160803847Y-118905357D01*
X160803847Y-118905357D02*
X160994323Y-118952976D01*
X160994323Y-118952976D02*
X161089561Y-119000595D01*
X161089561Y-119000595D02*
X161184800Y-119095833D01*
X161184800Y-119095833D02*
X161232419Y-119238690D01*
X161232419Y-119238690D02*
X161232419Y-119476785D01*
X161232419Y-117952976D02*
X161232419Y-118524404D01*
X161232419Y-118238690D02*
X160232419Y-118238690D01*
X160232419Y-118238690D02*
X160375276Y-118333928D01*
X160375276Y-118333928D02*
X160470514Y-118429166D01*
X160470514Y-118429166D02*
X160518133Y-118524404D01*
X160232419Y-117095833D02*
X160232419Y-117286309D01*
X160232419Y-117286309D02*
X160280038Y-117381547D01*
X160280038Y-117381547D02*
X160327657Y-117429166D01*
X160327657Y-117429166D02*
X160470514Y-117524404D01*
X160470514Y-117524404D02*
X160660990Y-117572023D01*
X160660990Y-117572023D02*
X161041942Y-117572023D01*
X161041942Y-117572023D02*
X161137180Y-117524404D01*
X161137180Y-117524404D02*
X161184800Y-117476785D01*
X161184800Y-117476785D02*
X161232419Y-117381547D01*
X161232419Y-117381547D02*
X161232419Y-117191071D01*
X161232419Y-117191071D02*
X161184800Y-117095833D01*
X161184800Y-117095833D02*
X161137180Y-117048214D01*
X161137180Y-117048214D02*
X161041942Y-117000595D01*
X161041942Y-117000595D02*
X160803847Y-117000595D01*
X160803847Y-117000595D02*
X160708609Y-117048214D01*
X160708609Y-117048214D02*
X160660990Y-117095833D01*
X160660990Y-117095833D02*
X160613371Y-117191071D01*
X160613371Y-117191071D02*
X160613371Y-117381547D01*
X160613371Y-117381547D02*
X160660990Y-117476785D01*
X160660990Y-117476785D02*
X160708609Y-117524404D01*
X160708609Y-117524404D02*
X160803847Y-117572023D01*
X142182419Y-80900594D02*
X141182419Y-80900594D01*
X141182419Y-80900594D02*
X141182419Y-80662499D01*
X141182419Y-80662499D02*
X141230038Y-80519642D01*
X141230038Y-80519642D02*
X141325276Y-80424404D01*
X141325276Y-80424404D02*
X141420514Y-80376785D01*
X141420514Y-80376785D02*
X141610990Y-80329166D01*
X141610990Y-80329166D02*
X141753847Y-80329166D01*
X141753847Y-80329166D02*
X141944323Y-80376785D01*
X141944323Y-80376785D02*
X142039561Y-80424404D01*
X142039561Y-80424404D02*
X142134800Y-80519642D01*
X142134800Y-80519642D02*
X142182419Y-80662499D01*
X142182419Y-80662499D02*
X142182419Y-80900594D01*
X141182419Y-79995832D02*
X141182419Y-79329166D01*
X141182419Y-79329166D02*
X142182419Y-79757737D01*
D10*
X168916667Y-64893200D02*
X169059524Y-64940819D01*
X169059524Y-64940819D02*
X169297619Y-64940819D01*
X169297619Y-64940819D02*
X169392857Y-64893200D01*
X169392857Y-64893200D02*
X169440476Y-64845580D01*
X169440476Y-64845580D02*
X169488095Y-64750342D01*
X169488095Y-64750342D02*
X169488095Y-64655104D01*
X169488095Y-64655104D02*
X169440476Y-64559866D01*
X169440476Y-64559866D02*
X169392857Y-64512247D01*
X169392857Y-64512247D02*
X169297619Y-64464628D01*
X169297619Y-64464628D02*
X169107143Y-64417009D01*
X169107143Y-64417009D02*
X169011905Y-64369390D01*
X169011905Y-64369390D02*
X168964286Y-64321771D01*
X168964286Y-64321771D02*
X168916667Y-64226533D01*
X168916667Y-64226533D02*
X168916667Y-64131295D01*
X168916667Y-64131295D02*
X168964286Y-64036057D01*
X168964286Y-64036057D02*
X169011905Y-63988438D01*
X169011905Y-63988438D02*
X169107143Y-63940819D01*
X169107143Y-63940819D02*
X169345238Y-63940819D01*
X169345238Y-63940819D02*
X169488095Y-63988438D01*
X169821429Y-63940819D02*
X170059524Y-64940819D01*
X170059524Y-64940819D02*
X170250000Y-64226533D01*
X170250000Y-64226533D02*
X170440476Y-64940819D01*
X170440476Y-64940819D02*
X170678572Y-63940819D01*
X171202381Y-64369390D02*
X171107143Y-64321771D01*
X171107143Y-64321771D02*
X171059524Y-64274152D01*
X171059524Y-64274152D02*
X171011905Y-64178914D01*
X171011905Y-64178914D02*
X171011905Y-64131295D01*
X171011905Y-64131295D02*
X171059524Y-64036057D01*
X171059524Y-64036057D02*
X171107143Y-63988438D01*
X171107143Y-63988438D02*
X171202381Y-63940819D01*
X171202381Y-63940819D02*
X171392857Y-63940819D01*
X171392857Y-63940819D02*
X171488095Y-63988438D01*
X171488095Y-63988438D02*
X171535714Y-64036057D01*
X171535714Y-64036057D02*
X171583333Y-64131295D01*
X171583333Y-64131295D02*
X171583333Y-64178914D01*
X171583333Y-64178914D02*
X171535714Y-64274152D01*
X171535714Y-64274152D02*
X171488095Y-64321771D01*
X171488095Y-64321771D02*
X171392857Y-64369390D01*
X171392857Y-64369390D02*
X171202381Y-64369390D01*
X171202381Y-64369390D02*
X171107143Y-64417009D01*
X171107143Y-64417009D02*
X171059524Y-64464628D01*
X171059524Y-64464628D02*
X171011905Y-64559866D01*
X171011905Y-64559866D02*
X171011905Y-64750342D01*
X171011905Y-64750342D02*
X171059524Y-64845580D01*
X171059524Y-64845580D02*
X171107143Y-64893200D01*
X171107143Y-64893200D02*
X171202381Y-64940819D01*
X171202381Y-64940819D02*
X171392857Y-64940819D01*
X171392857Y-64940819D02*
X171488095Y-64893200D01*
X171488095Y-64893200D02*
X171535714Y-64845580D01*
X171535714Y-64845580D02*
X171583333Y-64750342D01*
X171583333Y-64750342D02*
X171583333Y-64559866D01*
X171583333Y-64559866D02*
X171535714Y-64464628D01*
X171535714Y-64464628D02*
X171488095Y-64417009D01*
X171488095Y-64417009D02*
X171392857Y-64369390D01*
D11*
X142182419Y-100426785D02*
X141182419Y-100426785D01*
X141182419Y-100426785D02*
X141182419Y-100188690D01*
X141182419Y-100188690D02*
X141230038Y-100045833D01*
X141230038Y-100045833D02*
X141325276Y-99950595D01*
X141325276Y-99950595D02*
X141420514Y-99902976D01*
X141420514Y-99902976D02*
X141610990Y-99855357D01*
X141610990Y-99855357D02*
X141753847Y-99855357D01*
X141753847Y-99855357D02*
X141944323Y-99902976D01*
X141944323Y-99902976D02*
X142039561Y-99950595D01*
X142039561Y-99950595D02*
X142134800Y-100045833D01*
X142134800Y-100045833D02*
X142182419Y-100188690D01*
X142182419Y-100188690D02*
X142182419Y-100426785D01*
X142182419Y-98902976D02*
X142182419Y-99474404D01*
X142182419Y-99188690D02*
X141182419Y-99188690D01*
X141182419Y-99188690D02*
X141325276Y-99283928D01*
X141325276Y-99283928D02*
X141420514Y-99379166D01*
X141420514Y-99379166D02*
X141468133Y-99474404D01*
X142182419Y-97950595D02*
X142182419Y-98522023D01*
X142182419Y-98236309D02*
X141182419Y-98236309D01*
X141182419Y-98236309D02*
X141325276Y-98331547D01*
X141325276Y-98331547D02*
X141420514Y-98426785D01*
X141420514Y-98426785D02*
X141468133Y-98522023D01*
D10*
X130340476Y-102993200D02*
X130483333Y-103040819D01*
X130483333Y-103040819D02*
X130721428Y-103040819D01*
X130721428Y-103040819D02*
X130816666Y-102993200D01*
X130816666Y-102993200D02*
X130864285Y-102945580D01*
X130864285Y-102945580D02*
X130911904Y-102850342D01*
X130911904Y-102850342D02*
X130911904Y-102755104D01*
X130911904Y-102755104D02*
X130864285Y-102659866D01*
X130864285Y-102659866D02*
X130816666Y-102612247D01*
X130816666Y-102612247D02*
X130721428Y-102564628D01*
X130721428Y-102564628D02*
X130530952Y-102517009D01*
X130530952Y-102517009D02*
X130435714Y-102469390D01*
X130435714Y-102469390D02*
X130388095Y-102421771D01*
X130388095Y-102421771D02*
X130340476Y-102326533D01*
X130340476Y-102326533D02*
X130340476Y-102231295D01*
X130340476Y-102231295D02*
X130388095Y-102136057D01*
X130388095Y-102136057D02*
X130435714Y-102088438D01*
X130435714Y-102088438D02*
X130530952Y-102040819D01*
X130530952Y-102040819D02*
X130769047Y-102040819D01*
X130769047Y-102040819D02*
X130911904Y-102088438D01*
X131245238Y-102040819D02*
X131483333Y-103040819D01*
X131483333Y-103040819D02*
X131673809Y-102326533D01*
X131673809Y-102326533D02*
X131864285Y-103040819D01*
X131864285Y-103040819D02*
X132102381Y-102040819D01*
X133007142Y-103040819D02*
X132435714Y-103040819D01*
X132721428Y-103040819D02*
X132721428Y-102040819D01*
X132721428Y-102040819D02*
X132626190Y-102183676D01*
X132626190Y-102183676D02*
X132530952Y-102278914D01*
X132530952Y-102278914D02*
X132435714Y-102326533D01*
X133864285Y-102374152D02*
X133864285Y-103040819D01*
X133626190Y-101993200D02*
X133388095Y-102707485D01*
X133388095Y-102707485D02*
X134007142Y-102707485D01*
D11*
X161232419Y-138526785D02*
X160232419Y-138526785D01*
X160232419Y-138526785D02*
X160232419Y-138288690D01*
X160232419Y-138288690D02*
X160280038Y-138145833D01*
X160280038Y-138145833D02*
X160375276Y-138050595D01*
X160375276Y-138050595D02*
X160470514Y-138002976D01*
X160470514Y-138002976D02*
X160660990Y-137955357D01*
X160660990Y-137955357D02*
X160803847Y-137955357D01*
X160803847Y-137955357D02*
X160994323Y-138002976D01*
X160994323Y-138002976D02*
X161089561Y-138050595D01*
X161089561Y-138050595D02*
X161184800Y-138145833D01*
X161184800Y-138145833D02*
X161232419Y-138288690D01*
X161232419Y-138288690D02*
X161232419Y-138526785D01*
X160327657Y-137574404D02*
X160280038Y-137526785D01*
X160280038Y-137526785D02*
X160232419Y-137431547D01*
X160232419Y-137431547D02*
X160232419Y-137193452D01*
X160232419Y-137193452D02*
X160280038Y-137098214D01*
X160280038Y-137098214D02*
X160327657Y-137050595D01*
X160327657Y-137050595D02*
X160422895Y-137002976D01*
X160422895Y-137002976D02*
X160518133Y-137002976D01*
X160518133Y-137002976D02*
X160660990Y-137050595D01*
X160660990Y-137050595D02*
X161232419Y-137622023D01*
X161232419Y-137622023D02*
X161232419Y-137002976D01*
X160232419Y-136383928D02*
X160232419Y-136288690D01*
X160232419Y-136288690D02*
X160280038Y-136193452D01*
X160280038Y-136193452D02*
X160327657Y-136145833D01*
X160327657Y-136145833D02*
X160422895Y-136098214D01*
X160422895Y-136098214D02*
X160613371Y-136050595D01*
X160613371Y-136050595D02*
X160851466Y-136050595D01*
X160851466Y-136050595D02*
X161041942Y-136098214D01*
X161041942Y-136098214D02*
X161137180Y-136145833D01*
X161137180Y-136145833D02*
X161184800Y-136193452D01*
X161184800Y-136193452D02*
X161232419Y-136288690D01*
X161232419Y-136288690D02*
X161232419Y-136383928D01*
X161232419Y-136383928D02*
X161184800Y-136479166D01*
X161184800Y-136479166D02*
X161137180Y-136526785D01*
X161137180Y-136526785D02*
X161041942Y-136574404D01*
X161041942Y-136574404D02*
X160851466Y-136622023D01*
X160851466Y-136622023D02*
X160613371Y-136622023D01*
X160613371Y-136622023D02*
X160422895Y-136574404D01*
X160422895Y-136574404D02*
X160327657Y-136526785D01*
X160327657Y-136526785D02*
X160280038Y-136479166D01*
X160280038Y-136479166D02*
X160232419Y-136383928D01*
X123132419Y-61850594D02*
X122132419Y-61850594D01*
X122132419Y-61850594D02*
X122132419Y-61612499D01*
X122132419Y-61612499D02*
X122180038Y-61469642D01*
X122180038Y-61469642D02*
X122275276Y-61374404D01*
X122275276Y-61374404D02*
X122370514Y-61326785D01*
X122370514Y-61326785D02*
X122560990Y-61279166D01*
X122560990Y-61279166D02*
X122703847Y-61279166D01*
X122703847Y-61279166D02*
X122894323Y-61326785D01*
X122894323Y-61326785D02*
X122989561Y-61374404D01*
X122989561Y-61374404D02*
X123084800Y-61469642D01*
X123084800Y-61469642D02*
X123132419Y-61612499D01*
X123132419Y-61612499D02*
X123132419Y-61850594D01*
X122227657Y-60898213D02*
X122180038Y-60850594D01*
X122180038Y-60850594D02*
X122132419Y-60755356D01*
X122132419Y-60755356D02*
X122132419Y-60517261D01*
X122132419Y-60517261D02*
X122180038Y-60422023D01*
X122180038Y-60422023D02*
X122227657Y-60374404D01*
X122227657Y-60374404D02*
X122322895Y-60326785D01*
X122322895Y-60326785D02*
X122418133Y-60326785D01*
X122418133Y-60326785D02*
X122560990Y-60374404D01*
X122560990Y-60374404D02*
X123132419Y-60945832D01*
X123132419Y-60945832D02*
X123132419Y-60326785D01*
D10*
X168440476Y-102993200D02*
X168583333Y-103040819D01*
X168583333Y-103040819D02*
X168821428Y-103040819D01*
X168821428Y-103040819D02*
X168916666Y-102993200D01*
X168916666Y-102993200D02*
X168964285Y-102945580D01*
X168964285Y-102945580D02*
X169011904Y-102850342D01*
X169011904Y-102850342D02*
X169011904Y-102755104D01*
X169011904Y-102755104D02*
X168964285Y-102659866D01*
X168964285Y-102659866D02*
X168916666Y-102612247D01*
X168916666Y-102612247D02*
X168821428Y-102564628D01*
X168821428Y-102564628D02*
X168630952Y-102517009D01*
X168630952Y-102517009D02*
X168535714Y-102469390D01*
X168535714Y-102469390D02*
X168488095Y-102421771D01*
X168488095Y-102421771D02*
X168440476Y-102326533D01*
X168440476Y-102326533D02*
X168440476Y-102231295D01*
X168440476Y-102231295D02*
X168488095Y-102136057D01*
X168488095Y-102136057D02*
X168535714Y-102088438D01*
X168535714Y-102088438D02*
X168630952Y-102040819D01*
X168630952Y-102040819D02*
X168869047Y-102040819D01*
X168869047Y-102040819D02*
X169011904Y-102088438D01*
X169345238Y-102040819D02*
X169583333Y-103040819D01*
X169583333Y-103040819D02*
X169773809Y-102326533D01*
X169773809Y-102326533D02*
X169964285Y-103040819D01*
X169964285Y-103040819D02*
X170202381Y-102040819D01*
X171107142Y-103040819D02*
X170535714Y-103040819D01*
X170821428Y-103040819D02*
X170821428Y-102040819D01*
X170821428Y-102040819D02*
X170726190Y-102183676D01*
X170726190Y-102183676D02*
X170630952Y-102278914D01*
X170630952Y-102278914D02*
X170535714Y-102326533D01*
X171964285Y-102040819D02*
X171773809Y-102040819D01*
X171773809Y-102040819D02*
X171678571Y-102088438D01*
X171678571Y-102088438D02*
X171630952Y-102136057D01*
X171630952Y-102136057D02*
X171535714Y-102278914D01*
X171535714Y-102278914D02*
X171488095Y-102469390D01*
X171488095Y-102469390D02*
X171488095Y-102850342D01*
X171488095Y-102850342D02*
X171535714Y-102945580D01*
X171535714Y-102945580D02*
X171583333Y-102993200D01*
X171583333Y-102993200D02*
X171678571Y-103040819D01*
X171678571Y-103040819D02*
X171869047Y-103040819D01*
X171869047Y-103040819D02*
X171964285Y-102993200D01*
X171964285Y-102993200D02*
X172011904Y-102945580D01*
X172011904Y-102945580D02*
X172059523Y-102850342D01*
X172059523Y-102850342D02*
X172059523Y-102612247D01*
X172059523Y-102612247D02*
X172011904Y-102517009D01*
X172011904Y-102517009D02*
X171964285Y-102469390D01*
X171964285Y-102469390D02*
X171869047Y-102421771D01*
X171869047Y-102421771D02*
X171678571Y-102421771D01*
X171678571Y-102421771D02*
X171583333Y-102469390D01*
X171583333Y-102469390D02*
X171535714Y-102517009D01*
X171535714Y-102517009D02*
X171488095Y-102612247D01*
X130340476Y-122043200D02*
X130483333Y-122090819D01*
X130483333Y-122090819D02*
X130721428Y-122090819D01*
X130721428Y-122090819D02*
X130816666Y-122043200D01*
X130816666Y-122043200D02*
X130864285Y-121995580D01*
X130864285Y-121995580D02*
X130911904Y-121900342D01*
X130911904Y-121900342D02*
X130911904Y-121805104D01*
X130911904Y-121805104D02*
X130864285Y-121709866D01*
X130864285Y-121709866D02*
X130816666Y-121662247D01*
X130816666Y-121662247D02*
X130721428Y-121614628D01*
X130721428Y-121614628D02*
X130530952Y-121567009D01*
X130530952Y-121567009D02*
X130435714Y-121519390D01*
X130435714Y-121519390D02*
X130388095Y-121471771D01*
X130388095Y-121471771D02*
X130340476Y-121376533D01*
X130340476Y-121376533D02*
X130340476Y-121281295D01*
X130340476Y-121281295D02*
X130388095Y-121186057D01*
X130388095Y-121186057D02*
X130435714Y-121138438D01*
X130435714Y-121138438D02*
X130530952Y-121090819D01*
X130530952Y-121090819D02*
X130769047Y-121090819D01*
X130769047Y-121090819D02*
X130911904Y-121138438D01*
X131245238Y-121090819D02*
X131483333Y-122090819D01*
X131483333Y-122090819D02*
X131673809Y-121376533D01*
X131673809Y-121376533D02*
X131864285Y-122090819D01*
X131864285Y-122090819D02*
X132102381Y-121090819D01*
X133007142Y-122090819D02*
X132435714Y-122090819D01*
X132721428Y-122090819D02*
X132721428Y-121090819D01*
X132721428Y-121090819D02*
X132626190Y-121233676D01*
X132626190Y-121233676D02*
X132530952Y-121328914D01*
X132530952Y-121328914D02*
X132435714Y-121376533D01*
X133578571Y-121519390D02*
X133483333Y-121471771D01*
X133483333Y-121471771D02*
X133435714Y-121424152D01*
X133435714Y-121424152D02*
X133388095Y-121328914D01*
X133388095Y-121328914D02*
X133388095Y-121281295D01*
X133388095Y-121281295D02*
X133435714Y-121186057D01*
X133435714Y-121186057D02*
X133483333Y-121138438D01*
X133483333Y-121138438D02*
X133578571Y-121090819D01*
X133578571Y-121090819D02*
X133769047Y-121090819D01*
X133769047Y-121090819D02*
X133864285Y-121138438D01*
X133864285Y-121138438D02*
X133911904Y-121186057D01*
X133911904Y-121186057D02*
X133959523Y-121281295D01*
X133959523Y-121281295D02*
X133959523Y-121328914D01*
X133959523Y-121328914D02*
X133911904Y-121424152D01*
X133911904Y-121424152D02*
X133864285Y-121471771D01*
X133864285Y-121471771D02*
X133769047Y-121519390D01*
X133769047Y-121519390D02*
X133578571Y-121519390D01*
X133578571Y-121519390D02*
X133483333Y-121567009D01*
X133483333Y-121567009D02*
X133435714Y-121614628D01*
X133435714Y-121614628D02*
X133388095Y-121709866D01*
X133388095Y-121709866D02*
X133388095Y-121900342D01*
X133388095Y-121900342D02*
X133435714Y-121995580D01*
X133435714Y-121995580D02*
X133483333Y-122043200D01*
X133483333Y-122043200D02*
X133578571Y-122090819D01*
X133578571Y-122090819D02*
X133769047Y-122090819D01*
X133769047Y-122090819D02*
X133864285Y-122043200D01*
X133864285Y-122043200D02*
X133911904Y-121995580D01*
X133911904Y-121995580D02*
X133959523Y-121900342D01*
X133959523Y-121900342D02*
X133959523Y-121709866D01*
X133959523Y-121709866D02*
X133911904Y-121614628D01*
X133911904Y-121614628D02*
X133864285Y-121567009D01*
X133864285Y-121567009D02*
X133769047Y-121519390D01*
X149390476Y-122043200D02*
X149533333Y-122090819D01*
X149533333Y-122090819D02*
X149771428Y-122090819D01*
X149771428Y-122090819D02*
X149866666Y-122043200D01*
X149866666Y-122043200D02*
X149914285Y-121995580D01*
X149914285Y-121995580D02*
X149961904Y-121900342D01*
X149961904Y-121900342D02*
X149961904Y-121805104D01*
X149961904Y-121805104D02*
X149914285Y-121709866D01*
X149914285Y-121709866D02*
X149866666Y-121662247D01*
X149866666Y-121662247D02*
X149771428Y-121614628D01*
X149771428Y-121614628D02*
X149580952Y-121567009D01*
X149580952Y-121567009D02*
X149485714Y-121519390D01*
X149485714Y-121519390D02*
X149438095Y-121471771D01*
X149438095Y-121471771D02*
X149390476Y-121376533D01*
X149390476Y-121376533D02*
X149390476Y-121281295D01*
X149390476Y-121281295D02*
X149438095Y-121186057D01*
X149438095Y-121186057D02*
X149485714Y-121138438D01*
X149485714Y-121138438D02*
X149580952Y-121090819D01*
X149580952Y-121090819D02*
X149819047Y-121090819D01*
X149819047Y-121090819D02*
X149961904Y-121138438D01*
X150295238Y-121090819D02*
X150533333Y-122090819D01*
X150533333Y-122090819D02*
X150723809Y-121376533D01*
X150723809Y-121376533D02*
X150914285Y-122090819D01*
X150914285Y-122090819D02*
X151152381Y-121090819D01*
X152057142Y-122090819D02*
X151485714Y-122090819D01*
X151771428Y-122090819D02*
X151771428Y-121090819D01*
X151771428Y-121090819D02*
X151676190Y-121233676D01*
X151676190Y-121233676D02*
X151580952Y-121328914D01*
X151580952Y-121328914D02*
X151485714Y-121376533D01*
X152533333Y-122090819D02*
X152723809Y-122090819D01*
X152723809Y-122090819D02*
X152819047Y-122043200D01*
X152819047Y-122043200D02*
X152866666Y-121995580D01*
X152866666Y-121995580D02*
X152961904Y-121852723D01*
X152961904Y-121852723D02*
X153009523Y-121662247D01*
X153009523Y-121662247D02*
X153009523Y-121281295D01*
X153009523Y-121281295D02*
X152961904Y-121186057D01*
X152961904Y-121186057D02*
X152914285Y-121138438D01*
X152914285Y-121138438D02*
X152819047Y-121090819D01*
X152819047Y-121090819D02*
X152628571Y-121090819D01*
X152628571Y-121090819D02*
X152533333Y-121138438D01*
X152533333Y-121138438D02*
X152485714Y-121186057D01*
X152485714Y-121186057D02*
X152438095Y-121281295D01*
X152438095Y-121281295D02*
X152438095Y-121519390D01*
X152438095Y-121519390D02*
X152485714Y-121614628D01*
X152485714Y-121614628D02*
X152533333Y-121662247D01*
X152533333Y-121662247D02*
X152628571Y-121709866D01*
X152628571Y-121709866D02*
X152819047Y-121709866D01*
X152819047Y-121709866D02*
X152914285Y-121662247D01*
X152914285Y-121662247D02*
X152961904Y-121614628D01*
X152961904Y-121614628D02*
X153009523Y-121519390D01*
D11*
X104082419Y-138526785D02*
X103082419Y-138526785D01*
X103082419Y-138526785D02*
X103082419Y-138288690D01*
X103082419Y-138288690D02*
X103130038Y-138145833D01*
X103130038Y-138145833D02*
X103225276Y-138050595D01*
X103225276Y-138050595D02*
X103320514Y-138002976D01*
X103320514Y-138002976D02*
X103510990Y-137955357D01*
X103510990Y-137955357D02*
X103653847Y-137955357D01*
X103653847Y-137955357D02*
X103844323Y-138002976D01*
X103844323Y-138002976D02*
X103939561Y-138050595D01*
X103939561Y-138050595D02*
X104034800Y-138145833D01*
X104034800Y-138145833D02*
X104082419Y-138288690D01*
X104082419Y-138288690D02*
X104082419Y-138526785D01*
X104082419Y-137002976D02*
X104082419Y-137574404D01*
X104082419Y-137288690D02*
X103082419Y-137288690D01*
X103082419Y-137288690D02*
X103225276Y-137383928D01*
X103225276Y-137383928D02*
X103320514Y-137479166D01*
X103320514Y-137479166D02*
X103368133Y-137574404D01*
X103082419Y-136669642D02*
X103082419Y-136002976D01*
X103082419Y-136002976D02*
X104082419Y-136431547D01*
X123132419Y-119476785D02*
X122132419Y-119476785D01*
X122132419Y-119476785D02*
X122132419Y-119238690D01*
X122132419Y-119238690D02*
X122180038Y-119095833D01*
X122180038Y-119095833D02*
X122275276Y-119000595D01*
X122275276Y-119000595D02*
X122370514Y-118952976D01*
X122370514Y-118952976D02*
X122560990Y-118905357D01*
X122560990Y-118905357D02*
X122703847Y-118905357D01*
X122703847Y-118905357D02*
X122894323Y-118952976D01*
X122894323Y-118952976D02*
X122989561Y-119000595D01*
X122989561Y-119000595D02*
X123084800Y-119095833D01*
X123084800Y-119095833D02*
X123132419Y-119238690D01*
X123132419Y-119238690D02*
X123132419Y-119476785D01*
X123132419Y-117952976D02*
X123132419Y-118524404D01*
X123132419Y-118238690D02*
X122132419Y-118238690D01*
X122132419Y-118238690D02*
X122275276Y-118333928D01*
X122275276Y-118333928D02*
X122370514Y-118429166D01*
X122370514Y-118429166D02*
X122418133Y-118524404D01*
X122465752Y-117095833D02*
X123132419Y-117095833D01*
X122084800Y-117333928D02*
X122799085Y-117572023D01*
X122799085Y-117572023D02*
X122799085Y-116952976D01*
X123132419Y-138526785D02*
X122132419Y-138526785D01*
X122132419Y-138526785D02*
X122132419Y-138288690D01*
X122132419Y-138288690D02*
X122180038Y-138145833D01*
X122180038Y-138145833D02*
X122275276Y-138050595D01*
X122275276Y-138050595D02*
X122370514Y-138002976D01*
X122370514Y-138002976D02*
X122560990Y-137955357D01*
X122560990Y-137955357D02*
X122703847Y-137955357D01*
X122703847Y-137955357D02*
X122894323Y-138002976D01*
X122894323Y-138002976D02*
X122989561Y-138050595D01*
X122989561Y-138050595D02*
X123084800Y-138145833D01*
X123084800Y-138145833D02*
X123132419Y-138288690D01*
X123132419Y-138288690D02*
X123132419Y-138526785D01*
X123132419Y-137002976D02*
X123132419Y-137574404D01*
X123132419Y-137288690D02*
X122132419Y-137288690D01*
X122132419Y-137288690D02*
X122275276Y-137383928D01*
X122275276Y-137383928D02*
X122370514Y-137479166D01*
X122370514Y-137479166D02*
X122418133Y-137574404D01*
X122560990Y-136431547D02*
X122513371Y-136526785D01*
X122513371Y-136526785D02*
X122465752Y-136574404D01*
X122465752Y-136574404D02*
X122370514Y-136622023D01*
X122370514Y-136622023D02*
X122322895Y-136622023D01*
X122322895Y-136622023D02*
X122227657Y-136574404D01*
X122227657Y-136574404D02*
X122180038Y-136526785D01*
X122180038Y-136526785D02*
X122132419Y-136431547D01*
X122132419Y-136431547D02*
X122132419Y-136241071D01*
X122132419Y-136241071D02*
X122180038Y-136145833D01*
X122180038Y-136145833D02*
X122227657Y-136098214D01*
X122227657Y-136098214D02*
X122322895Y-136050595D01*
X122322895Y-136050595D02*
X122370514Y-136050595D01*
X122370514Y-136050595D02*
X122465752Y-136098214D01*
X122465752Y-136098214D02*
X122513371Y-136145833D01*
X122513371Y-136145833D02*
X122560990Y-136241071D01*
X122560990Y-136241071D02*
X122560990Y-136431547D01*
X122560990Y-136431547D02*
X122608609Y-136526785D01*
X122608609Y-136526785D02*
X122656228Y-136574404D01*
X122656228Y-136574404D02*
X122751466Y-136622023D01*
X122751466Y-136622023D02*
X122941942Y-136622023D01*
X122941942Y-136622023D02*
X123037180Y-136574404D01*
X123037180Y-136574404D02*
X123084800Y-136526785D01*
X123084800Y-136526785D02*
X123132419Y-136431547D01*
X123132419Y-136431547D02*
X123132419Y-136241071D01*
X123132419Y-136241071D02*
X123084800Y-136145833D01*
X123084800Y-136145833D02*
X123037180Y-136098214D01*
X123037180Y-136098214D02*
X122941942Y-136050595D01*
X122941942Y-136050595D02*
X122751466Y-136050595D01*
X122751466Y-136050595D02*
X122656228Y-136098214D01*
X122656228Y-136098214D02*
X122608609Y-136145833D01*
X122608609Y-136145833D02*
X122560990Y-136241071D01*
X104082419Y-61850594D02*
X103082419Y-61850594D01*
X103082419Y-61850594D02*
X103082419Y-61612499D01*
X103082419Y-61612499D02*
X103130038Y-61469642D01*
X103130038Y-61469642D02*
X103225276Y-61374404D01*
X103225276Y-61374404D02*
X103320514Y-61326785D01*
X103320514Y-61326785D02*
X103510990Y-61279166D01*
X103510990Y-61279166D02*
X103653847Y-61279166D01*
X103653847Y-61279166D02*
X103844323Y-61326785D01*
X103844323Y-61326785D02*
X103939561Y-61374404D01*
X103939561Y-61374404D02*
X104034800Y-61469642D01*
X104034800Y-61469642D02*
X104082419Y-61612499D01*
X104082419Y-61612499D02*
X104082419Y-61850594D01*
X104082419Y-60326785D02*
X104082419Y-60898213D01*
X104082419Y-60612499D02*
X103082419Y-60612499D01*
X103082419Y-60612499D02*
X103225276Y-60707737D01*
X103225276Y-60707737D02*
X103320514Y-60802975D01*
X103320514Y-60802975D02*
X103368133Y-60898213D01*
D10*
X111290476Y-102993200D02*
X111433333Y-103040819D01*
X111433333Y-103040819D02*
X111671428Y-103040819D01*
X111671428Y-103040819D02*
X111766666Y-102993200D01*
X111766666Y-102993200D02*
X111814285Y-102945580D01*
X111814285Y-102945580D02*
X111861904Y-102850342D01*
X111861904Y-102850342D02*
X111861904Y-102755104D01*
X111861904Y-102755104D02*
X111814285Y-102659866D01*
X111814285Y-102659866D02*
X111766666Y-102612247D01*
X111766666Y-102612247D02*
X111671428Y-102564628D01*
X111671428Y-102564628D02*
X111480952Y-102517009D01*
X111480952Y-102517009D02*
X111385714Y-102469390D01*
X111385714Y-102469390D02*
X111338095Y-102421771D01*
X111338095Y-102421771D02*
X111290476Y-102326533D01*
X111290476Y-102326533D02*
X111290476Y-102231295D01*
X111290476Y-102231295D02*
X111338095Y-102136057D01*
X111338095Y-102136057D02*
X111385714Y-102088438D01*
X111385714Y-102088438D02*
X111480952Y-102040819D01*
X111480952Y-102040819D02*
X111719047Y-102040819D01*
X111719047Y-102040819D02*
X111861904Y-102088438D01*
X112195238Y-102040819D02*
X112433333Y-103040819D01*
X112433333Y-103040819D02*
X112623809Y-102326533D01*
X112623809Y-102326533D02*
X112814285Y-103040819D01*
X112814285Y-103040819D02*
X113052381Y-102040819D01*
X113957142Y-103040819D02*
X113385714Y-103040819D01*
X113671428Y-103040819D02*
X113671428Y-102040819D01*
X113671428Y-102040819D02*
X113576190Y-102183676D01*
X113576190Y-102183676D02*
X113480952Y-102278914D01*
X113480952Y-102278914D02*
X113385714Y-102326533D01*
X114290476Y-102040819D02*
X114909523Y-102040819D01*
X114909523Y-102040819D02*
X114576190Y-102421771D01*
X114576190Y-102421771D02*
X114719047Y-102421771D01*
X114719047Y-102421771D02*
X114814285Y-102469390D01*
X114814285Y-102469390D02*
X114861904Y-102517009D01*
X114861904Y-102517009D02*
X114909523Y-102612247D01*
X114909523Y-102612247D02*
X114909523Y-102850342D01*
X114909523Y-102850342D02*
X114861904Y-102945580D01*
X114861904Y-102945580D02*
X114814285Y-102993200D01*
X114814285Y-102993200D02*
X114719047Y-103040819D01*
X114719047Y-103040819D02*
X114433333Y-103040819D01*
X114433333Y-103040819D02*
X114338095Y-102993200D01*
X114338095Y-102993200D02*
X114290476Y-102945580D01*
X130340476Y-141093200D02*
X130483333Y-141140819D01*
X130483333Y-141140819D02*
X130721428Y-141140819D01*
X130721428Y-141140819D02*
X130816666Y-141093200D01*
X130816666Y-141093200D02*
X130864285Y-141045580D01*
X130864285Y-141045580D02*
X130911904Y-140950342D01*
X130911904Y-140950342D02*
X130911904Y-140855104D01*
X130911904Y-140855104D02*
X130864285Y-140759866D01*
X130864285Y-140759866D02*
X130816666Y-140712247D01*
X130816666Y-140712247D02*
X130721428Y-140664628D01*
X130721428Y-140664628D02*
X130530952Y-140617009D01*
X130530952Y-140617009D02*
X130435714Y-140569390D01*
X130435714Y-140569390D02*
X130388095Y-140521771D01*
X130388095Y-140521771D02*
X130340476Y-140426533D01*
X130340476Y-140426533D02*
X130340476Y-140331295D01*
X130340476Y-140331295D02*
X130388095Y-140236057D01*
X130388095Y-140236057D02*
X130435714Y-140188438D01*
X130435714Y-140188438D02*
X130530952Y-140140819D01*
X130530952Y-140140819D02*
X130769047Y-140140819D01*
X130769047Y-140140819D02*
X130911904Y-140188438D01*
X131245238Y-140140819D02*
X131483333Y-141140819D01*
X131483333Y-141140819D02*
X131673809Y-140426533D01*
X131673809Y-140426533D02*
X131864285Y-141140819D01*
X131864285Y-141140819D02*
X132102381Y-140140819D01*
X132435714Y-140236057D02*
X132483333Y-140188438D01*
X132483333Y-140188438D02*
X132578571Y-140140819D01*
X132578571Y-140140819D02*
X132816666Y-140140819D01*
X132816666Y-140140819D02*
X132911904Y-140188438D01*
X132911904Y-140188438D02*
X132959523Y-140236057D01*
X132959523Y-140236057D02*
X133007142Y-140331295D01*
X133007142Y-140331295D02*
X133007142Y-140426533D01*
X133007142Y-140426533D02*
X132959523Y-140569390D01*
X132959523Y-140569390D02*
X132388095Y-141140819D01*
X132388095Y-141140819D02*
X133007142Y-141140819D01*
X133388095Y-140236057D02*
X133435714Y-140188438D01*
X133435714Y-140188438D02*
X133530952Y-140140819D01*
X133530952Y-140140819D02*
X133769047Y-140140819D01*
X133769047Y-140140819D02*
X133864285Y-140188438D01*
X133864285Y-140188438D02*
X133911904Y-140236057D01*
X133911904Y-140236057D02*
X133959523Y-140331295D01*
X133959523Y-140331295D02*
X133959523Y-140426533D01*
X133959523Y-140426533D02*
X133911904Y-140569390D01*
X133911904Y-140569390D02*
X133340476Y-141140819D01*
X133340476Y-141140819D02*
X133959523Y-141140819D01*
X101491009Y-44285714D02*
X101538628Y-44142857D01*
X101538628Y-44142857D02*
X101586247Y-44095238D01*
X101586247Y-44095238D02*
X101681485Y-44047619D01*
X101681485Y-44047619D02*
X101824342Y-44047619D01*
X101824342Y-44047619D02*
X101919580Y-44095238D01*
X101919580Y-44095238D02*
X101967200Y-44142857D01*
X101967200Y-44142857D02*
X102014819Y-44238095D01*
X102014819Y-44238095D02*
X102014819Y-44619047D01*
X102014819Y-44619047D02*
X101014819Y-44619047D01*
X101014819Y-44619047D02*
X101014819Y-44285714D01*
X101014819Y-44285714D02*
X101062438Y-44190476D01*
X101062438Y-44190476D02*
X101110057Y-44142857D01*
X101110057Y-44142857D02*
X101205295Y-44095238D01*
X101205295Y-44095238D02*
X101300533Y-44095238D01*
X101300533Y-44095238D02*
X101395771Y-44142857D01*
X101395771Y-44142857D02*
X101443390Y-44190476D01*
X101443390Y-44190476D02*
X101491009Y-44285714D01*
X101491009Y-44285714D02*
X101491009Y-44619047D01*
X101014819Y-43761904D02*
X101014819Y-43190476D01*
X102014819Y-43476190D02*
X101014819Y-43476190D01*
X102014819Y-42333333D02*
X102014819Y-42904761D01*
X102014819Y-42619047D02*
X101014819Y-42619047D01*
X101014819Y-42619047D02*
X101157676Y-42714285D01*
X101157676Y-42714285D02*
X101252914Y-42809523D01*
X101252914Y-42809523D02*
X101300533Y-42904761D01*
X149390476Y-83943200D02*
X149533333Y-83990819D01*
X149533333Y-83990819D02*
X149771428Y-83990819D01*
X149771428Y-83990819D02*
X149866666Y-83943200D01*
X149866666Y-83943200D02*
X149914285Y-83895580D01*
X149914285Y-83895580D02*
X149961904Y-83800342D01*
X149961904Y-83800342D02*
X149961904Y-83705104D01*
X149961904Y-83705104D02*
X149914285Y-83609866D01*
X149914285Y-83609866D02*
X149866666Y-83562247D01*
X149866666Y-83562247D02*
X149771428Y-83514628D01*
X149771428Y-83514628D02*
X149580952Y-83467009D01*
X149580952Y-83467009D02*
X149485714Y-83419390D01*
X149485714Y-83419390D02*
X149438095Y-83371771D01*
X149438095Y-83371771D02*
X149390476Y-83276533D01*
X149390476Y-83276533D02*
X149390476Y-83181295D01*
X149390476Y-83181295D02*
X149438095Y-83086057D01*
X149438095Y-83086057D02*
X149485714Y-83038438D01*
X149485714Y-83038438D02*
X149580952Y-82990819D01*
X149580952Y-82990819D02*
X149819047Y-82990819D01*
X149819047Y-82990819D02*
X149961904Y-83038438D01*
X150295238Y-82990819D02*
X150533333Y-83990819D01*
X150533333Y-83990819D02*
X150723809Y-83276533D01*
X150723809Y-83276533D02*
X150914285Y-83990819D01*
X150914285Y-83990819D02*
X151152381Y-82990819D01*
X152057142Y-83990819D02*
X151485714Y-83990819D01*
X151771428Y-83990819D02*
X151771428Y-82990819D01*
X151771428Y-82990819D02*
X151676190Y-83133676D01*
X151676190Y-83133676D02*
X151580952Y-83228914D01*
X151580952Y-83228914D02*
X151485714Y-83276533D01*
X153009523Y-83990819D02*
X152438095Y-83990819D01*
X152723809Y-83990819D02*
X152723809Y-82990819D01*
X152723809Y-82990819D02*
X152628571Y-83133676D01*
X152628571Y-83133676D02*
X152533333Y-83228914D01*
X152533333Y-83228914D02*
X152438095Y-83276533D01*
X89263095Y-125939819D02*
X89263095Y-126749342D01*
X89263095Y-126749342D02*
X89310714Y-126844580D01*
X89310714Y-126844580D02*
X89358333Y-126892200D01*
X89358333Y-126892200D02*
X89453571Y-126939819D01*
X89453571Y-126939819D02*
X89644047Y-126939819D01*
X89644047Y-126939819D02*
X89739285Y-126892200D01*
X89739285Y-126892200D02*
X89786904Y-126844580D01*
X89786904Y-126844580D02*
X89834523Y-126749342D01*
X89834523Y-126749342D02*
X89834523Y-125939819D01*
X90834523Y-126939819D02*
X90263095Y-126939819D01*
X90548809Y-126939819D02*
X90548809Y-125939819D01*
X90548809Y-125939819D02*
X90453571Y-126082676D01*
X90453571Y-126082676D02*
X90358333Y-126177914D01*
X90358333Y-126177914D02*
X90263095Y-126225533D01*
X93014286Y-94188450D02*
X93121429Y-94224164D01*
X93121429Y-94224164D02*
X93300000Y-94224164D01*
X93300000Y-94224164D02*
X93371429Y-94188450D01*
X93371429Y-94188450D02*
X93407143Y-94152735D01*
X93407143Y-94152735D02*
X93442857Y-94081307D01*
X93442857Y-94081307D02*
X93442857Y-94009878D01*
X93442857Y-94009878D02*
X93407143Y-93938450D01*
X93407143Y-93938450D02*
X93371429Y-93902735D01*
X93371429Y-93902735D02*
X93300000Y-93867021D01*
X93300000Y-93867021D02*
X93157143Y-93831307D01*
X93157143Y-93831307D02*
X93085714Y-93795592D01*
X93085714Y-93795592D02*
X93050000Y-93759878D01*
X93050000Y-93759878D02*
X93014286Y-93688450D01*
X93014286Y-93688450D02*
X93014286Y-93617021D01*
X93014286Y-93617021D02*
X93050000Y-93545592D01*
X93050000Y-93545592D02*
X93085714Y-93509878D01*
X93085714Y-93509878D02*
X93157143Y-93474164D01*
X93157143Y-93474164D02*
X93335714Y-93474164D01*
X93335714Y-93474164D02*
X93442857Y-93509878D01*
X93764286Y-94224164D02*
X93764286Y-93474164D01*
X93764286Y-93474164D02*
X93942857Y-93474164D01*
X93942857Y-93474164D02*
X94050000Y-93509878D01*
X94050000Y-93509878D02*
X94121429Y-93581307D01*
X94121429Y-93581307D02*
X94157143Y-93652735D01*
X94157143Y-93652735D02*
X94192857Y-93795592D01*
X94192857Y-93795592D02*
X94192857Y-93902735D01*
X94192857Y-93902735D02*
X94157143Y-94045592D01*
X94157143Y-94045592D02*
X94121429Y-94117021D01*
X94121429Y-94117021D02*
X94050000Y-94188450D01*
X94050000Y-94188450D02*
X93942857Y-94224164D01*
X93942857Y-94224164D02*
X93764286Y-94224164D01*
X94478572Y-94009878D02*
X94835715Y-94009878D01*
X94407143Y-94224164D02*
X94657143Y-93474164D01*
X94657143Y-93474164D02*
X94907143Y-94224164D01*
X89569819Y-113313571D02*
X89569819Y-113123095D01*
X89569819Y-113123095D02*
X89617438Y-113027857D01*
X89617438Y-113027857D02*
X89712676Y-112932619D01*
X89712676Y-112932619D02*
X89903152Y-112885000D01*
X89903152Y-112885000D02*
X90236485Y-112885000D01*
X90236485Y-112885000D02*
X90426961Y-112932619D01*
X90426961Y-112932619D02*
X90522200Y-113027857D01*
X90522200Y-113027857D02*
X90569819Y-113123095D01*
X90569819Y-113123095D02*
X90569819Y-113313571D01*
X90569819Y-113313571D02*
X90522200Y-113408809D01*
X90522200Y-113408809D02*
X90426961Y-113504047D01*
X90426961Y-113504047D02*
X90236485Y-113551666D01*
X90236485Y-113551666D02*
X89903152Y-113551666D01*
X89903152Y-113551666D02*
X89712676Y-113504047D01*
X89712676Y-113504047D02*
X89617438Y-113408809D01*
X89617438Y-113408809D02*
X89569819Y-113313571D01*
X90569819Y-111980238D02*
X90569819Y-112456428D01*
X90569819Y-112456428D02*
X89569819Y-112456428D01*
X90046009Y-111646904D02*
X90046009Y-111313571D01*
X90569819Y-111170714D02*
X90569819Y-111646904D01*
X90569819Y-111646904D02*
X89569819Y-111646904D01*
X89569819Y-111646904D02*
X89569819Y-111170714D01*
X90569819Y-110742142D02*
X89569819Y-110742142D01*
X89569819Y-110742142D02*
X89569819Y-110504047D01*
X89569819Y-110504047D02*
X89617438Y-110361190D01*
X89617438Y-110361190D02*
X89712676Y-110265952D01*
X89712676Y-110265952D02*
X89807914Y-110218333D01*
X89807914Y-110218333D02*
X89998390Y-110170714D01*
X89998390Y-110170714D02*
X90141247Y-110170714D01*
X90141247Y-110170714D02*
X90331723Y-110218333D01*
X90331723Y-110218333D02*
X90426961Y-110265952D01*
X90426961Y-110265952D02*
X90522200Y-110361190D01*
X90522200Y-110361190D02*
X90569819Y-110504047D01*
X90569819Y-110504047D02*
X90569819Y-110742142D01*
X90569819Y-108980237D02*
X89569819Y-108980237D01*
X89569819Y-108980237D02*
X89569819Y-108599285D01*
X89569819Y-108599285D02*
X89617438Y-108504047D01*
X89617438Y-108504047D02*
X89665057Y-108456428D01*
X89665057Y-108456428D02*
X89760295Y-108408809D01*
X89760295Y-108408809D02*
X89903152Y-108408809D01*
X89903152Y-108408809D02*
X89998390Y-108456428D01*
X89998390Y-108456428D02*
X90046009Y-108504047D01*
X90046009Y-108504047D02*
X90093628Y-108599285D01*
X90093628Y-108599285D02*
X90093628Y-108980237D01*
X90569819Y-107551666D02*
X90046009Y-107551666D01*
X90046009Y-107551666D02*
X89950771Y-107599285D01*
X89950771Y-107599285D02*
X89903152Y-107694523D01*
X89903152Y-107694523D02*
X89903152Y-107884999D01*
X89903152Y-107884999D02*
X89950771Y-107980237D01*
X90522200Y-107551666D02*
X90569819Y-107646904D01*
X90569819Y-107646904D02*
X90569819Y-107884999D01*
X90569819Y-107884999D02*
X90522200Y-107980237D01*
X90522200Y-107980237D02*
X90426961Y-108027856D01*
X90426961Y-108027856D02*
X90331723Y-108027856D01*
X90331723Y-108027856D02*
X90236485Y-107980237D01*
X90236485Y-107980237D02*
X90188866Y-107884999D01*
X90188866Y-107884999D02*
X90188866Y-107646904D01*
X90188866Y-107646904D02*
X90141247Y-107551666D01*
X89903152Y-107075475D02*
X90569819Y-107075475D01*
X89998390Y-107075475D02*
X89950771Y-107027856D01*
X89950771Y-107027856D02*
X89903152Y-106932618D01*
X89903152Y-106932618D02*
X89903152Y-106789761D01*
X89903152Y-106789761D02*
X89950771Y-106694523D01*
X89950771Y-106694523D02*
X90046009Y-106646904D01*
X90046009Y-106646904D02*
X90569819Y-106646904D01*
X90522200Y-105789761D02*
X90569819Y-105884999D01*
X90569819Y-105884999D02*
X90569819Y-106075475D01*
X90569819Y-106075475D02*
X90522200Y-106170713D01*
X90522200Y-106170713D02*
X90426961Y-106218332D01*
X90426961Y-106218332D02*
X90046009Y-106218332D01*
X90046009Y-106218332D02*
X89950771Y-106170713D01*
X89950771Y-106170713D02*
X89903152Y-106075475D01*
X89903152Y-106075475D02*
X89903152Y-105884999D01*
X89903152Y-105884999D02*
X89950771Y-105789761D01*
X89950771Y-105789761D02*
X90046009Y-105742142D01*
X90046009Y-105742142D02*
X90141247Y-105742142D01*
X90141247Y-105742142D02*
X90236485Y-106218332D01*
X90569819Y-105170713D02*
X90522200Y-105265951D01*
X90522200Y-105265951D02*
X90426961Y-105313570D01*
X90426961Y-105313570D02*
X89569819Y-105313570D01*
X85733571Y-93509878D02*
X85662143Y-93474164D01*
X85662143Y-93474164D02*
X85555000Y-93474164D01*
X85555000Y-93474164D02*
X85447857Y-93509878D01*
X85447857Y-93509878D02*
X85376428Y-93581307D01*
X85376428Y-93581307D02*
X85340714Y-93652735D01*
X85340714Y-93652735D02*
X85305000Y-93795592D01*
X85305000Y-93795592D02*
X85305000Y-93902735D01*
X85305000Y-93902735D02*
X85340714Y-94045592D01*
X85340714Y-94045592D02*
X85376428Y-94117021D01*
X85376428Y-94117021D02*
X85447857Y-94188450D01*
X85447857Y-94188450D02*
X85555000Y-94224164D01*
X85555000Y-94224164D02*
X85626428Y-94224164D01*
X85626428Y-94224164D02*
X85733571Y-94188450D01*
X85733571Y-94188450D02*
X85769285Y-94152735D01*
X85769285Y-94152735D02*
X85769285Y-93902735D01*
X85769285Y-93902735D02*
X85626428Y-93902735D01*
X86090714Y-94224164D02*
X86090714Y-93474164D01*
X86090714Y-93474164D02*
X86519285Y-94224164D01*
X86519285Y-94224164D02*
X86519285Y-93474164D01*
X86876428Y-94224164D02*
X86876428Y-93474164D01*
X86876428Y-93474164D02*
X87054999Y-93474164D01*
X87054999Y-93474164D02*
X87162142Y-93509878D01*
X87162142Y-93509878D02*
X87233571Y-93581307D01*
X87233571Y-93581307D02*
X87269285Y-93652735D01*
X87269285Y-93652735D02*
X87304999Y-93795592D01*
X87304999Y-93795592D02*
X87304999Y-93902735D01*
X87304999Y-93902735D02*
X87269285Y-94045592D01*
X87269285Y-94045592D02*
X87233571Y-94117021D01*
X87233571Y-94117021D02*
X87162142Y-94188450D01*
X87162142Y-94188450D02*
X87054999Y-94224164D01*
X87054999Y-94224164D02*
X86876428Y-94224164D01*
X87845000Y-93474164D02*
X88095000Y-94224164D01*
X88095000Y-94224164D02*
X88345000Y-93474164D01*
X89023571Y-94152735D02*
X88987857Y-94188450D01*
X88987857Y-94188450D02*
X88880714Y-94224164D01*
X88880714Y-94224164D02*
X88809286Y-94224164D01*
X88809286Y-94224164D02*
X88702143Y-94188450D01*
X88702143Y-94188450D02*
X88630714Y-94117021D01*
X88630714Y-94117021D02*
X88595000Y-94045592D01*
X88595000Y-94045592D02*
X88559286Y-93902735D01*
X88559286Y-93902735D02*
X88559286Y-93795592D01*
X88559286Y-93795592D02*
X88595000Y-93652735D01*
X88595000Y-93652735D02*
X88630714Y-93581307D01*
X88630714Y-93581307D02*
X88702143Y-93509878D01*
X88702143Y-93509878D02*
X88809286Y-93474164D01*
X88809286Y-93474164D02*
X88880714Y-93474164D01*
X88880714Y-93474164D02*
X88987857Y-93509878D01*
X88987857Y-93509878D02*
X89023571Y-93545592D01*
X89773571Y-94152735D02*
X89737857Y-94188450D01*
X89737857Y-94188450D02*
X89630714Y-94224164D01*
X89630714Y-94224164D02*
X89559286Y-94224164D01*
X89559286Y-94224164D02*
X89452143Y-94188450D01*
X89452143Y-94188450D02*
X89380714Y-94117021D01*
X89380714Y-94117021D02*
X89345000Y-94045592D01*
X89345000Y-94045592D02*
X89309286Y-93902735D01*
X89309286Y-93902735D02*
X89309286Y-93795592D01*
X89309286Y-93795592D02*
X89345000Y-93652735D01*
X89345000Y-93652735D02*
X89380714Y-93581307D01*
X89380714Y-93581307D02*
X89452143Y-93509878D01*
X89452143Y-93509878D02*
X89559286Y-93474164D01*
X89559286Y-93474164D02*
X89630714Y-93474164D01*
X89630714Y-93474164D02*
X89737857Y-93509878D01*
X89737857Y-93509878D02*
X89773571Y-93545592D01*
X90492143Y-94188450D02*
X90599286Y-94224164D01*
X90599286Y-94224164D02*
X90777857Y-94224164D01*
X90777857Y-94224164D02*
X90849286Y-94188450D01*
X90849286Y-94188450D02*
X90885000Y-94152735D01*
X90885000Y-94152735D02*
X90920714Y-94081307D01*
X90920714Y-94081307D02*
X90920714Y-94009878D01*
X90920714Y-94009878D02*
X90885000Y-93938450D01*
X90885000Y-93938450D02*
X90849286Y-93902735D01*
X90849286Y-93902735D02*
X90777857Y-93867021D01*
X90777857Y-93867021D02*
X90635000Y-93831307D01*
X90635000Y-93831307D02*
X90563571Y-93795592D01*
X90563571Y-93795592D02*
X90527857Y-93759878D01*
X90527857Y-93759878D02*
X90492143Y-93688450D01*
X90492143Y-93688450D02*
X90492143Y-93617021D01*
X90492143Y-93617021D02*
X90527857Y-93545592D01*
X90527857Y-93545592D02*
X90563571Y-93509878D01*
X90563571Y-93509878D02*
X90635000Y-93474164D01*
X90635000Y-93474164D02*
X90813571Y-93474164D01*
X90813571Y-93474164D02*
X90920714Y-93509878D01*
X91670714Y-94152735D02*
X91635000Y-94188450D01*
X91635000Y-94188450D02*
X91527857Y-94224164D01*
X91527857Y-94224164D02*
X91456429Y-94224164D01*
X91456429Y-94224164D02*
X91349286Y-94188450D01*
X91349286Y-94188450D02*
X91277857Y-94117021D01*
X91277857Y-94117021D02*
X91242143Y-94045592D01*
X91242143Y-94045592D02*
X91206429Y-93902735D01*
X91206429Y-93902735D02*
X91206429Y-93795592D01*
X91206429Y-93795592D02*
X91242143Y-93652735D01*
X91242143Y-93652735D02*
X91277857Y-93581307D01*
X91277857Y-93581307D02*
X91349286Y-93509878D01*
X91349286Y-93509878D02*
X91456429Y-93474164D01*
X91456429Y-93474164D02*
X91527857Y-93474164D01*
X91527857Y-93474164D02*
X91635000Y-93509878D01*
X91635000Y-93509878D02*
X91670714Y-93545592D01*
X92349286Y-94224164D02*
X91992143Y-94224164D01*
X91992143Y-94224164D02*
X91992143Y-93474164D01*
D11*
X142182419Y-138526785D02*
X141182419Y-138526785D01*
X141182419Y-138526785D02*
X141182419Y-138288690D01*
X141182419Y-138288690D02*
X141230038Y-138145833D01*
X141230038Y-138145833D02*
X141325276Y-138050595D01*
X141325276Y-138050595D02*
X141420514Y-138002976D01*
X141420514Y-138002976D02*
X141610990Y-137955357D01*
X141610990Y-137955357D02*
X141753847Y-137955357D01*
X141753847Y-137955357D02*
X141944323Y-138002976D01*
X141944323Y-138002976D02*
X142039561Y-138050595D01*
X142039561Y-138050595D02*
X142134800Y-138145833D01*
X142134800Y-138145833D02*
X142182419Y-138288690D01*
X142182419Y-138288690D02*
X142182419Y-138526785D01*
X142182419Y-137002976D02*
X142182419Y-137574404D01*
X142182419Y-137288690D02*
X141182419Y-137288690D01*
X141182419Y-137288690D02*
X141325276Y-137383928D01*
X141325276Y-137383928D02*
X141420514Y-137479166D01*
X141420514Y-137479166D02*
X141468133Y-137574404D01*
X142182419Y-136526785D02*
X142182419Y-136336309D01*
X142182419Y-136336309D02*
X142134800Y-136241071D01*
X142134800Y-136241071D02*
X142087180Y-136193452D01*
X142087180Y-136193452D02*
X141944323Y-136098214D01*
X141944323Y-136098214D02*
X141753847Y-136050595D01*
X141753847Y-136050595D02*
X141372895Y-136050595D01*
X141372895Y-136050595D02*
X141277657Y-136098214D01*
X141277657Y-136098214D02*
X141230038Y-136145833D01*
X141230038Y-136145833D02*
X141182419Y-136241071D01*
X141182419Y-136241071D02*
X141182419Y-136431547D01*
X141182419Y-136431547D02*
X141230038Y-136526785D01*
X141230038Y-136526785D02*
X141277657Y-136574404D01*
X141277657Y-136574404D02*
X141372895Y-136622023D01*
X141372895Y-136622023D02*
X141610990Y-136622023D01*
X141610990Y-136622023D02*
X141706228Y-136574404D01*
X141706228Y-136574404D02*
X141753847Y-136526785D01*
X141753847Y-136526785D02*
X141801466Y-136431547D01*
X141801466Y-136431547D02*
X141801466Y-136241071D01*
X141801466Y-136241071D02*
X141753847Y-136145833D01*
X141753847Y-136145833D02*
X141706228Y-136098214D01*
X141706228Y-136098214D02*
X141610990Y-136050595D01*
D10*
X111766667Y-64893200D02*
X111909524Y-64940819D01*
X111909524Y-64940819D02*
X112147619Y-64940819D01*
X112147619Y-64940819D02*
X112242857Y-64893200D01*
X112242857Y-64893200D02*
X112290476Y-64845580D01*
X112290476Y-64845580D02*
X112338095Y-64750342D01*
X112338095Y-64750342D02*
X112338095Y-64655104D01*
X112338095Y-64655104D02*
X112290476Y-64559866D01*
X112290476Y-64559866D02*
X112242857Y-64512247D01*
X112242857Y-64512247D02*
X112147619Y-64464628D01*
X112147619Y-64464628D02*
X111957143Y-64417009D01*
X111957143Y-64417009D02*
X111861905Y-64369390D01*
X111861905Y-64369390D02*
X111814286Y-64321771D01*
X111814286Y-64321771D02*
X111766667Y-64226533D01*
X111766667Y-64226533D02*
X111766667Y-64131295D01*
X111766667Y-64131295D02*
X111814286Y-64036057D01*
X111814286Y-64036057D02*
X111861905Y-63988438D01*
X111861905Y-63988438D02*
X111957143Y-63940819D01*
X111957143Y-63940819D02*
X112195238Y-63940819D01*
X112195238Y-63940819D02*
X112338095Y-63988438D01*
X112671429Y-63940819D02*
X112909524Y-64940819D01*
X112909524Y-64940819D02*
X113100000Y-64226533D01*
X113100000Y-64226533D02*
X113290476Y-64940819D01*
X113290476Y-64940819D02*
X113528572Y-63940819D01*
X114385714Y-63940819D02*
X113909524Y-63940819D01*
X113909524Y-63940819D02*
X113861905Y-64417009D01*
X113861905Y-64417009D02*
X113909524Y-64369390D01*
X113909524Y-64369390D02*
X114004762Y-64321771D01*
X114004762Y-64321771D02*
X114242857Y-64321771D01*
X114242857Y-64321771D02*
X114338095Y-64369390D01*
X114338095Y-64369390D02*
X114385714Y-64417009D01*
X114385714Y-64417009D02*
X114433333Y-64512247D01*
X114433333Y-64512247D02*
X114433333Y-64750342D01*
X114433333Y-64750342D02*
X114385714Y-64845580D01*
X114385714Y-64845580D02*
X114338095Y-64893200D01*
X114338095Y-64893200D02*
X114242857Y-64940819D01*
X114242857Y-64940819D02*
X114004762Y-64940819D01*
X114004762Y-64940819D02*
X113909524Y-64893200D01*
X113909524Y-64893200D02*
X113861905Y-64845580D01*
X130816667Y-45843200D02*
X130959524Y-45890819D01*
X130959524Y-45890819D02*
X131197619Y-45890819D01*
X131197619Y-45890819D02*
X131292857Y-45843200D01*
X131292857Y-45843200D02*
X131340476Y-45795580D01*
X131340476Y-45795580D02*
X131388095Y-45700342D01*
X131388095Y-45700342D02*
X131388095Y-45605104D01*
X131388095Y-45605104D02*
X131340476Y-45509866D01*
X131340476Y-45509866D02*
X131292857Y-45462247D01*
X131292857Y-45462247D02*
X131197619Y-45414628D01*
X131197619Y-45414628D02*
X131007143Y-45367009D01*
X131007143Y-45367009D02*
X130911905Y-45319390D01*
X130911905Y-45319390D02*
X130864286Y-45271771D01*
X130864286Y-45271771D02*
X130816667Y-45176533D01*
X130816667Y-45176533D02*
X130816667Y-45081295D01*
X130816667Y-45081295D02*
X130864286Y-44986057D01*
X130864286Y-44986057D02*
X130911905Y-44938438D01*
X130911905Y-44938438D02*
X131007143Y-44890819D01*
X131007143Y-44890819D02*
X131245238Y-44890819D01*
X131245238Y-44890819D02*
X131388095Y-44938438D01*
X131721429Y-44890819D02*
X131959524Y-45890819D01*
X131959524Y-45890819D02*
X132150000Y-45176533D01*
X132150000Y-45176533D02*
X132340476Y-45890819D01*
X132340476Y-45890819D02*
X132578572Y-44890819D01*
X132911905Y-44986057D02*
X132959524Y-44938438D01*
X132959524Y-44938438D02*
X133054762Y-44890819D01*
X133054762Y-44890819D02*
X133292857Y-44890819D01*
X133292857Y-44890819D02*
X133388095Y-44938438D01*
X133388095Y-44938438D02*
X133435714Y-44986057D01*
X133435714Y-44986057D02*
X133483333Y-45081295D01*
X133483333Y-45081295D02*
X133483333Y-45176533D01*
X133483333Y-45176533D02*
X133435714Y-45319390D01*
X133435714Y-45319390D02*
X132864286Y-45890819D01*
X132864286Y-45890819D02*
X133483333Y-45890819D01*
D11*
X161232419Y-61850594D02*
X160232419Y-61850594D01*
X160232419Y-61850594D02*
X160232419Y-61612499D01*
X160232419Y-61612499D02*
X160280038Y-61469642D01*
X160280038Y-61469642D02*
X160375276Y-61374404D01*
X160375276Y-61374404D02*
X160470514Y-61326785D01*
X160470514Y-61326785D02*
X160660990Y-61279166D01*
X160660990Y-61279166D02*
X160803847Y-61279166D01*
X160803847Y-61279166D02*
X160994323Y-61326785D01*
X160994323Y-61326785D02*
X161089561Y-61374404D01*
X161089561Y-61374404D02*
X161184800Y-61469642D01*
X161184800Y-61469642D02*
X161232419Y-61612499D01*
X161232419Y-61612499D02*
X161232419Y-61850594D01*
X160565752Y-60422023D02*
X161232419Y-60422023D01*
X160184800Y-60660118D02*
X160899085Y-60898213D01*
X160899085Y-60898213D02*
X160899085Y-60279166D01*
X104082419Y-119476785D02*
X103082419Y-119476785D01*
X103082419Y-119476785D02*
X103082419Y-119238690D01*
X103082419Y-119238690D02*
X103130038Y-119095833D01*
X103130038Y-119095833D02*
X103225276Y-119000595D01*
X103225276Y-119000595D02*
X103320514Y-118952976D01*
X103320514Y-118952976D02*
X103510990Y-118905357D01*
X103510990Y-118905357D02*
X103653847Y-118905357D01*
X103653847Y-118905357D02*
X103844323Y-118952976D01*
X103844323Y-118952976D02*
X103939561Y-119000595D01*
X103939561Y-119000595D02*
X104034800Y-119095833D01*
X104034800Y-119095833D02*
X104082419Y-119238690D01*
X104082419Y-119238690D02*
X104082419Y-119476785D01*
X104082419Y-117952976D02*
X104082419Y-118524404D01*
X104082419Y-118238690D02*
X103082419Y-118238690D01*
X103082419Y-118238690D02*
X103225276Y-118333928D01*
X103225276Y-118333928D02*
X103320514Y-118429166D01*
X103320514Y-118429166D02*
X103368133Y-118524404D01*
X103082419Y-117619642D02*
X103082419Y-117000595D01*
X103082419Y-117000595D02*
X103463371Y-117333928D01*
X103463371Y-117333928D02*
X103463371Y-117191071D01*
X103463371Y-117191071D02*
X103510990Y-117095833D01*
X103510990Y-117095833D02*
X103558609Y-117048214D01*
X103558609Y-117048214D02*
X103653847Y-117000595D01*
X103653847Y-117000595D02*
X103891942Y-117000595D01*
X103891942Y-117000595D02*
X103987180Y-117048214D01*
X103987180Y-117048214D02*
X104034800Y-117095833D01*
X104034800Y-117095833D02*
X104082419Y-117191071D01*
X104082419Y-117191071D02*
X104082419Y-117476785D01*
X104082419Y-117476785D02*
X104034800Y-117572023D01*
X104034800Y-117572023D02*
X103987180Y-117619642D01*
D10*
X168440476Y-141093200D02*
X168583333Y-141140819D01*
X168583333Y-141140819D02*
X168821428Y-141140819D01*
X168821428Y-141140819D02*
X168916666Y-141093200D01*
X168916666Y-141093200D02*
X168964285Y-141045580D01*
X168964285Y-141045580D02*
X169011904Y-140950342D01*
X169011904Y-140950342D02*
X169011904Y-140855104D01*
X169011904Y-140855104D02*
X168964285Y-140759866D01*
X168964285Y-140759866D02*
X168916666Y-140712247D01*
X168916666Y-140712247D02*
X168821428Y-140664628D01*
X168821428Y-140664628D02*
X168630952Y-140617009D01*
X168630952Y-140617009D02*
X168535714Y-140569390D01*
X168535714Y-140569390D02*
X168488095Y-140521771D01*
X168488095Y-140521771D02*
X168440476Y-140426533D01*
X168440476Y-140426533D02*
X168440476Y-140331295D01*
X168440476Y-140331295D02*
X168488095Y-140236057D01*
X168488095Y-140236057D02*
X168535714Y-140188438D01*
X168535714Y-140188438D02*
X168630952Y-140140819D01*
X168630952Y-140140819D02*
X168869047Y-140140819D01*
X168869047Y-140140819D02*
X169011904Y-140188438D01*
X169345238Y-140140819D02*
X169583333Y-141140819D01*
X169583333Y-141140819D02*
X169773809Y-140426533D01*
X169773809Y-140426533D02*
X169964285Y-141140819D01*
X169964285Y-141140819D02*
X170202381Y-140140819D01*
X170535714Y-140236057D02*
X170583333Y-140188438D01*
X170583333Y-140188438D02*
X170678571Y-140140819D01*
X170678571Y-140140819D02*
X170916666Y-140140819D01*
X170916666Y-140140819D02*
X171011904Y-140188438D01*
X171011904Y-140188438D02*
X171059523Y-140236057D01*
X171059523Y-140236057D02*
X171107142Y-140331295D01*
X171107142Y-140331295D02*
X171107142Y-140426533D01*
X171107142Y-140426533D02*
X171059523Y-140569390D01*
X171059523Y-140569390D02*
X170488095Y-141140819D01*
X170488095Y-141140819D02*
X171107142Y-141140819D01*
X171964285Y-140474152D02*
X171964285Y-141140819D01*
X171726190Y-140093200D02*
X171488095Y-140807485D01*
X171488095Y-140807485D02*
X172107142Y-140807485D01*
X98234819Y-108166666D02*
X97758628Y-108499999D01*
X98234819Y-108738094D02*
X97234819Y-108738094D01*
X97234819Y-108738094D02*
X97234819Y-108357142D01*
X97234819Y-108357142D02*
X97282438Y-108261904D01*
X97282438Y-108261904D02*
X97330057Y-108214285D01*
X97330057Y-108214285D02*
X97425295Y-108166666D01*
X97425295Y-108166666D02*
X97568152Y-108166666D01*
X97568152Y-108166666D02*
X97663390Y-108214285D01*
X97663390Y-108214285D02*
X97711009Y-108261904D01*
X97711009Y-108261904D02*
X97758628Y-108357142D01*
X97758628Y-108357142D02*
X97758628Y-108738094D01*
X97330057Y-107785713D02*
X97282438Y-107738094D01*
X97282438Y-107738094D02*
X97234819Y-107642856D01*
X97234819Y-107642856D02*
X97234819Y-107404761D01*
X97234819Y-107404761D02*
X97282438Y-107309523D01*
X97282438Y-107309523D02*
X97330057Y-107261904D01*
X97330057Y-107261904D02*
X97425295Y-107214285D01*
X97425295Y-107214285D02*
X97520533Y-107214285D01*
X97520533Y-107214285D02*
X97663390Y-107261904D01*
X97663390Y-107261904D02*
X98234819Y-107833332D01*
X98234819Y-107833332D02*
X98234819Y-107214285D01*
D11*
X161232419Y-100426785D02*
X160232419Y-100426785D01*
X160232419Y-100426785D02*
X160232419Y-100188690D01*
X160232419Y-100188690D02*
X160280038Y-100045833D01*
X160280038Y-100045833D02*
X160375276Y-99950595D01*
X160375276Y-99950595D02*
X160470514Y-99902976D01*
X160470514Y-99902976D02*
X160660990Y-99855357D01*
X160660990Y-99855357D02*
X160803847Y-99855357D01*
X160803847Y-99855357D02*
X160994323Y-99902976D01*
X160994323Y-99902976D02*
X161089561Y-99950595D01*
X161089561Y-99950595D02*
X161184800Y-100045833D01*
X161184800Y-100045833D02*
X161232419Y-100188690D01*
X161232419Y-100188690D02*
X161232419Y-100426785D01*
X161232419Y-98902976D02*
X161232419Y-99474404D01*
X161232419Y-99188690D02*
X160232419Y-99188690D01*
X160232419Y-99188690D02*
X160375276Y-99283928D01*
X160375276Y-99283928D02*
X160470514Y-99379166D01*
X160470514Y-99379166D02*
X160518133Y-99474404D01*
X160327657Y-98522023D02*
X160280038Y-98474404D01*
X160280038Y-98474404D02*
X160232419Y-98379166D01*
X160232419Y-98379166D02*
X160232419Y-98141071D01*
X160232419Y-98141071D02*
X160280038Y-98045833D01*
X160280038Y-98045833D02*
X160327657Y-97998214D01*
X160327657Y-97998214D02*
X160422895Y-97950595D01*
X160422895Y-97950595D02*
X160518133Y-97950595D01*
X160518133Y-97950595D02*
X160660990Y-97998214D01*
X160660990Y-97998214D02*
X161232419Y-98569642D01*
X161232419Y-98569642D02*
X161232419Y-97950595D01*
D10*
X149866667Y-45843200D02*
X150009524Y-45890819D01*
X150009524Y-45890819D02*
X150247619Y-45890819D01*
X150247619Y-45890819D02*
X150342857Y-45843200D01*
X150342857Y-45843200D02*
X150390476Y-45795580D01*
X150390476Y-45795580D02*
X150438095Y-45700342D01*
X150438095Y-45700342D02*
X150438095Y-45605104D01*
X150438095Y-45605104D02*
X150390476Y-45509866D01*
X150390476Y-45509866D02*
X150342857Y-45462247D01*
X150342857Y-45462247D02*
X150247619Y-45414628D01*
X150247619Y-45414628D02*
X150057143Y-45367009D01*
X150057143Y-45367009D02*
X149961905Y-45319390D01*
X149961905Y-45319390D02*
X149914286Y-45271771D01*
X149914286Y-45271771D02*
X149866667Y-45176533D01*
X149866667Y-45176533D02*
X149866667Y-45081295D01*
X149866667Y-45081295D02*
X149914286Y-44986057D01*
X149914286Y-44986057D02*
X149961905Y-44938438D01*
X149961905Y-44938438D02*
X150057143Y-44890819D01*
X150057143Y-44890819D02*
X150295238Y-44890819D01*
X150295238Y-44890819D02*
X150438095Y-44938438D01*
X150771429Y-44890819D02*
X151009524Y-45890819D01*
X151009524Y-45890819D02*
X151200000Y-45176533D01*
X151200000Y-45176533D02*
X151390476Y-45890819D01*
X151390476Y-45890819D02*
X151628572Y-44890819D01*
X151914286Y-44890819D02*
X152533333Y-44890819D01*
X152533333Y-44890819D02*
X152200000Y-45271771D01*
X152200000Y-45271771D02*
X152342857Y-45271771D01*
X152342857Y-45271771D02*
X152438095Y-45319390D01*
X152438095Y-45319390D02*
X152485714Y-45367009D01*
X152485714Y-45367009D02*
X152533333Y-45462247D01*
X152533333Y-45462247D02*
X152533333Y-45700342D01*
X152533333Y-45700342D02*
X152485714Y-45795580D01*
X152485714Y-45795580D02*
X152438095Y-45843200D01*
X152438095Y-45843200D02*
X152342857Y-45890819D01*
X152342857Y-45890819D02*
X152057143Y-45890819D01*
X152057143Y-45890819D02*
X151961905Y-45843200D01*
X151961905Y-45843200D02*
X151914286Y-45795580D01*
X89358095Y-83974819D02*
X89358095Y-84784342D01*
X89358095Y-84784342D02*
X89405714Y-84879580D01*
X89405714Y-84879580D02*
X89453333Y-84927200D01*
X89453333Y-84927200D02*
X89548571Y-84974819D01*
X89548571Y-84974819D02*
X89739047Y-84974819D01*
X89739047Y-84974819D02*
X89834285Y-84927200D01*
X89834285Y-84927200D02*
X89881904Y-84879580D01*
X89881904Y-84879580D02*
X89929523Y-84784342D01*
X89929523Y-84784342D02*
X89929523Y-83974819D01*
X90358095Y-84070057D02*
X90405714Y-84022438D01*
X90405714Y-84022438D02*
X90500952Y-83974819D01*
X90500952Y-83974819D02*
X90739047Y-83974819D01*
X90739047Y-83974819D02*
X90834285Y-84022438D01*
X90834285Y-84022438D02*
X90881904Y-84070057D01*
X90881904Y-84070057D02*
X90929523Y-84165295D01*
X90929523Y-84165295D02*
X90929523Y-84260533D01*
X90929523Y-84260533D02*
X90881904Y-84403390D01*
X90881904Y-84403390D02*
X90310476Y-84974819D01*
X90310476Y-84974819D02*
X90929523Y-84974819D01*
D12*
%TO.C,C2*%
X91283767Y-117010000D02*
X90991233Y-117010000D01*
X91283767Y-115990000D02*
X90991233Y-115990000D01*
%TO.C,C1*%
X86765000Y-117646267D02*
X86765000Y-117353733D01*
X87785000Y-117646267D02*
X87785000Y-117353733D01*
D11*
%TO.C,D23*%
X140425000Y-156412500D02*
X141025000Y-156412500D01*
X140525000Y-156012500D02*
X140725000Y-156312500D01*
X140725000Y-156312500D02*
X140925000Y-156012500D01*
X140725000Y-156662500D02*
X140725000Y-155762500D01*
X140925000Y-156012500D02*
X140525000Y-156012500D01*
X140725000Y-156312500D02*
X140525000Y-156012500D01*
X140925000Y-156012500D01*
X140725000Y-156312500D01*
G36*
X140725000Y-156312500D02*
G01*
X140525000Y-156012500D01*
X140925000Y-156012500D01*
X140725000Y-156312500D01*
G37*
D12*
%TO.C,SW21*%
X106115000Y-141575000D02*
X120085000Y-141575000D01*
X106115000Y-155545000D02*
X106115000Y-141575000D01*
X120085000Y-141575000D02*
X120085000Y-155545000D01*
X120085000Y-155545000D02*
X106115000Y-155545000D01*
%TO.C,SW4*%
X163265000Y-46325000D02*
X177235000Y-46325000D01*
X163265000Y-60295000D02*
X163265000Y-46325000D01*
X177235000Y-46325000D02*
X177235000Y-60295000D01*
X177235000Y-60295000D02*
X163265000Y-60295000D01*
%TO.C,SW10*%
X125165000Y-84425000D02*
X139135000Y-84425000D01*
X125165000Y-98395000D02*
X125165000Y-84425000D01*
X139135000Y-84425000D02*
X139135000Y-98395000D01*
X139135000Y-98395000D02*
X125165000Y-98395000D01*
%TO.C,SW7*%
X144215000Y-65375000D02*
X158185000Y-65375000D01*
X144215000Y-79345000D02*
X144215000Y-65375000D01*
X158185000Y-65375000D02*
X158185000Y-79345000D01*
X158185000Y-79345000D02*
X144215000Y-79345000D01*
%TO.C,SW9*%
X106115000Y-84425000D02*
X120085000Y-84425000D01*
X106115000Y-98395000D02*
X106115000Y-84425000D01*
X120085000Y-84425000D02*
X120085000Y-98395000D01*
X120085000Y-98395000D02*
X106115000Y-98395000D01*
%TO.C,SW25*%
X79170000Y-93810000D02*
X79170000Y-88670000D01*
X81830000Y-88670000D02*
X79170000Y-88670000D01*
X81830000Y-93810000D02*
X79170000Y-93810000D01*
X81830000Y-93810000D02*
X81830000Y-88670000D01*
X81830000Y-95080000D02*
X81830000Y-96410000D01*
X81830000Y-96410000D02*
X80500000Y-96410000D01*
%TO.C,SW23*%
X144215000Y-141575000D02*
X158185000Y-141575000D01*
X144215000Y-155545000D02*
X144215000Y-141575000D01*
X158185000Y-141575000D02*
X158185000Y-155545000D01*
X158185000Y-155545000D02*
X144215000Y-155545000D01*
%TO.C,SW0*%
X84745000Y-134215000D02*
X84745000Y-132885000D01*
X86075000Y-134215000D02*
X84745000Y-134215000D01*
X87345000Y-131555000D02*
X97565000Y-131555000D01*
X87345000Y-134215000D02*
X87345000Y-131555000D01*
X87345000Y-134215000D02*
X97565000Y-134215000D01*
X97565000Y-134215000D02*
X97565000Y-131555000D01*
D11*
%TO.C,D24*%
X159475000Y-156412500D02*
X160075000Y-156412500D01*
X159575000Y-156012500D02*
X159775000Y-156312500D01*
X159775000Y-156312500D02*
X159975000Y-156012500D01*
X159775000Y-156662500D02*
X159775000Y-155762500D01*
X159975000Y-156012500D02*
X159575000Y-156012500D01*
X159775000Y-156312500D02*
X159575000Y-156012500D01*
X159975000Y-156012500D01*
X159775000Y-156312500D01*
G36*
X159775000Y-156312500D02*
G01*
X159575000Y-156012500D01*
X159975000Y-156012500D01*
X159775000Y-156312500D01*
G37*
%TO.C,D15*%
X140425000Y-118312500D02*
X141025000Y-118312500D01*
X140525000Y-117912500D02*
X140725000Y-118212500D01*
X140725000Y-118212500D02*
X140925000Y-117912500D01*
X140725000Y-118562500D02*
X140725000Y-117662500D01*
X140925000Y-117912500D02*
X140525000Y-117912500D01*
X140725000Y-118212500D02*
X140525000Y-117912500D01*
X140925000Y-117912500D01*
X140725000Y-118212500D01*
G36*
X140725000Y-118212500D02*
G01*
X140525000Y-117912500D01*
X140925000Y-117912500D01*
X140725000Y-118212500D01*
G37*
%TO.C,D5*%
X102325000Y-80212500D02*
X102925000Y-80212500D01*
X102425000Y-79812500D02*
X102625000Y-80112500D01*
X102625000Y-80112500D02*
X102825000Y-79812500D01*
X102625000Y-80462500D02*
X102625000Y-79562500D01*
X102825000Y-79812500D02*
X102425000Y-79812500D01*
X102625000Y-80112500D02*
X102425000Y-79812500D01*
X102825000Y-79812500D01*
X102625000Y-80112500D01*
G36*
X102625000Y-80112500D02*
G01*
X102425000Y-79812500D01*
X102825000Y-79812500D01*
X102625000Y-80112500D01*
G37*
%TO.C,D10*%
X121375000Y-99262500D02*
X121975000Y-99262500D01*
X121475000Y-98862500D02*
X121675000Y-99162500D01*
X121675000Y-99162500D02*
X121875000Y-98862500D01*
X121675000Y-99512500D02*
X121675000Y-98612500D01*
X121875000Y-98862500D02*
X121475000Y-98862500D01*
X121675000Y-99162500D02*
X121475000Y-98862500D01*
X121875000Y-98862500D01*
X121675000Y-99162500D01*
G36*
X121675000Y-99162500D02*
G01*
X121475000Y-98862500D01*
X121875000Y-98862500D01*
X121675000Y-99162500D01*
G37*
%TO.C,D3*%
X140425000Y-61162500D02*
X141025000Y-61162500D01*
X140525000Y-60762500D02*
X140725000Y-61062500D01*
X140725000Y-61062500D02*
X140925000Y-60762500D01*
X140725000Y-61412500D02*
X140725000Y-60512500D01*
X140925000Y-60762500D02*
X140525000Y-60762500D01*
X140725000Y-61062500D02*
X140525000Y-60762500D01*
X140925000Y-60762500D01*
X140725000Y-61062500D01*
G36*
X140725000Y-61062500D02*
G01*
X140525000Y-60762500D01*
X140925000Y-60762500D01*
X140725000Y-61062500D01*
G37*
D12*
%TO.C,SW17*%
X106115000Y-122525000D02*
X120085000Y-122525000D01*
X106115000Y-136495000D02*
X106115000Y-122525000D01*
X120085000Y-122525000D02*
X120085000Y-136495000D01*
X120085000Y-136495000D02*
X106115000Y-136495000D01*
%TO.C,SW15*%
X144215000Y-103475000D02*
X158185000Y-103475000D01*
X144215000Y-117445000D02*
X144215000Y-103475000D01*
X158185000Y-103475000D02*
X158185000Y-117445000D01*
X158185000Y-117445000D02*
X144215000Y-117445000D01*
D11*
%TO.C,D22*%
X121375000Y-156412500D02*
X121975000Y-156412500D01*
X121475000Y-156012500D02*
X121675000Y-156312500D01*
X121675000Y-156312500D02*
X121875000Y-156012500D01*
X121675000Y-156662500D02*
X121675000Y-155762500D01*
X121875000Y-156012500D02*
X121475000Y-156012500D01*
X121675000Y-156312500D02*
X121475000Y-156012500D01*
X121875000Y-156012500D01*
X121675000Y-156312500D01*
G36*
X121675000Y-156312500D02*
G01*
X121475000Y-156012500D01*
X121875000Y-156012500D01*
X121675000Y-156312500D01*
G37*
D12*
%TO.C,SW20*%
X163265000Y-122525000D02*
X177235000Y-122525000D01*
X163265000Y-136495000D02*
X163265000Y-122525000D01*
X177235000Y-122525000D02*
X177235000Y-136495000D01*
X177235000Y-136495000D02*
X163265000Y-136495000D01*
D13*
%TO.C,U4*%
X85510800Y-108685800D02*
X85510800Y-108990600D01*
X85510800Y-108990600D02*
X85510800Y-109600200D01*
X85510800Y-109600200D02*
X85510800Y-109905000D01*
D11*
X85510800Y-108990600D02*
G75*
G02*
X85510800Y-109600200I0J-304800D01*
G01*
D12*
%TO.C,SW12*%
X163265000Y-84425000D02*
X177235000Y-84425000D01*
X163265000Y-98395000D02*
X163265000Y-84425000D01*
X177235000Y-84425000D02*
X177235000Y-98395000D01*
X177235000Y-98395000D02*
X163265000Y-98395000D01*
D11*
%TO.C,D6*%
X121375000Y-80212500D02*
X121975000Y-80212500D01*
X121475000Y-79812500D02*
X121675000Y-80112500D01*
X121675000Y-80112500D02*
X121875000Y-79812500D01*
X121675000Y-80462500D02*
X121675000Y-79562500D01*
X121875000Y-79812500D02*
X121475000Y-79812500D01*
X121675000Y-80112500D02*
X121475000Y-79812500D01*
X121875000Y-79812500D01*
X121675000Y-80112500D01*
G36*
X121675000Y-80112500D02*
G01*
X121475000Y-79812500D01*
X121875000Y-79812500D01*
X121675000Y-80112500D01*
G37*
%TO.C,D9*%
X102325000Y-99262500D02*
X102925000Y-99262500D01*
X102425000Y-98862500D02*
X102625000Y-99162500D01*
X102625000Y-99162500D02*
X102825000Y-98862500D01*
X102625000Y-99512500D02*
X102625000Y-98612500D01*
X102825000Y-98862500D02*
X102425000Y-98862500D01*
X102625000Y-99162500D02*
X102425000Y-98862500D01*
X102825000Y-98862500D01*
X102625000Y-99162500D01*
G36*
X102625000Y-99162500D02*
G01*
X102425000Y-98862500D01*
X102825000Y-98862500D01*
X102625000Y-99162500D01*
G37*
D12*
%TO.C,SW1*%
X106115000Y-46325000D02*
X120085000Y-46325000D01*
X106115000Y-60295000D02*
X106115000Y-46325000D01*
X120085000Y-46325000D02*
X120085000Y-60295000D01*
X120085000Y-60295000D02*
X106115000Y-60295000D01*
D11*
%TO.C,D21*%
X102325000Y-156412500D02*
X102925000Y-156412500D01*
X102425000Y-156012500D02*
X102625000Y-156312500D01*
X102625000Y-156312500D02*
X102825000Y-156012500D01*
X102625000Y-156662500D02*
X102625000Y-155762500D01*
X102825000Y-156012500D02*
X102425000Y-156012500D01*
X102625000Y-156312500D02*
X102425000Y-156012500D01*
X102825000Y-156012500D01*
X102625000Y-156312500D01*
G36*
X102625000Y-156312500D02*
G01*
X102425000Y-156012500D01*
X102825000Y-156012500D01*
X102625000Y-156312500D01*
G37*
%TO.C,D8*%
X159475000Y-80212500D02*
X160075000Y-80212500D01*
X159575000Y-79812500D02*
X159775000Y-80112500D01*
X159775000Y-80112500D02*
X159975000Y-79812500D01*
X159775000Y-80462500D02*
X159775000Y-79562500D01*
X159975000Y-79812500D02*
X159575000Y-79812500D01*
X159775000Y-80112500D02*
X159575000Y-79812500D01*
X159975000Y-79812500D01*
X159775000Y-80112500D01*
G36*
X159775000Y-80112500D02*
G01*
X159575000Y-79812500D01*
X159975000Y-79812500D01*
X159775000Y-80112500D01*
G37*
D12*
%TO.C,SW6*%
X125165000Y-65375000D02*
X139135000Y-65375000D01*
X125165000Y-79345000D02*
X125165000Y-65375000D01*
X139135000Y-65375000D02*
X139135000Y-79345000D01*
X139135000Y-79345000D02*
X125165000Y-79345000D01*
D11*
%TO.C,D16*%
X159475000Y-118312500D02*
X160075000Y-118312500D01*
X159575000Y-117912500D02*
X159775000Y-118212500D01*
X159775000Y-118212500D02*
X159975000Y-117912500D01*
X159775000Y-118562500D02*
X159775000Y-117662500D01*
X159975000Y-117912500D02*
X159575000Y-117912500D01*
X159775000Y-118212500D02*
X159575000Y-117912500D01*
X159975000Y-117912500D01*
X159775000Y-118212500D01*
G36*
X159775000Y-118212500D02*
G01*
X159575000Y-117912500D01*
X159975000Y-117912500D01*
X159775000Y-118212500D01*
G37*
%TO.C,D7*%
X140425000Y-80212500D02*
X141025000Y-80212500D01*
X140525000Y-79812500D02*
X140725000Y-80112500D01*
X140725000Y-80112500D02*
X140925000Y-79812500D01*
X140725000Y-80462500D02*
X140725000Y-79562500D01*
X140925000Y-79812500D02*
X140525000Y-79812500D01*
X140725000Y-80112500D02*
X140525000Y-79812500D01*
X140925000Y-79812500D01*
X140725000Y-80112500D01*
G36*
X140725000Y-80112500D02*
G01*
X140525000Y-79812500D01*
X140925000Y-79812500D01*
X140725000Y-80112500D01*
G37*
D12*
%TO.C,SW8*%
X163265000Y-65375000D02*
X177235000Y-65375000D01*
X163265000Y-79345000D02*
X163265000Y-65375000D01*
X177235000Y-65375000D02*
X177235000Y-79345000D01*
X177235000Y-79345000D02*
X163265000Y-79345000D01*
D11*
%TO.C,D11*%
X140425000Y-99262500D02*
X141025000Y-99262500D01*
X140525000Y-98862500D02*
X140725000Y-99162500D01*
X140725000Y-99162500D02*
X140925000Y-98862500D01*
X140725000Y-99512500D02*
X140725000Y-98612500D01*
X140925000Y-98862500D02*
X140525000Y-98862500D01*
X140725000Y-99162500D02*
X140525000Y-98862500D01*
X140925000Y-98862500D01*
X140725000Y-99162500D01*
G36*
X140725000Y-99162500D02*
G01*
X140525000Y-98862500D01*
X140925000Y-98862500D01*
X140725000Y-99162500D01*
G37*
D12*
%TO.C,SW14*%
X125165000Y-103475000D02*
X139135000Y-103475000D01*
X125165000Y-117445000D02*
X125165000Y-103475000D01*
X139135000Y-103475000D02*
X139135000Y-117445000D01*
X139135000Y-117445000D02*
X125165000Y-117445000D01*
D11*
%TO.C,D20*%
X159475000Y-137362500D02*
X160075000Y-137362500D01*
X159575000Y-136962500D02*
X159775000Y-137262500D01*
X159775000Y-137262500D02*
X159975000Y-136962500D01*
X159775000Y-137612500D02*
X159775000Y-136712500D01*
X159975000Y-136962500D02*
X159575000Y-136962500D01*
X159775000Y-137262500D02*
X159575000Y-136962500D01*
X159975000Y-136962500D01*
X159775000Y-137262500D01*
G36*
X159775000Y-137262500D02*
G01*
X159575000Y-136962500D01*
X159975000Y-136962500D01*
X159775000Y-137262500D01*
G37*
%TO.C,D2*%
X121375000Y-61162500D02*
X121975000Y-61162500D01*
X121475000Y-60762500D02*
X121675000Y-61062500D01*
X121675000Y-61062500D02*
X121875000Y-60762500D01*
X121675000Y-61412500D02*
X121675000Y-60512500D01*
X121875000Y-60762500D02*
X121475000Y-60762500D01*
X121675000Y-61062500D02*
X121475000Y-60762500D01*
X121875000Y-60762500D01*
X121675000Y-61062500D01*
G36*
X121675000Y-61062500D02*
G01*
X121475000Y-60762500D01*
X121875000Y-60762500D01*
X121675000Y-61062500D01*
G37*
D12*
%TO.C,SW16*%
X163265000Y-103475000D02*
X177235000Y-103475000D01*
X163265000Y-117445000D02*
X163265000Y-103475000D01*
X177235000Y-103475000D02*
X177235000Y-117445000D01*
X177235000Y-117445000D02*
X163265000Y-117445000D01*
%TO.C,SW18*%
X125165000Y-122525000D02*
X139135000Y-122525000D01*
X125165000Y-136495000D02*
X125165000Y-122525000D01*
X139135000Y-122525000D02*
X139135000Y-136495000D01*
X139135000Y-136495000D02*
X125165000Y-136495000D01*
%TO.C,SW19*%
X144215000Y-122525000D02*
X158185000Y-122525000D01*
X144215000Y-136495000D02*
X144215000Y-122525000D01*
X158185000Y-122525000D02*
X158185000Y-136495000D01*
X158185000Y-136495000D02*
X144215000Y-136495000D01*
D11*
%TO.C,D17*%
X102325000Y-137362500D02*
X102925000Y-137362500D01*
X102425000Y-136962500D02*
X102625000Y-137262500D01*
X102625000Y-137262500D02*
X102825000Y-136962500D01*
X102625000Y-137612500D02*
X102625000Y-136712500D01*
X102825000Y-136962500D02*
X102425000Y-136962500D01*
X102625000Y-137262500D02*
X102425000Y-136962500D01*
X102825000Y-136962500D01*
X102625000Y-137262500D01*
G36*
X102625000Y-137262500D02*
G01*
X102425000Y-136962500D01*
X102825000Y-136962500D01*
X102625000Y-137262500D01*
G37*
%TO.C,D14*%
X121375000Y-118312500D02*
X121975000Y-118312500D01*
X121475000Y-117912500D02*
X121675000Y-118212500D01*
X121675000Y-118212500D02*
X121875000Y-117912500D01*
X121675000Y-118562500D02*
X121675000Y-117662500D01*
X121875000Y-117912500D02*
X121475000Y-117912500D01*
X121675000Y-118212500D02*
X121475000Y-117912500D01*
X121875000Y-117912500D01*
X121675000Y-118212500D01*
G36*
X121675000Y-118212500D02*
G01*
X121475000Y-117912500D01*
X121875000Y-117912500D01*
X121675000Y-118212500D01*
G37*
%TO.C,D18*%
X121375000Y-137362500D02*
X121975000Y-137362500D01*
X121475000Y-136962500D02*
X121675000Y-137262500D01*
X121675000Y-137262500D02*
X121875000Y-136962500D01*
X121675000Y-137612500D02*
X121675000Y-136712500D01*
X121875000Y-136962500D02*
X121475000Y-136962500D01*
X121675000Y-137262500D02*
X121475000Y-136962500D01*
X121875000Y-136962500D01*
X121675000Y-137262500D01*
G36*
X121675000Y-137262500D02*
G01*
X121475000Y-136962500D01*
X121875000Y-136962500D01*
X121675000Y-137262500D01*
G37*
%TO.C,D1*%
X102325000Y-61162500D02*
X102925000Y-61162500D01*
X102425000Y-60762500D02*
X102625000Y-61062500D01*
X102625000Y-61062500D02*
X102825000Y-60762500D01*
X102625000Y-61412500D02*
X102625000Y-60512500D01*
X102825000Y-60762500D02*
X102425000Y-60762500D01*
X102625000Y-61062500D02*
X102425000Y-60762500D01*
X102825000Y-60762500D01*
X102625000Y-61062500D01*
G36*
X102625000Y-61062500D02*
G01*
X102425000Y-60762500D01*
X102825000Y-60762500D01*
X102625000Y-61062500D01*
G37*
D12*
%TO.C,SW13*%
X106115000Y-103475000D02*
X120085000Y-103475000D01*
X106115000Y-117445000D02*
X106115000Y-103475000D01*
X120085000Y-103475000D02*
X120085000Y-117445000D01*
X120085000Y-117445000D02*
X106115000Y-117445000D01*
%TO.C,SW22*%
X125165000Y-141575000D02*
X139135000Y-141575000D01*
X125165000Y-155545000D02*
X125165000Y-141575000D01*
X139135000Y-141575000D02*
X139135000Y-155545000D01*
X139135000Y-155545000D02*
X125165000Y-155545000D01*
%TO.C,BT1*%
X96440000Y-42440000D02*
X96440000Y-44560000D01*
X98500000Y-42440000D02*
X96440000Y-42440000D01*
X98500000Y-42440000D02*
X98500000Y-44560000D01*
X98500000Y-44560000D02*
X96440000Y-44560000D01*
X99500000Y-42440000D02*
X100560000Y-42440000D01*
X100560000Y-42440000D02*
X100560000Y-43500000D01*
%TO.C,SW11*%
X144215000Y-84425000D02*
X158185000Y-84425000D01*
X144215000Y-98395000D02*
X144215000Y-84425000D01*
X158185000Y-84425000D02*
X158185000Y-98395000D01*
X158185000Y-98395000D02*
X144215000Y-98395000D01*
D14*
%TO.C,U1*%
X84115000Y-90385000D02*
X84115000Y-128385000D01*
X84115000Y-95385000D02*
X96115000Y-95385000D01*
X84115000Y-124885000D02*
X96115000Y-124885000D01*
X84115000Y-128385000D02*
X96115000Y-128385000D01*
X96115000Y-90385000D02*
X84115000Y-90385000D01*
X96115000Y-128385000D02*
X96115000Y-90385000D01*
D11*
%TO.C,D19*%
X140425000Y-137362500D02*
X141025000Y-137362500D01*
X140525000Y-136962500D02*
X140725000Y-137262500D01*
X140725000Y-137262500D02*
X140925000Y-136962500D01*
X140725000Y-137612500D02*
X140725000Y-136712500D01*
X140925000Y-136962500D02*
X140525000Y-136962500D01*
X140725000Y-137262500D02*
X140525000Y-136962500D01*
X140925000Y-136962500D01*
X140725000Y-137262500D01*
G36*
X140725000Y-137262500D02*
G01*
X140525000Y-136962500D01*
X140925000Y-136962500D01*
X140725000Y-137262500D01*
G37*
D12*
%TO.C,SW5*%
X106115000Y-65375000D02*
X120085000Y-65375000D01*
X106115000Y-79345000D02*
X106115000Y-65375000D01*
X120085000Y-65375000D02*
X120085000Y-79345000D01*
X120085000Y-79345000D02*
X106115000Y-79345000D01*
%TO.C,SW2*%
X125165000Y-46325000D02*
X139135000Y-46325000D01*
X125165000Y-60295000D02*
X125165000Y-46325000D01*
X139135000Y-46325000D02*
X139135000Y-60295000D01*
X139135000Y-60295000D02*
X125165000Y-60295000D01*
D11*
%TO.C,D4*%
X159475000Y-61162500D02*
X160075000Y-61162500D01*
X159575000Y-60762500D02*
X159775000Y-61062500D01*
X159775000Y-61062500D02*
X159975000Y-60762500D01*
X159775000Y-61412500D02*
X159775000Y-60512500D01*
X159975000Y-60762500D02*
X159575000Y-60762500D01*
X159775000Y-61062500D02*
X159575000Y-60762500D01*
X159975000Y-60762500D01*
X159775000Y-61062500D01*
G36*
X159775000Y-61062500D02*
G01*
X159575000Y-60762500D01*
X159975000Y-60762500D01*
X159775000Y-61062500D01*
G37*
%TO.C,D13*%
X102325000Y-118312500D02*
X102925000Y-118312500D01*
X102425000Y-117912500D02*
X102625000Y-118212500D01*
X102625000Y-118212500D02*
X102825000Y-117912500D01*
X102625000Y-118562500D02*
X102625000Y-117662500D01*
X102825000Y-117912500D02*
X102425000Y-117912500D01*
X102625000Y-118212500D02*
X102425000Y-117912500D01*
X102825000Y-117912500D01*
X102625000Y-118212500D01*
G36*
X102625000Y-118212500D02*
G01*
X102425000Y-117912500D01*
X102825000Y-117912500D01*
X102625000Y-118212500D01*
G37*
D12*
%TO.C,SW24*%
X163265000Y-141575000D02*
X177235000Y-141575000D01*
X163265000Y-155545000D02*
X163265000Y-141575000D01*
X177235000Y-141575000D02*
X177235000Y-155545000D01*
X177235000Y-155545000D02*
X163265000Y-155545000D01*
%TO.C,R2*%
X94145000Y-107276263D02*
X94145000Y-108723737D01*
X96855000Y-107276263D02*
X96855000Y-108723737D01*
D11*
%TO.C,D12*%
X159475000Y-99262500D02*
X160075000Y-99262500D01*
X159575000Y-98862500D02*
X159775000Y-99162500D01*
X159775000Y-99162500D02*
X159975000Y-98862500D01*
X159775000Y-99512500D02*
X159775000Y-98612500D01*
X159975000Y-98862500D02*
X159575000Y-98862500D01*
X159775000Y-99162500D02*
X159575000Y-98862500D01*
X159975000Y-98862500D01*
X159775000Y-99162500D01*
G36*
X159775000Y-99162500D02*
G01*
X159575000Y-98862500D01*
X159975000Y-98862500D01*
X159775000Y-99162500D01*
G37*
D12*
%TO.C,SW3*%
X144215000Y-46325000D02*
X158185000Y-46325000D01*
X144215000Y-60295000D02*
X144215000Y-46325000D01*
X158185000Y-46325000D02*
X158185000Y-60295000D01*
X158185000Y-60295000D02*
X144215000Y-60295000D01*
%TO.C,U2*%
X81103000Y-47690000D02*
X81100000Y-80710000D01*
X81103000Y-80710000D02*
X96470000Y-80710000D01*
X83770000Y-50230000D02*
X81100000Y-50230000D01*
X83770000Y-52770000D02*
X81100000Y-52770000D01*
X83770000Y-80710000D02*
X81100000Y-80710000D01*
X83770000Y-80710000D02*
X83770000Y-50230000D01*
X86183000Y-45150000D02*
X86183000Y-47690000D01*
X86183000Y-47690000D02*
X81103000Y-47690000D01*
X94057000Y-45150000D02*
X86183000Y-45150000D01*
X94057000Y-45150000D02*
X94057000Y-47690000D01*
X96470000Y-50230000D02*
X99140000Y-50230000D01*
X96470000Y-78170000D02*
X96470000Y-50230000D01*
X96470000Y-78170000D02*
X96470000Y-80710000D01*
X96470000Y-80710000D02*
X99137000Y-80710000D01*
X99137000Y-47690000D02*
X94057000Y-47690000D01*
X99137000Y-80710000D02*
X99137000Y-47690000D01*
%TD*%
M02*
