%TF.GenerationSoftware,KiCad,Pcbnew,(5.1.10)-1*%
%TF.CreationDate,2021-07-06T12:32:42-04:00*%
%TF.ProjectId,MacroPad,4d616372-6f50-4616-942e-6b696361645f,rev?*%
%TF.SameCoordinates,Original*%
%TF.FileFunction,Other,Fab,Top*%
%FSLAX46Y46*%
G04 Gerber Fmt 4.6, Leading zero omitted, Abs format (unit mm)*
G04 Created by KiCad (PCBNEW (5.1.10)-1) date 2021-07-06 12:32:42*
%MOMM*%
%LPD*%
G01*
G04 APERTURE LIST*
%ADD10C,0.150000*%
%ADD11C,0.100000*%
G04 APERTURE END LIST*
D10*
X114729047Y-79637380D02*
X114729047Y-78637380D01*
X115062380Y-79351666D01*
X115395714Y-78637380D01*
X115395714Y-79637380D01*
X116300476Y-79637380D02*
X116300476Y-79113571D01*
X116252857Y-79018333D01*
X116157619Y-78970714D01*
X115967142Y-78970714D01*
X115871904Y-79018333D01*
X116300476Y-79589761D02*
X116205238Y-79637380D01*
X115967142Y-79637380D01*
X115871904Y-79589761D01*
X115824285Y-79494523D01*
X115824285Y-79399285D01*
X115871904Y-79304047D01*
X115967142Y-79256428D01*
X116205238Y-79256428D01*
X116300476Y-79208809D01*
X117205238Y-79589761D02*
X117110000Y-79637380D01*
X116919523Y-79637380D01*
X116824285Y-79589761D01*
X116776666Y-79542142D01*
X116729047Y-79446904D01*
X116729047Y-79161190D01*
X116776666Y-79065952D01*
X116824285Y-79018333D01*
X116919523Y-78970714D01*
X117110000Y-78970714D01*
X117205238Y-79018333D01*
X117633809Y-79637380D02*
X117633809Y-78970714D01*
X117633809Y-79161190D02*
X117681428Y-79065952D01*
X117729047Y-79018333D01*
X117824285Y-78970714D01*
X117919523Y-78970714D01*
X118395714Y-79637380D02*
X118300476Y-79589761D01*
X118252857Y-79542142D01*
X118205238Y-79446904D01*
X118205238Y-79161190D01*
X118252857Y-79065952D01*
X118300476Y-79018333D01*
X118395714Y-78970714D01*
X118538571Y-78970714D01*
X118633809Y-79018333D01*
X118681428Y-79065952D01*
X118729047Y-79161190D01*
X118729047Y-79446904D01*
X118681428Y-79542142D01*
X118633809Y-79589761D01*
X118538571Y-79637380D01*
X118395714Y-79637380D01*
X119157619Y-79637380D02*
X119157619Y-78637380D01*
X119538571Y-78637380D01*
X119633809Y-78685000D01*
X119681428Y-78732619D01*
X119729047Y-78827857D01*
X119729047Y-78970714D01*
X119681428Y-79065952D01*
X119633809Y-79113571D01*
X119538571Y-79161190D01*
X119157619Y-79161190D01*
X120586190Y-79637380D02*
X120586190Y-79113571D01*
X120538571Y-79018333D01*
X120443333Y-78970714D01*
X120252857Y-78970714D01*
X120157619Y-79018333D01*
X120586190Y-79589761D02*
X120490952Y-79637380D01*
X120252857Y-79637380D01*
X120157619Y-79589761D01*
X120110000Y-79494523D01*
X120110000Y-79399285D01*
X120157619Y-79304047D01*
X120252857Y-79256428D01*
X120490952Y-79256428D01*
X120586190Y-79208809D01*
X121490952Y-79637380D02*
X121490952Y-78637380D01*
X121490952Y-79589761D02*
X121395714Y-79637380D01*
X121205238Y-79637380D01*
X121110000Y-79589761D01*
X121062380Y-79542142D01*
X121014761Y-79446904D01*
X121014761Y-79161190D01*
X121062380Y-79065952D01*
X121110000Y-79018333D01*
X121205238Y-78970714D01*
X121395714Y-78970714D01*
X121490952Y-79018333D01*
X115252857Y-80287380D02*
X115252857Y-81001666D01*
X115205238Y-81144523D01*
X115110000Y-81239761D01*
X114967142Y-81287380D01*
X114871904Y-81287380D01*
X115871904Y-81287380D02*
X115776666Y-81239761D01*
X115729047Y-81192142D01*
X115681428Y-81096904D01*
X115681428Y-80811190D01*
X115729047Y-80715952D01*
X115776666Y-80668333D01*
X115871904Y-80620714D01*
X116014761Y-80620714D01*
X116110000Y-80668333D01*
X116157619Y-80715952D01*
X116205238Y-80811190D01*
X116205238Y-81096904D01*
X116157619Y-81192142D01*
X116110000Y-81239761D01*
X116014761Y-81287380D01*
X115871904Y-81287380D01*
X116633809Y-80620714D02*
X116633809Y-81287380D01*
X116633809Y-80715952D02*
X116681428Y-80668333D01*
X116776666Y-80620714D01*
X116919523Y-80620714D01*
X117014761Y-80668333D01*
X117062380Y-80763571D01*
X117062380Y-81287380D01*
X117967142Y-81287380D02*
X117967142Y-80763571D01*
X117919523Y-80668333D01*
X117824285Y-80620714D01*
X117633809Y-80620714D01*
X117538571Y-80668333D01*
X117967142Y-81239761D02*
X117871904Y-81287380D01*
X117633809Y-81287380D01*
X117538571Y-81239761D01*
X117490952Y-81144523D01*
X117490952Y-81049285D01*
X117538571Y-80954047D01*
X117633809Y-80906428D01*
X117871904Y-80906428D01*
X117967142Y-80858809D01*
X118300476Y-80620714D02*
X118681428Y-80620714D01*
X118443333Y-80287380D02*
X118443333Y-81144523D01*
X118490952Y-81239761D01*
X118586190Y-81287380D01*
X118681428Y-81287380D01*
X119014761Y-81287380D02*
X119014761Y-80287380D01*
X119443333Y-81287380D02*
X119443333Y-80763571D01*
X119395714Y-80668333D01*
X119300476Y-80620714D01*
X119157619Y-80620714D01*
X119062380Y-80668333D01*
X119014761Y-80715952D01*
X120348095Y-81287380D02*
X120348095Y-80763571D01*
X120300476Y-80668333D01*
X120205238Y-80620714D01*
X120014761Y-80620714D01*
X119919523Y-80668333D01*
X120348095Y-81239761D02*
X120252857Y-81287380D01*
X120014761Y-81287380D01*
X119919523Y-81239761D01*
X119871904Y-81144523D01*
X119871904Y-81049285D01*
X119919523Y-80954047D01*
X120014761Y-80906428D01*
X120252857Y-80906428D01*
X120348095Y-80858809D01*
X120824285Y-80620714D02*
X120824285Y-81287380D01*
X120824285Y-80715952D02*
X120871904Y-80668333D01*
X120967142Y-80620714D01*
X121109999Y-80620714D01*
X121205238Y-80668333D01*
X121252857Y-80763571D01*
X121252857Y-81287380D01*
D11*
%TO.C,SW1*%
X137160000Y-88900000D02*
X137160000Y-76200000D01*
X149860000Y-88900000D02*
X137160000Y-88900000D01*
X149860000Y-76200000D02*
X149860000Y-88900000D01*
X137160000Y-76200000D02*
X149860000Y-76200000D01*
%TO.C,SW2*%
X129040000Y-77740000D02*
X130540000Y-77740000D01*
X130540000Y-77740000D02*
X130540000Y-87740000D01*
X130540000Y-87740000D02*
X128540000Y-87740000D01*
X128540000Y-87740000D02*
X128540000Y-78240000D01*
X128540000Y-78240000D02*
X129040000Y-77740000D01*
%TO.C,SW3*%
X157480000Y-76200000D02*
X170180000Y-76200000D01*
X170180000Y-76200000D02*
X170180000Y-88900000D01*
X170180000Y-88900000D02*
X157480000Y-88900000D01*
X157480000Y-88900000D02*
X157480000Y-76200000D01*
%TO.C,SW4*%
X177800000Y-88900000D02*
X177800000Y-76200000D01*
X190500000Y-88900000D02*
X177800000Y-88900000D01*
X190500000Y-76200000D02*
X190500000Y-88900000D01*
X177800000Y-76200000D02*
X190500000Y-76200000D01*
%TO.C,SW5*%
X198120000Y-76200000D02*
X210820000Y-76200000D01*
X210820000Y-76200000D02*
X210820000Y-88900000D01*
X210820000Y-88900000D02*
X198120000Y-88900000D01*
X198120000Y-88900000D02*
X198120000Y-76200000D01*
%TD*%
%TO.C,SW1*%
D10*
X140462380Y-90828761D02*
X140605238Y-90876380D01*
X140843333Y-90876380D01*
X140938571Y-90828761D01*
X140986190Y-90781142D01*
X141033809Y-90685904D01*
X141033809Y-90590666D01*
X140986190Y-90495428D01*
X140938571Y-90447809D01*
X140843333Y-90400190D01*
X140652857Y-90352571D01*
X140557619Y-90304952D01*
X140510000Y-90257333D01*
X140462380Y-90162095D01*
X140462380Y-90066857D01*
X140510000Y-89971619D01*
X140557619Y-89924000D01*
X140652857Y-89876380D01*
X140890952Y-89876380D01*
X141033809Y-89924000D01*
X141367142Y-89876380D02*
X141605238Y-90876380D01*
X141795714Y-90162095D01*
X141986190Y-90876380D01*
X142224285Y-89876380D01*
X142367142Y-90971619D02*
X143129047Y-90971619D01*
X143367142Y-90876380D02*
X143367142Y-89876380D01*
X143748095Y-89876380D01*
X143843333Y-89924000D01*
X143890952Y-89971619D01*
X143938571Y-90066857D01*
X143938571Y-90209714D01*
X143890952Y-90304952D01*
X143843333Y-90352571D01*
X143748095Y-90400190D01*
X143367142Y-90400190D01*
X144795714Y-90209714D02*
X144795714Y-90876380D01*
X144367142Y-90209714D02*
X144367142Y-90733523D01*
X144414761Y-90828761D01*
X144510000Y-90876380D01*
X144652857Y-90876380D01*
X144748095Y-90828761D01*
X144795714Y-90781142D01*
X145224285Y-90828761D02*
X145319523Y-90876380D01*
X145510000Y-90876380D01*
X145605238Y-90828761D01*
X145652857Y-90733523D01*
X145652857Y-90685904D01*
X145605238Y-90590666D01*
X145510000Y-90543047D01*
X145367142Y-90543047D01*
X145271904Y-90495428D01*
X145224285Y-90400190D01*
X145224285Y-90352571D01*
X145271904Y-90257333D01*
X145367142Y-90209714D01*
X145510000Y-90209714D01*
X145605238Y-90257333D01*
X146081428Y-90876380D02*
X146081428Y-89876380D01*
X146510000Y-90876380D02*
X146510000Y-90352571D01*
X146462380Y-90257333D01*
X146367142Y-90209714D01*
X146224285Y-90209714D01*
X146129047Y-90257333D01*
X146081428Y-90304952D01*
X142176666Y-75080761D02*
X142319523Y-75128380D01*
X142557619Y-75128380D01*
X142652857Y-75080761D01*
X142700476Y-75033142D01*
X142748095Y-74937904D01*
X142748095Y-74842666D01*
X142700476Y-74747428D01*
X142652857Y-74699809D01*
X142557619Y-74652190D01*
X142367142Y-74604571D01*
X142271904Y-74556952D01*
X142224285Y-74509333D01*
X142176666Y-74414095D01*
X142176666Y-74318857D01*
X142224285Y-74223619D01*
X142271904Y-74176000D01*
X142367142Y-74128380D01*
X142605238Y-74128380D01*
X142748095Y-74176000D01*
X143081428Y-74128380D02*
X143319523Y-75128380D01*
X143510000Y-74414095D01*
X143700476Y-75128380D01*
X143938571Y-74128380D01*
X144843333Y-75128380D02*
X144271904Y-75128380D01*
X144557619Y-75128380D02*
X144557619Y-74128380D01*
X144462380Y-74271238D01*
X144367142Y-74366476D01*
X144271904Y-74414095D01*
%TO.C,SW2*%
X114586190Y-89304761D02*
X114729047Y-89352380D01*
X114967142Y-89352380D01*
X115062380Y-89304761D01*
X115110000Y-89257142D01*
X115157619Y-89161904D01*
X115157619Y-89066666D01*
X115110000Y-88971428D01*
X115062380Y-88923809D01*
X114967142Y-88876190D01*
X114776666Y-88828571D01*
X114681428Y-88780952D01*
X114633809Y-88733333D01*
X114586190Y-88638095D01*
X114586190Y-88542857D01*
X114633809Y-88447619D01*
X114681428Y-88400000D01*
X114776666Y-88352380D01*
X115014761Y-88352380D01*
X115157619Y-88400000D01*
X115490952Y-88352380D02*
X115729047Y-89352380D01*
X115919523Y-88638095D01*
X116110000Y-89352380D01*
X116348095Y-88352380D01*
X116490952Y-89447619D02*
X117252857Y-89447619D01*
X118062380Y-89257142D02*
X118014761Y-89304761D01*
X117871904Y-89352380D01*
X117776666Y-89352380D01*
X117633809Y-89304761D01*
X117538571Y-89209523D01*
X117490952Y-89114285D01*
X117443333Y-88923809D01*
X117443333Y-88780952D01*
X117490952Y-88590476D01*
X117538571Y-88495238D01*
X117633809Y-88400000D01*
X117776666Y-88352380D01*
X117871904Y-88352380D01*
X118014761Y-88400000D01*
X118062380Y-88447619D01*
X118633809Y-89352380D02*
X118538571Y-89304761D01*
X118490952Y-89257142D01*
X118443333Y-89161904D01*
X118443333Y-88876190D01*
X118490952Y-88780952D01*
X118538571Y-88733333D01*
X118633809Y-88685714D01*
X118776666Y-88685714D01*
X118871904Y-88733333D01*
X118919523Y-88780952D01*
X118967142Y-88876190D01*
X118967142Y-89161904D01*
X118919523Y-89257142D01*
X118871904Y-89304761D01*
X118776666Y-89352380D01*
X118633809Y-89352380D01*
X119824285Y-89352380D02*
X119824285Y-88352380D01*
X119824285Y-89304761D02*
X119729047Y-89352380D01*
X119538571Y-89352380D01*
X119443333Y-89304761D01*
X119395714Y-89257142D01*
X119348095Y-89161904D01*
X119348095Y-88876190D01*
X119395714Y-88780952D01*
X119443333Y-88733333D01*
X119538571Y-88685714D01*
X119729047Y-88685714D01*
X119824285Y-88733333D01*
X120681428Y-89304761D02*
X120586190Y-89352380D01*
X120395714Y-89352380D01*
X120300476Y-89304761D01*
X120252857Y-89209523D01*
X120252857Y-88828571D01*
X120300476Y-88733333D01*
X120395714Y-88685714D01*
X120586190Y-88685714D01*
X120681428Y-88733333D01*
X120729047Y-88828571D01*
X120729047Y-88923809D01*
X120252857Y-89019047D01*
X121586190Y-89352380D02*
X121586190Y-88352380D01*
X121586190Y-89304761D02*
X121490952Y-89352380D01*
X121300476Y-89352380D01*
X121205238Y-89304761D01*
X121157619Y-89257142D01*
X121110000Y-89161904D01*
X121110000Y-88876190D01*
X121157619Y-88780952D01*
X121205238Y-88733333D01*
X121300476Y-88685714D01*
X121490952Y-88685714D01*
X121586190Y-88733333D01*
X129944761Y-84073333D02*
X129992380Y-83930476D01*
X129992380Y-83692380D01*
X129944761Y-83597142D01*
X129897142Y-83549523D01*
X129801904Y-83501904D01*
X129706666Y-83501904D01*
X129611428Y-83549523D01*
X129563809Y-83597142D01*
X129516190Y-83692380D01*
X129468571Y-83882857D01*
X129420952Y-83978095D01*
X129373333Y-84025714D01*
X129278095Y-84073333D01*
X129182857Y-84073333D01*
X129087619Y-84025714D01*
X129040000Y-83978095D01*
X128992380Y-83882857D01*
X128992380Y-83644761D01*
X129040000Y-83501904D01*
X128992380Y-83168571D02*
X129992380Y-82930476D01*
X129278095Y-82740000D01*
X129992380Y-82549523D01*
X128992380Y-82311428D01*
X129087619Y-81978095D02*
X129040000Y-81930476D01*
X128992380Y-81835238D01*
X128992380Y-81597142D01*
X129040000Y-81501904D01*
X129087619Y-81454285D01*
X129182857Y-81406666D01*
X129278095Y-81406666D01*
X129420952Y-81454285D01*
X129992380Y-82025714D01*
X129992380Y-81406666D01*
%TO.C,SW3*%
X160782380Y-90828761D02*
X160925238Y-90876380D01*
X161163333Y-90876380D01*
X161258571Y-90828761D01*
X161306190Y-90781142D01*
X161353809Y-90685904D01*
X161353809Y-90590666D01*
X161306190Y-90495428D01*
X161258571Y-90447809D01*
X161163333Y-90400190D01*
X160972857Y-90352571D01*
X160877619Y-90304952D01*
X160830000Y-90257333D01*
X160782380Y-90162095D01*
X160782380Y-90066857D01*
X160830000Y-89971619D01*
X160877619Y-89924000D01*
X160972857Y-89876380D01*
X161210952Y-89876380D01*
X161353809Y-89924000D01*
X161687142Y-89876380D02*
X161925238Y-90876380D01*
X162115714Y-90162095D01*
X162306190Y-90876380D01*
X162544285Y-89876380D01*
X162687142Y-90971619D02*
X163449047Y-90971619D01*
X163687142Y-90876380D02*
X163687142Y-89876380D01*
X164068095Y-89876380D01*
X164163333Y-89924000D01*
X164210952Y-89971619D01*
X164258571Y-90066857D01*
X164258571Y-90209714D01*
X164210952Y-90304952D01*
X164163333Y-90352571D01*
X164068095Y-90400190D01*
X163687142Y-90400190D01*
X165115714Y-90209714D02*
X165115714Y-90876380D01*
X164687142Y-90209714D02*
X164687142Y-90733523D01*
X164734761Y-90828761D01*
X164830000Y-90876380D01*
X164972857Y-90876380D01*
X165068095Y-90828761D01*
X165115714Y-90781142D01*
X165544285Y-90828761D02*
X165639523Y-90876380D01*
X165830000Y-90876380D01*
X165925238Y-90828761D01*
X165972857Y-90733523D01*
X165972857Y-90685904D01*
X165925238Y-90590666D01*
X165830000Y-90543047D01*
X165687142Y-90543047D01*
X165591904Y-90495428D01*
X165544285Y-90400190D01*
X165544285Y-90352571D01*
X165591904Y-90257333D01*
X165687142Y-90209714D01*
X165830000Y-90209714D01*
X165925238Y-90257333D01*
X166401428Y-90876380D02*
X166401428Y-89876380D01*
X166830000Y-90876380D02*
X166830000Y-90352571D01*
X166782380Y-90257333D01*
X166687142Y-90209714D01*
X166544285Y-90209714D01*
X166449047Y-90257333D01*
X166401428Y-90304952D01*
X162496666Y-75080761D02*
X162639523Y-75128380D01*
X162877619Y-75128380D01*
X162972857Y-75080761D01*
X163020476Y-75033142D01*
X163068095Y-74937904D01*
X163068095Y-74842666D01*
X163020476Y-74747428D01*
X162972857Y-74699809D01*
X162877619Y-74652190D01*
X162687142Y-74604571D01*
X162591904Y-74556952D01*
X162544285Y-74509333D01*
X162496666Y-74414095D01*
X162496666Y-74318857D01*
X162544285Y-74223619D01*
X162591904Y-74176000D01*
X162687142Y-74128380D01*
X162925238Y-74128380D01*
X163068095Y-74176000D01*
X163401428Y-74128380D02*
X163639523Y-75128380D01*
X163830000Y-74414095D01*
X164020476Y-75128380D01*
X164258571Y-74128380D01*
X164544285Y-74128380D02*
X165163333Y-74128380D01*
X164830000Y-74509333D01*
X164972857Y-74509333D01*
X165068095Y-74556952D01*
X165115714Y-74604571D01*
X165163333Y-74699809D01*
X165163333Y-74937904D01*
X165115714Y-75033142D01*
X165068095Y-75080761D01*
X164972857Y-75128380D01*
X164687142Y-75128380D01*
X164591904Y-75080761D01*
X164544285Y-75033142D01*
%TO.C,SW4*%
X181102380Y-90828761D02*
X181245238Y-90876380D01*
X181483333Y-90876380D01*
X181578571Y-90828761D01*
X181626190Y-90781142D01*
X181673809Y-90685904D01*
X181673809Y-90590666D01*
X181626190Y-90495428D01*
X181578571Y-90447809D01*
X181483333Y-90400190D01*
X181292857Y-90352571D01*
X181197619Y-90304952D01*
X181150000Y-90257333D01*
X181102380Y-90162095D01*
X181102380Y-90066857D01*
X181150000Y-89971619D01*
X181197619Y-89924000D01*
X181292857Y-89876380D01*
X181530952Y-89876380D01*
X181673809Y-89924000D01*
X182007142Y-89876380D02*
X182245238Y-90876380D01*
X182435714Y-90162095D01*
X182626190Y-90876380D01*
X182864285Y-89876380D01*
X183007142Y-90971619D02*
X183769047Y-90971619D01*
X184007142Y-90876380D02*
X184007142Y-89876380D01*
X184388095Y-89876380D01*
X184483333Y-89924000D01*
X184530952Y-89971619D01*
X184578571Y-90066857D01*
X184578571Y-90209714D01*
X184530952Y-90304952D01*
X184483333Y-90352571D01*
X184388095Y-90400190D01*
X184007142Y-90400190D01*
X185435714Y-90209714D02*
X185435714Y-90876380D01*
X185007142Y-90209714D02*
X185007142Y-90733523D01*
X185054761Y-90828761D01*
X185150000Y-90876380D01*
X185292857Y-90876380D01*
X185388095Y-90828761D01*
X185435714Y-90781142D01*
X185864285Y-90828761D02*
X185959523Y-90876380D01*
X186150000Y-90876380D01*
X186245238Y-90828761D01*
X186292857Y-90733523D01*
X186292857Y-90685904D01*
X186245238Y-90590666D01*
X186150000Y-90543047D01*
X186007142Y-90543047D01*
X185911904Y-90495428D01*
X185864285Y-90400190D01*
X185864285Y-90352571D01*
X185911904Y-90257333D01*
X186007142Y-90209714D01*
X186150000Y-90209714D01*
X186245238Y-90257333D01*
X186721428Y-90876380D02*
X186721428Y-89876380D01*
X187150000Y-90876380D02*
X187150000Y-90352571D01*
X187102380Y-90257333D01*
X187007142Y-90209714D01*
X186864285Y-90209714D01*
X186769047Y-90257333D01*
X186721428Y-90304952D01*
X182816666Y-75080761D02*
X182959523Y-75128380D01*
X183197619Y-75128380D01*
X183292857Y-75080761D01*
X183340476Y-75033142D01*
X183388095Y-74937904D01*
X183388095Y-74842666D01*
X183340476Y-74747428D01*
X183292857Y-74699809D01*
X183197619Y-74652190D01*
X183007142Y-74604571D01*
X182911904Y-74556952D01*
X182864285Y-74509333D01*
X182816666Y-74414095D01*
X182816666Y-74318857D01*
X182864285Y-74223619D01*
X182911904Y-74176000D01*
X183007142Y-74128380D01*
X183245238Y-74128380D01*
X183388095Y-74176000D01*
X183721428Y-74128380D02*
X183959523Y-75128380D01*
X184150000Y-74414095D01*
X184340476Y-75128380D01*
X184578571Y-74128380D01*
X185388095Y-74461714D02*
X185388095Y-75128380D01*
X185150000Y-74080761D02*
X184911904Y-74795047D01*
X185530952Y-74795047D01*
%TO.C,SW5*%
X201422380Y-90828761D02*
X201565238Y-90876380D01*
X201803333Y-90876380D01*
X201898571Y-90828761D01*
X201946190Y-90781142D01*
X201993809Y-90685904D01*
X201993809Y-90590666D01*
X201946190Y-90495428D01*
X201898571Y-90447809D01*
X201803333Y-90400190D01*
X201612857Y-90352571D01*
X201517619Y-90304952D01*
X201470000Y-90257333D01*
X201422380Y-90162095D01*
X201422380Y-90066857D01*
X201470000Y-89971619D01*
X201517619Y-89924000D01*
X201612857Y-89876380D01*
X201850952Y-89876380D01*
X201993809Y-89924000D01*
X202327142Y-89876380D02*
X202565238Y-90876380D01*
X202755714Y-90162095D01*
X202946190Y-90876380D01*
X203184285Y-89876380D01*
X203327142Y-90971619D02*
X204089047Y-90971619D01*
X204327142Y-90876380D02*
X204327142Y-89876380D01*
X204708095Y-89876380D01*
X204803333Y-89924000D01*
X204850952Y-89971619D01*
X204898571Y-90066857D01*
X204898571Y-90209714D01*
X204850952Y-90304952D01*
X204803333Y-90352571D01*
X204708095Y-90400190D01*
X204327142Y-90400190D01*
X205755714Y-90209714D02*
X205755714Y-90876380D01*
X205327142Y-90209714D02*
X205327142Y-90733523D01*
X205374761Y-90828761D01*
X205470000Y-90876380D01*
X205612857Y-90876380D01*
X205708095Y-90828761D01*
X205755714Y-90781142D01*
X206184285Y-90828761D02*
X206279523Y-90876380D01*
X206470000Y-90876380D01*
X206565238Y-90828761D01*
X206612857Y-90733523D01*
X206612857Y-90685904D01*
X206565238Y-90590666D01*
X206470000Y-90543047D01*
X206327142Y-90543047D01*
X206231904Y-90495428D01*
X206184285Y-90400190D01*
X206184285Y-90352571D01*
X206231904Y-90257333D01*
X206327142Y-90209714D01*
X206470000Y-90209714D01*
X206565238Y-90257333D01*
X207041428Y-90876380D02*
X207041428Y-89876380D01*
X207470000Y-90876380D02*
X207470000Y-90352571D01*
X207422380Y-90257333D01*
X207327142Y-90209714D01*
X207184285Y-90209714D01*
X207089047Y-90257333D01*
X207041428Y-90304952D01*
X203136666Y-75080761D02*
X203279523Y-75128380D01*
X203517619Y-75128380D01*
X203612857Y-75080761D01*
X203660476Y-75033142D01*
X203708095Y-74937904D01*
X203708095Y-74842666D01*
X203660476Y-74747428D01*
X203612857Y-74699809D01*
X203517619Y-74652190D01*
X203327142Y-74604571D01*
X203231904Y-74556952D01*
X203184285Y-74509333D01*
X203136666Y-74414095D01*
X203136666Y-74318857D01*
X203184285Y-74223619D01*
X203231904Y-74176000D01*
X203327142Y-74128380D01*
X203565238Y-74128380D01*
X203708095Y-74176000D01*
X204041428Y-74128380D02*
X204279523Y-75128380D01*
X204470000Y-74414095D01*
X204660476Y-75128380D01*
X204898571Y-74128380D01*
X205755714Y-74128380D02*
X205279523Y-74128380D01*
X205231904Y-74604571D01*
X205279523Y-74556952D01*
X205374761Y-74509333D01*
X205612857Y-74509333D01*
X205708095Y-74556952D01*
X205755714Y-74604571D01*
X205803333Y-74699809D01*
X205803333Y-74937904D01*
X205755714Y-75033142D01*
X205708095Y-75080761D01*
X205612857Y-75128380D01*
X205374761Y-75128380D01*
X205279523Y-75080761D01*
X205231904Y-75033142D01*
%TO.C,U1*%
X84606190Y-86812380D02*
X84606190Y-85812380D01*
X84987142Y-85812380D01*
X85082380Y-85860000D01*
X85130000Y-85907619D01*
X85177619Y-86002857D01*
X85177619Y-86145714D01*
X85130000Y-86240952D01*
X85082380Y-86288571D01*
X84987142Y-86336190D01*
X84606190Y-86336190D01*
X85606190Y-86812380D02*
X85606190Y-86145714D01*
X85606190Y-86336190D02*
X85653809Y-86240952D01*
X85701428Y-86193333D01*
X85796666Y-86145714D01*
X85891904Y-86145714D01*
X86368095Y-86812380D02*
X86272857Y-86764761D01*
X86225238Y-86717142D01*
X86177619Y-86621904D01*
X86177619Y-86336190D01*
X86225238Y-86240952D01*
X86272857Y-86193333D01*
X86368095Y-86145714D01*
X86510952Y-86145714D01*
X86606190Y-86193333D01*
X86653809Y-86240952D01*
X86701428Y-86336190D01*
X86701428Y-86621904D01*
X86653809Y-86717142D01*
X86606190Y-86764761D01*
X86510952Y-86812380D01*
X86368095Y-86812380D01*
X87130000Y-86812380D02*
X87130000Y-85812380D01*
X87463333Y-86526666D01*
X87796666Y-85812380D01*
X87796666Y-86812380D01*
X88272857Y-86812380D02*
X88272857Y-86145714D01*
X88272857Y-85812380D02*
X88225238Y-85860000D01*
X88272857Y-85907619D01*
X88320476Y-85860000D01*
X88272857Y-85812380D01*
X88272857Y-85907619D01*
X89177619Y-86764761D02*
X89082380Y-86812380D01*
X88891904Y-86812380D01*
X88796666Y-86764761D01*
X88749047Y-86717142D01*
X88701428Y-86621904D01*
X88701428Y-86336190D01*
X88749047Y-86240952D01*
X88796666Y-86193333D01*
X88891904Y-86145714D01*
X89082380Y-86145714D01*
X89177619Y-86193333D01*
X89606190Y-86812380D02*
X89606190Y-86145714D01*
X89606190Y-86336190D02*
X89653809Y-86240952D01*
X89701428Y-86193333D01*
X89796666Y-86145714D01*
X89891904Y-86145714D01*
X90368095Y-86812380D02*
X90272857Y-86764761D01*
X90225238Y-86717142D01*
X90177619Y-86621904D01*
X90177619Y-86336190D01*
X90225238Y-86240952D01*
X90272857Y-86193333D01*
X90368095Y-86145714D01*
X90510952Y-86145714D01*
X90606190Y-86193333D01*
X90653809Y-86240952D01*
X90701428Y-86336190D01*
X90701428Y-86621904D01*
X90653809Y-86717142D01*
X90606190Y-86764761D01*
X90510952Y-86812380D01*
X90368095Y-86812380D01*
%TD*%
M02*
