M48
; DRILL file {KiCad (5.1.10)-1} date 07/06/21 12:32:47
; FORMAT={-:-/ absolute / inch / decimal}
; #@! TF.CreationDate,2021-07-06T12:32:47-04:00
; #@! TF.GenerationSoftware,Kicad,Pcbnew,(5.1.10)-1
; #@! TF.FileFunction,Plated,1,2,PTH
FMAT,2
INCH
T1C0.0315
T2C0.0433
T3C0.0591
%
G90
G05
T1
X5.1Y-3.1
X5.1Y-3.1787
X5.1Y-3.2575
X5.1Y-3.3362
X5.1Y-3.415
T2
X2.9Y-2.95
X2.9Y-3.55
X3.0Y-2.95
X3.0Y-3.55
X3.1Y-2.95
X3.1Y-3.55
X3.2Y-2.95
X3.2Y-3.55
X3.3Y-2.95
X3.3Y-3.55
X3.4Y-2.95
X3.4Y-3.55
X3.5Y-2.95
X3.5Y-3.55
X3.6Y-2.95
X3.6Y-3.55
X3.7Y-2.95
X3.7Y-3.55
X3.8Y-2.95
X3.8Y-3.55
X3.9Y-2.95
X3.9Y-3.55
X4.0Y-2.95
X4.0Y-3.55
T3
X5.5Y-3.15
X5.75Y-3.05
X6.3Y-3.15
X6.55Y-3.05
X7.1Y-3.15
X7.35Y-3.05
X7.9Y-3.15
X8.15Y-3.05
T0
M30
