%TF.GenerationSoftware,KiCad,Pcbnew,8.0.2*%
%TF.CreationDate,2024-06-24T21:49:00-04:00*%
%TF.ProjectId,MacroPad,4d616372-6f50-4616-942e-6b696361645f,rev?*%
%TF.SameCoordinates,Original*%
%TF.FileFunction,AssemblyDrawing,Bot*%
%FSLAX46Y46*%
G04 Gerber Fmt 4.6, Leading zero omitted, Abs format (unit mm)*
G04 Created by KiCad (PCBNEW 8.0.2) date 2024-06-24 21:49:00*
%MOMM*%
%LPD*%
G01*
G04 APERTURE LIST*
%ADD10C,0.150000*%
G04 APERTURE END LIST*
D10*
X98522200Y-77948333D02*
X98569819Y-78091190D01*
X98569819Y-78091190D02*
X98569819Y-78329285D01*
X98569819Y-78329285D02*
X98522200Y-78424523D01*
X98522200Y-78424523D02*
X98474580Y-78472142D01*
X98474580Y-78472142D02*
X98379342Y-78519761D01*
X98379342Y-78519761D02*
X98284104Y-78519761D01*
X98284104Y-78519761D02*
X98188866Y-78472142D01*
X98188866Y-78472142D02*
X98141247Y-78424523D01*
X98141247Y-78424523D02*
X98093628Y-78329285D01*
X98093628Y-78329285D02*
X98046009Y-78138809D01*
X98046009Y-78138809D02*
X97998390Y-78043571D01*
X97998390Y-78043571D02*
X97950771Y-77995952D01*
X97950771Y-77995952D02*
X97855533Y-77948333D01*
X97855533Y-77948333D02*
X97760295Y-77948333D01*
X97760295Y-77948333D02*
X97665057Y-77995952D01*
X97665057Y-77995952D02*
X97617438Y-78043571D01*
X97617438Y-78043571D02*
X97569819Y-78138809D01*
X97569819Y-78138809D02*
X97569819Y-78376904D01*
X97569819Y-78376904D02*
X97617438Y-78519761D01*
X98522200Y-78900714D02*
X98569819Y-79043571D01*
X98569819Y-79043571D02*
X98569819Y-79281666D01*
X98569819Y-79281666D02*
X98522200Y-79376904D01*
X98522200Y-79376904D02*
X98474580Y-79424523D01*
X98474580Y-79424523D02*
X98379342Y-79472142D01*
X98379342Y-79472142D02*
X98284104Y-79472142D01*
X98284104Y-79472142D02*
X98188866Y-79424523D01*
X98188866Y-79424523D02*
X98141247Y-79376904D01*
X98141247Y-79376904D02*
X98093628Y-79281666D01*
X98093628Y-79281666D02*
X98046009Y-79091190D01*
X98046009Y-79091190D02*
X97998390Y-78995952D01*
X97998390Y-78995952D02*
X97950771Y-78948333D01*
X97950771Y-78948333D02*
X97855533Y-78900714D01*
X97855533Y-78900714D02*
X97760295Y-78900714D01*
X97760295Y-78900714D02*
X97665057Y-78948333D01*
X97665057Y-78948333D02*
X97617438Y-78995952D01*
X97617438Y-78995952D02*
X97569819Y-79091190D01*
X97569819Y-79091190D02*
X97569819Y-79329285D01*
X97569819Y-79329285D02*
X97617438Y-79472142D01*
X98569819Y-79900714D02*
X97569819Y-79900714D01*
X97569819Y-79900714D02*
X97569819Y-80138809D01*
X97569819Y-80138809D02*
X97617438Y-80281666D01*
X97617438Y-80281666D02*
X97712676Y-80376904D01*
X97712676Y-80376904D02*
X97807914Y-80424523D01*
X97807914Y-80424523D02*
X97998390Y-80472142D01*
X97998390Y-80472142D02*
X98141247Y-80472142D01*
X98141247Y-80472142D02*
X98331723Y-80424523D01*
X98331723Y-80424523D02*
X98426961Y-80376904D01*
X98426961Y-80376904D02*
X98522200Y-80281666D01*
X98522200Y-80281666D02*
X98569819Y-80138809D01*
X98569819Y-80138809D02*
X98569819Y-79900714D01*
X98569819Y-81424523D02*
X98569819Y-80853095D01*
X98569819Y-81138809D02*
X97569819Y-81138809D01*
X97569819Y-81138809D02*
X97712676Y-81043571D01*
X97712676Y-81043571D02*
X97807914Y-80948333D01*
X97807914Y-80948333D02*
X97855533Y-80853095D01*
X97569819Y-81757857D02*
X97569819Y-82376904D01*
X97569819Y-82376904D02*
X97950771Y-82043571D01*
X97950771Y-82043571D02*
X97950771Y-82186428D01*
X97950771Y-82186428D02*
X97998390Y-82281666D01*
X97998390Y-82281666D02*
X98046009Y-82329285D01*
X98046009Y-82329285D02*
X98141247Y-82376904D01*
X98141247Y-82376904D02*
X98379342Y-82376904D01*
X98379342Y-82376904D02*
X98474580Y-82329285D01*
X98474580Y-82329285D02*
X98522200Y-82281666D01*
X98522200Y-82281666D02*
X98569819Y-82186428D01*
X98569819Y-82186428D02*
X98569819Y-81900714D01*
X98569819Y-81900714D02*
X98522200Y-81805476D01*
X98522200Y-81805476D02*
X98474580Y-81757857D01*
X97569819Y-82995952D02*
X97569819Y-83091190D01*
X97569819Y-83091190D02*
X97617438Y-83186428D01*
X97617438Y-83186428D02*
X97665057Y-83234047D01*
X97665057Y-83234047D02*
X97760295Y-83281666D01*
X97760295Y-83281666D02*
X97950771Y-83329285D01*
X97950771Y-83329285D02*
X98188866Y-83329285D01*
X98188866Y-83329285D02*
X98379342Y-83281666D01*
X98379342Y-83281666D02*
X98474580Y-83234047D01*
X98474580Y-83234047D02*
X98522200Y-83186428D01*
X98522200Y-83186428D02*
X98569819Y-83091190D01*
X98569819Y-83091190D02*
X98569819Y-82995952D01*
X98569819Y-82995952D02*
X98522200Y-82900714D01*
X98522200Y-82900714D02*
X98474580Y-82853095D01*
X98474580Y-82853095D02*
X98379342Y-82805476D01*
X98379342Y-82805476D02*
X98188866Y-82757857D01*
X98188866Y-82757857D02*
X97950771Y-82757857D01*
X97950771Y-82757857D02*
X97760295Y-82805476D01*
X97760295Y-82805476D02*
X97665057Y-82853095D01*
X97665057Y-82853095D02*
X97617438Y-82900714D01*
X97617438Y-82900714D02*
X97569819Y-82995952D01*
X97569819Y-84186428D02*
X97569819Y-83995952D01*
X97569819Y-83995952D02*
X97617438Y-83900714D01*
X97617438Y-83900714D02*
X97665057Y-83853095D01*
X97665057Y-83853095D02*
X97807914Y-83757857D01*
X97807914Y-83757857D02*
X97998390Y-83710238D01*
X97998390Y-83710238D02*
X98379342Y-83710238D01*
X98379342Y-83710238D02*
X98474580Y-83757857D01*
X98474580Y-83757857D02*
X98522200Y-83805476D01*
X98522200Y-83805476D02*
X98569819Y-83900714D01*
X98569819Y-83900714D02*
X98569819Y-84091190D01*
X98569819Y-84091190D02*
X98522200Y-84186428D01*
X98522200Y-84186428D02*
X98474580Y-84234047D01*
X98474580Y-84234047D02*
X98379342Y-84281666D01*
X98379342Y-84281666D02*
X98141247Y-84281666D01*
X98141247Y-84281666D02*
X98046009Y-84234047D01*
X98046009Y-84234047D02*
X97998390Y-84186428D01*
X97998390Y-84186428D02*
X97950771Y-84091190D01*
X97950771Y-84091190D02*
X97950771Y-83900714D01*
X97950771Y-83900714D02*
X97998390Y-83805476D01*
X97998390Y-83805476D02*
X98046009Y-83757857D01*
X98046009Y-83757857D02*
X98141247Y-83710238D01*
M02*
