%TF.GenerationSoftware,KiCad,Pcbnew,(5.1.10)-1*%
%TF.CreationDate,2021-07-06T12:32:42-04:00*%
%TF.ProjectId,MacroPad,4d616372-6f50-4616-942e-6b696361645f,rev?*%
%TF.SameCoordinates,Original*%
%TF.FileFunction,Other,User*%
%FSLAX46Y46*%
G04 Gerber Fmt 4.6, Leading zero omitted, Abs format (unit mm)*
G04 Created by KiCad (PCBNEW (5.1.10)-1) date 2021-07-06 12:32:42*
%MOMM*%
%LPD*%
G01*
G04 APERTURE LIST*
%ADD10C,0.050000*%
G04 APERTURE END LIST*
D10*
%TO.C,SW1*%
X136910000Y-75950000D02*
X150110000Y-75950000D01*
X150110000Y-75950000D02*
X150110000Y-89150000D01*
X150110000Y-89150000D02*
X136910000Y-89150000D01*
X136910000Y-89150000D02*
X136910000Y-75950000D01*
%TO.C,SW2*%
X128040000Y-77240000D02*
X128040000Y-88240000D01*
X128040000Y-88240000D02*
X131040000Y-88240000D01*
X131040000Y-88240000D02*
X131040000Y-77240000D01*
X131040000Y-77240000D02*
X128040000Y-77240000D01*
%TO.C,SW3*%
X157230000Y-89150000D02*
X157230000Y-75950000D01*
X170430000Y-89150000D02*
X157230000Y-89150000D01*
X170430000Y-75950000D02*
X170430000Y-89150000D01*
X157230000Y-75950000D02*
X170430000Y-75950000D01*
%TO.C,SW4*%
X177550000Y-75950000D02*
X190750000Y-75950000D01*
X190750000Y-75950000D02*
X190750000Y-89150000D01*
X190750000Y-89150000D02*
X177550000Y-89150000D01*
X177550000Y-89150000D02*
X177550000Y-75950000D01*
%TO.C,SW5*%
X197870000Y-89150000D02*
X197870000Y-75950000D01*
X211070000Y-89150000D02*
X197870000Y-89150000D01*
X211070000Y-75950000D02*
X211070000Y-89150000D01*
X197870000Y-75950000D02*
X211070000Y-75950000D01*
%TD*%
M02*
