M48
; DRILL file {KiCad 8.0.2} date 2024-06-24T21:49:01-0400
; FORMAT={-:-/ absolute / inch / decimal}
; #@! TF.CreationDate,2024-06-24T21:49:01-04:00
; #@! TF.GenerationSoftware,Kicad,Pcbnew,8.0.2
; #@! TF.FileFunction,Plated,1,2,PTH
FMAT,2
INCH
; #@! TA.AperFunction,Plated,PTH,ViaDrill
T1C0.0157
; #@! TA.AperFunction,Plated,PTH,ComponentDrill
T2C0.0315
; #@! TA.AperFunction,Plated,PTH,ComponentDrill
T3C0.0394
; #@! TA.AperFunction,Plated,PTH,ComponentDrill
T4C0.0591
%
G90
G05
T1
X3.122Y-5.0551
X3.1614Y-3.3386
X3.248Y-3.5
X3.2795Y-4.311
X3.2835Y-3.5866
X3.3228Y-4.0591
X3.3268Y-3.4528
X3.3268Y-3.7441
X3.3622Y-2.7205
X3.3801Y-4.1555
X3.4291Y-2.4291
X3.4646Y-4.4882
X3.4961Y-2.5591
X3.5236Y-3.3583
X3.5433Y-2.7047
X3.5433Y-4.1732
X3.5984Y-4.374
X3.7165Y-4.0315
X3.9882Y-2.2559
T2
X3.248Y-2.0276
X3.248Y-2.1276
X3.248Y-2.2276
X3.248Y-2.3276
X3.248Y-2.4276
X3.248Y-2.5276
X3.248Y-2.6276
X3.248Y-2.7276
X3.248Y-2.8276
X3.248Y-2.9276
X3.248Y-3.0276
X3.248Y-3.1276
X3.8386Y-1.7126
X3.848Y-2.0276
X3.848Y-2.1276
X3.848Y-2.2276
X3.848Y-2.3276
X3.848Y-2.4276
X3.848Y-2.5276
X3.848Y-2.6276
X3.848Y-2.7276
X3.848Y-2.8276
X3.848Y-2.9276
X3.848Y-3.0276
X3.848Y-3.1276
X3.9173Y-1.7126
T3
X3.1693Y-3.5433
X3.1693Y-3.6433
X3.1693Y-3.7433
X3.3888Y-5.2317
X3.3978Y-3.6175
X3.3978Y-3.9022
X3.4888Y-5.2317
X3.4978Y-3.6175
X3.4978Y-3.9022
X3.5888Y-5.2317
X3.5978Y-3.6175
X3.5978Y-3.9022
X3.6888Y-5.2317
X3.6978Y-3.6175
X3.6978Y-3.9022
X3.7888Y-5.2317
T4
X4.3028Y-1.9988
X4.3028Y-2.7488
X4.3028Y-3.4988
X4.3028Y-4.2488
X4.3028Y-4.9988
X4.3028Y-5.7488
X4.5528Y-1.8988
X4.5528Y-2.6488
X4.5528Y-3.3988
X4.5528Y-4.1488
X4.5528Y-4.8988
X4.5528Y-5.6488
X5.0528Y-1.9988
X5.0528Y-2.7488
X5.0528Y-3.4988
X5.0528Y-4.2488
X5.0528Y-4.9988
X5.0528Y-5.7488
X5.3028Y-1.8988
X5.3028Y-2.6488
X5.3028Y-3.3988
X5.3028Y-4.1488
X5.3028Y-4.8988
X5.3028Y-5.6488
X5.8028Y-1.9988
X5.8028Y-2.7488
X5.8028Y-3.4988
X5.8028Y-4.2488
X5.8028Y-4.9988
X5.8028Y-5.7488
X6.0528Y-1.8988
X6.0528Y-2.6488
X6.0528Y-3.3988
X6.0528Y-4.1488
X6.0528Y-4.8988
X6.0528Y-5.6488
X6.5528Y-1.9988
X6.5528Y-2.7488
X6.5528Y-3.4988
X6.5528Y-4.2488
X6.5528Y-4.9988
X6.5528Y-5.7488
X6.8028Y-1.8988
X6.8028Y-2.6488
X6.8028Y-3.3988
X6.8028Y-4.1488
X6.8028Y-4.8988
X6.8028Y-5.6488
M30
