%TF.GenerationSoftware,KiCad,Pcbnew,(5.1.10)-1*%
%TF.CreationDate,2021-07-06T12:32:41-04:00*%
%TF.ProjectId,MacroPad,4d616372-6f50-4616-942e-6b696361645f,rev?*%
%TF.SameCoordinates,Original*%
%TF.FileFunction,Copper,L1,Top*%
%TF.FilePolarity,Positive*%
%FSLAX46Y46*%
G04 Gerber Fmt 4.6, Leading zero omitted, Abs format (unit mm)*
G04 Created by KiCad (PCBNEW (5.1.10)-1) date 2021-07-06 12:32:41*
%MOMM*%
%LPD*%
G01*
G04 APERTURE LIST*
%TA.AperFunction,ComponentPad*%
%ADD10C,2.200000*%
%TD*%
%TA.AperFunction,ComponentPad*%
%ADD11R,1.350000X1.350000*%
%TD*%
%TA.AperFunction,ComponentPad*%
%ADD12O,1.350000X1.350000*%
%TD*%
%TA.AperFunction,ComponentPad*%
%ADD13R,1.600000X1.600000*%
%TD*%
%TA.AperFunction,ComponentPad*%
%ADD14C,1.600000*%
%TD*%
%TA.AperFunction,Conductor*%
%ADD15C,0.250000*%
%TD*%
G04 APERTURE END LIST*
D10*
%TO.P,SW1,2*%
%TO.N,GND*%
X139700000Y-80010000D03*
%TO.P,SW1,1*%
%TO.N,Net-(SW1-Pad1)*%
X146050000Y-77470000D03*
%TD*%
D11*
%TO.P,SW2,1*%
%TO.N,Net-(SW2-Pad1)*%
X129540000Y-78740000D03*
D12*
%TO.P,SW2,2*%
%TO.N,Net-(SW2-Pad2)*%
X129540000Y-80740000D03*
%TO.P,SW2,3*%
%TO.N,Net-(SW2-Pad3)*%
X129540000Y-82740000D03*
%TO.P,SW2,4*%
%TO.N,+5V*%
X129540000Y-84740000D03*
%TO.P,SW2,5*%
%TO.N,GND*%
X129540000Y-86740000D03*
%TD*%
D10*
%TO.P,SW3,1*%
%TO.N,Net-(SW3-Pad1)*%
X166370000Y-77470000D03*
%TO.P,SW3,2*%
%TO.N,GND*%
X160020000Y-80010000D03*
%TD*%
%TO.P,SW4,2*%
%TO.N,GND*%
X180340000Y-80010000D03*
%TO.P,SW4,1*%
%TO.N,Net-(SW4-Pad1)*%
X186690000Y-77470000D03*
%TD*%
%TO.P,SW5,1*%
%TO.N,Net-(SW5-Pad1)*%
X207010000Y-77470000D03*
%TO.P,SW5,2*%
%TO.N,GND*%
X200660000Y-80010000D03*
%TD*%
D13*
%TO.P,U1,1*%
%TO.N,Net-(U1-Pad1)*%
X73660000Y-90170000D03*
D14*
%TO.P,U1,2*%
%TO.N,Net-(U1-Pad2)*%
X76200000Y-90170000D03*
%TO.P,U1,3*%
%TO.N,Net-(U1-Pad3)*%
X78740000Y-90170000D03*
%TO.P,U1,4*%
%TO.N,Net-(U1-Pad4)*%
X81280000Y-90170000D03*
%TO.P,U1,5*%
%TO.N,Net-(SW5-Pad1)*%
X83820000Y-90170000D03*
%TO.P,U1,6*%
%TO.N,Net-(SW4-Pad1)*%
X86360000Y-90170000D03*
%TO.P,U1,7*%
%TO.N,Net-(SW3-Pad1)*%
X88900000Y-90170000D03*
%TO.P,U1,8*%
%TO.N,Net-(SW1-Pad1)*%
X91440000Y-90170000D03*
%TO.P,U1,9*%
%TO.N,Net-(SW2-Pad3)*%
X93980000Y-90170000D03*
%TO.P,U1,10*%
%TO.N,Net-(SW2-Pad2)*%
X96520000Y-90170000D03*
%TO.P,U1,11*%
%TO.N,Net-(SW2-Pad1)*%
X99060000Y-90170000D03*
%TO.P,U1,12*%
%TO.N,Net-(U1-Pad12)*%
X101600000Y-90170000D03*
%TO.P,U1,13*%
%TO.N,Net-(U1-Pad13)*%
X101600000Y-74930000D03*
%TO.P,U1,14*%
%TO.N,Net-(U1-Pad14)*%
X99060000Y-74930000D03*
%TO.P,U1,15*%
%TO.N,Net-(U1-Pad15)*%
X96520000Y-74930000D03*
%TO.P,U1,16*%
%TO.N,Net-(U1-Pad16)*%
X93980000Y-74930000D03*
%TO.P,U1,17*%
%TO.N,Net-(U1-Pad17)*%
X91440000Y-74930000D03*
%TO.P,U1,18*%
%TO.N,Net-(U1-Pad18)*%
X88900000Y-74930000D03*
%TO.P,U1,19*%
%TO.N,Net-(U1-Pad19)*%
X86360000Y-74930000D03*
%TO.P,U1,20*%
%TO.N,Net-(U1-Pad20)*%
X83820000Y-74930000D03*
%TO.P,U1,21*%
%TO.N,+5V*%
X81280000Y-74930000D03*
%TO.P,U1,22*%
%TO.N,Net-(U1-Pad22)*%
X78740000Y-74930000D03*
%TO.P,U1,23*%
%TO.N,GND*%
X76200000Y-74930000D03*
%TO.P,U1,24*%
%TO.N,Net-(U1-Pad24)*%
X73660000Y-74930000D03*
%TD*%
D15*
%TO.N,Net-(SW1-Pad1)*%
X104140000Y-77470000D02*
X146050000Y-77470000D01*
X91440000Y-90170000D02*
X104140000Y-77470000D01*
%TO.N,Net-(SW2-Pad1)*%
X99934998Y-90170000D02*
X99060000Y-90170000D01*
X111364998Y-78740000D02*
X99934998Y-90170000D01*
X129540000Y-78740000D02*
X111364998Y-78740000D01*
%TO.N,Net-(SW2-Pad2)*%
X102140001Y-91295001D02*
X111760000Y-81675002D01*
X97645001Y-91295001D02*
X102140001Y-91295001D01*
X96520000Y-90170000D02*
X97645001Y-91295001D01*
X128604998Y-81675002D02*
X129540000Y-80740000D01*
X111760000Y-81675002D02*
X128604998Y-81675002D01*
%TO.N,Net-(SW2-Pad3)*%
X95555011Y-91745011D02*
X93980000Y-90170000D01*
X120534989Y-91745011D02*
X95555011Y-91745011D01*
X129540000Y-82740000D02*
X120534989Y-91745011D01*
%TO.N,+5V*%
X82405001Y-76055001D02*
X81280000Y-74930000D01*
X82405001Y-90420003D02*
X82405001Y-76055001D01*
X84180018Y-92195020D02*
X82405001Y-90420003D01*
X122084980Y-92195020D02*
X84180018Y-92195020D01*
X129540000Y-84740000D02*
X122084980Y-92195020D01*
%TO.N,Net-(SW3-Pad1)*%
X103025001Y-76044999D02*
X88900000Y-90170000D01*
X164944999Y-76044999D02*
X103025001Y-76044999D01*
X166370000Y-77470000D02*
X164944999Y-76044999D01*
%TO.N,Net-(SW4-Pad1)*%
X184814989Y-75594989D02*
X186690000Y-77470000D01*
X102838601Y-75594989D02*
X184814989Y-75594989D01*
X89388591Y-89044999D02*
X102838601Y-75594989D01*
X87485001Y-89044999D02*
X89388591Y-89044999D01*
X86360000Y-90170000D02*
X87485001Y-89044999D01*
%TO.N,Net-(SW5-Pad1)*%
X84945001Y-89044999D02*
X83820000Y-90170000D01*
X86610003Y-89044999D02*
X84945001Y-89044999D01*
X100185001Y-75470001D02*
X86610003Y-89044999D01*
X100185001Y-74679997D02*
X100185001Y-75470001D01*
X101059999Y-73804999D02*
X100185001Y-74679997D01*
X203344999Y-73804999D02*
X101059999Y-73804999D01*
X207010000Y-77470000D02*
X203344999Y-73804999D01*
%TD*%
M02*
