%TF.GenerationSoftware,KiCad,Pcbnew,8.0.2*%
%TF.CreationDate,2024-06-24T21:48:59-04:00*%
%TF.ProjectId,MacroPad,4d616372-6f50-4616-942e-6b696361645f,rev?*%
%TF.SameCoordinates,Original*%
%TF.FileFunction,Copper,L2,Bot*%
%TF.FilePolarity,Positive*%
%FSLAX46Y46*%
G04 Gerber Fmt 4.6, Leading zero omitted, Abs format (unit mm)*
G04 Created by KiCad (PCBNEW 8.0.2) date 2024-06-24 21:48:59*
%MOMM*%
%LPD*%
G01*
G04 APERTURE LIST*
%TA.AperFunction,ComponentPad*%
%ADD10C,2.200000*%
%TD*%
%TA.AperFunction,ComponentPad*%
%ADD11R,1.700000X1.700000*%
%TD*%
%TA.AperFunction,ComponentPad*%
%ADD12O,1.700000X1.700000*%
%TD*%
%TA.AperFunction,ComponentPad*%
%ADD13R,1.350000X1.350000*%
%TD*%
%TA.AperFunction,ComponentPad*%
%ADD14O,1.350000X1.350000*%
%TD*%
%TA.AperFunction,ComponentPad*%
%ADD15R,1.600000X1.600000*%
%TD*%
%TA.AperFunction,ComponentPad*%
%ADD16O,1.600000X1.600000*%
%TD*%
%TA.AperFunction,ViaPad*%
%ADD17C,0.800000*%
%TD*%
%TA.AperFunction,Conductor*%
%ADD18C,0.250000*%
%TD*%
G04 APERTURE END LIST*
D10*
%TO.P,SW21,1,1*%
%TO.N,Net-(D21-A)*%
X115640000Y-143480000D03*
%TO.P,SW21,2,2*%
%TO.N,IN1*%
X109290000Y-146020000D03*
%TD*%
%TO.P,SW4,1,1*%
%TO.N,Net-(D4-A)*%
X172790000Y-48230000D03*
%TO.P,SW4,2,2*%
%TO.N,IN4*%
X166440000Y-50770000D03*
%TD*%
%TO.P,SW10,1,1*%
%TO.N,Net-(D10-A)*%
X134690000Y-86330000D03*
%TO.P,SW10,2,2*%
%TO.N,IN2*%
X128340000Y-88870000D03*
%TD*%
%TO.P,SW7,1,1*%
%TO.N,Net-(D7-A)*%
X153740000Y-67280000D03*
%TO.P,SW7,2,2*%
%TO.N,IN3*%
X147390000Y-69820000D03*
%TD*%
%TO.P,SW9,1,1*%
%TO.N,Net-(D9-A)*%
X115640000Y-86330000D03*
%TO.P,SW9,2,2*%
%TO.N,IN1*%
X109290000Y-88870000D03*
%TD*%
D11*
%TO.P,SW25,1,A*%
%TO.N,Net-(BT1-+)*%
X80500000Y-95080000D03*
D12*
%TO.P,SW25,2,B*%
%TO.N,+5V*%
X80500000Y-92540000D03*
%TO.P,SW25,3,C*%
%TO.N,Net-(SW25-C)*%
X80500000Y-90000000D03*
%TD*%
D10*
%TO.P,SW23,1,1*%
%TO.N,Net-(D23-A)*%
X153740000Y-143480000D03*
%TO.P,SW23,2,2*%
%TO.N,IN3*%
X147390000Y-146020000D03*
%TD*%
D11*
%TO.P,SW0,1,CLK*%
%TO.N,CLK*%
X86075000Y-132885000D03*
D12*
%TO.P,SW0,2,DT*%
%TO.N,DT*%
X88615000Y-132885000D03*
%TO.P,SW0,3,SW*%
%TO.N,SW*%
X91155000Y-132885000D03*
%TO.P,SW0,4,+*%
%TO.N,+5V*%
X93695000Y-132885000D03*
%TO.P,SW0,5,GND*%
%TO.N,GND*%
X96235000Y-132885000D03*
%TD*%
D10*
%TO.P,SW17,1,1*%
%TO.N,Net-(D17-A)*%
X115640000Y-124430000D03*
%TO.P,SW17,2,2*%
%TO.N,IN1*%
X109290000Y-126970000D03*
%TD*%
%TO.P,SW15,1,1*%
%TO.N,Net-(D15-A)*%
X153740000Y-105380000D03*
%TO.P,SW15,2,2*%
%TO.N,IN3*%
X147390000Y-107920000D03*
%TD*%
%TO.P,SW20,1,1*%
%TO.N,Net-(D20-A)*%
X172790000Y-124430000D03*
%TO.P,SW20,2,2*%
%TO.N,IN4*%
X166440000Y-126970000D03*
%TD*%
%TO.P,SW12,1,1*%
%TO.N,Net-(D12-A)*%
X172790000Y-86330000D03*
%TO.P,SW12,2,2*%
%TO.N,IN4*%
X166440000Y-88870000D03*
%TD*%
%TO.P,SW1,1,1*%
%TO.N,Net-(D1-A)*%
X115640000Y-48230000D03*
%TO.P,SW1,2,2*%
%TO.N,IN1*%
X109290000Y-50770000D03*
%TD*%
%TO.P,SW6,1,1*%
%TO.N,Net-(D6-A)*%
X134690000Y-67280000D03*
%TO.P,SW6,2,2*%
%TO.N,IN2*%
X128340000Y-69820000D03*
%TD*%
%TO.P,SW8,1,1*%
%TO.N,Net-(D8-A)*%
X172790000Y-67280000D03*
%TO.P,SW8,2,2*%
%TO.N,IN4*%
X166440000Y-69820000D03*
%TD*%
%TO.P,SW14,1,1*%
%TO.N,Net-(D14-A)*%
X134690000Y-105380000D03*
%TO.P,SW14,2,2*%
%TO.N,IN2*%
X128340000Y-107920000D03*
%TD*%
%TO.P,SW16,1,1*%
%TO.N,Net-(D16-A)*%
X172790000Y-105380000D03*
%TO.P,SW16,2,2*%
%TO.N,IN4*%
X166440000Y-107920000D03*
%TD*%
%TO.P,SW18,1,1*%
%TO.N,Net-(D18-A)*%
X134690000Y-124430000D03*
%TO.P,SW18,2,2*%
%TO.N,IN2*%
X128340000Y-126970000D03*
%TD*%
%TO.P,SW19,1,1*%
%TO.N,Net-(D19-A)*%
X153740000Y-124430000D03*
%TO.P,SW19,2,2*%
%TO.N,IN3*%
X147390000Y-126970000D03*
%TD*%
%TO.P,SW13,1,1*%
%TO.N,Net-(D13-A)*%
X115640000Y-105380000D03*
%TO.P,SW13,2,2*%
%TO.N,IN1*%
X109290000Y-107920000D03*
%TD*%
%TO.P,SW22,1,1*%
%TO.N,Net-(D22-A)*%
X134690000Y-143480000D03*
%TO.P,SW22,2,2*%
%TO.N,IN2*%
X128340000Y-146020000D03*
%TD*%
D13*
%TO.P,BT1,1,+*%
%TO.N,Net-(BT1-+)*%
X99500000Y-43500000D03*
D14*
%TO.P,BT1,2,-*%
%TO.N,GND*%
X97500000Y-43500000D03*
%TD*%
D10*
%TO.P,SW11,1,1*%
%TO.N,Net-(D11-A)*%
X153740000Y-86330000D03*
%TO.P,SW11,2,2*%
%TO.N,IN3*%
X147390000Y-88870000D03*
%TD*%
D11*
%TO.P,U1,8,VDD*%
%TO.N,GND*%
X86305000Y-91885000D03*
D12*
%TO.P,U1,10,SCL*%
%TO.N,SCL*%
X91385000Y-91885000D03*
%TO.P,U1,11,SDA*%
%TO.N,SDA*%
X93925000Y-91885000D03*
%TO.P,U1,14,VCC*%
%TO.N,+5V*%
X88845000Y-91885000D03*
%TD*%
D10*
%TO.P,SW5,1,1*%
%TO.N,Net-(D5-A)*%
X115640000Y-67280000D03*
%TO.P,SW5,2,2*%
%TO.N,IN1*%
X109290000Y-69820000D03*
%TD*%
%TO.P,SW2,1,1*%
%TO.N,Net-(D2-A)*%
X134690000Y-48230000D03*
%TO.P,SW2,2,2*%
%TO.N,IN2*%
X128340000Y-50770000D03*
%TD*%
%TO.P,SW24,1,1*%
%TO.N,Net-(D24-A)*%
X172790000Y-143480000D03*
%TO.P,SW24,2,2*%
%TO.N,IN4*%
X166440000Y-146020000D03*
%TD*%
%TO.P,SW3,1,1*%
%TO.N,Net-(D3-A)*%
X153740000Y-48230000D03*
%TO.P,SW3,2,2*%
%TO.N,IN3*%
X147390000Y-50770000D03*
%TD*%
D15*
%TO.P,U2,1,TX/D1/PD3*%
%TO.N,unconnected-(U2-TX{slash}D1{slash}PD3-Pad1)*%
X82500000Y-51500000D03*
D16*
%TO.P,U2,2,RX/D0/PD2*%
%TO.N,unconnected-(U2-RX{slash}D0{slash}PD2-Pad2)*%
X82500000Y-54040000D03*
%TO.P,U2,3,GND*%
%TO.N,GND*%
X82500000Y-56580000D03*
%TO.P,U2,4,GND*%
X82500000Y-59120000D03*
%TO.P,U2,5,D2/SDA/PD1*%
%TO.N,SDA*%
X82500000Y-61660000D03*
%TO.P,U2,6,D3/SCL/PD0*%
%TO.N,SCL*%
X82500000Y-64200000D03*
%TO.P,U2,7,D4/PD4*%
%TO.N,SW*%
X82500000Y-66740000D03*
%TO.P,U2,8,D5/PC6*%
%TO.N,DT*%
X82500000Y-69280000D03*
%TO.P,U2,9,D6/PD7*%
%TO.N,CLK*%
X82500000Y-71820000D03*
%TO.P,U2,10,D7/PE6*%
%TO.N,IN1*%
X82500000Y-74360000D03*
%TO.P,U2,11,D8/PB4*%
%TO.N,IN2*%
X82500000Y-76900000D03*
%TO.P,U2,12,D9/PB5*%
%TO.N,IN3*%
X82500000Y-79440000D03*
%TO.P,U2,13,D10/A10/PB6*%
%TO.N,OUT1*%
X97740000Y-79440000D03*
%TO.P,U2,14,D16/MOSI/PB2*%
%TO.N,OUT2*%
X97740000Y-76900000D03*
%TO.P,U2,15,D14/MISO/PB3*%
%TO.N,OUT3*%
X97740000Y-74360000D03*
%TO.P,U2,16,D15/SCLK/PB1*%
%TO.N,OUT4*%
X97740000Y-71820000D03*
%TO.P,U2,17,D18/A0/PF7*%
%TO.N,OUT5*%
X97740000Y-69280000D03*
%TO.P,U2,18,D19/A1/PF6*%
%TO.N,OUT6*%
X97740000Y-66740000D03*
%TO.P,U2,19,D20/A2/PF5*%
%TO.N,IN4*%
X97740000Y-64200000D03*
%TO.P,U2,20,D21/A3/PF4*%
%TO.N,STAT*%
X97740000Y-61660000D03*
%TO.P,U2,21,VCC*%
%TO.N,+5V*%
X97740000Y-59120000D03*
%TO.P,U2,22,RST*%
%TO.N,unconnected-(U2-RST-Pad22)*%
X97740000Y-56580000D03*
%TO.P,U2,23,GND*%
%TO.N,unconnected-(U2-GND-Pad23)*%
X97740000Y-54040000D03*
%TO.P,U2,24,RAW*%
%TO.N,unconnected-(U2-RAW-Pad24)*%
X97740000Y-51500000D03*
%TD*%
D11*
%TO.P,U3,8,VDD*%
%TO.N,GND*%
X86305000Y-99115000D03*
D12*
%TO.P,U3,10,SCL*%
%TO.N,SCL*%
X91385000Y-99115000D03*
%TO.P,U3,11,SDA*%
%TO.N,SDA*%
X93925000Y-99115000D03*
%TO.P,U3,14,VCC*%
%TO.N,+5V*%
X88845000Y-99115000D03*
%TD*%
D17*
%TO.N,+5V*%
X94400000Y-102400000D03*
X83400000Y-91100000D03*
X90000000Y-68700000D03*
%TO.N,SCL*%
X80300000Y-84800000D03*
%TO.N,SDA*%
X89500000Y-85300000D03*
X88800000Y-65000000D03*
X87100000Y-61700000D03*
%TO.N,DT*%
X79300000Y-128400000D03*
%TO.N,IN1*%
X101300000Y-57300000D03*
%TO.N,IN3*%
X85400000Y-69100000D03*
%TO.N,OUT6*%
X84500000Y-87700000D03*
X84500000Y-95100000D03*
X84400000Y-103100000D03*
X82500000Y-88900000D03*
%TO.N,Net-(BT1-+)*%
X88000000Y-114000000D03*
%TO.N,Net-(SW25-C)*%
X90000000Y-106000000D03*
X85855000Y-105550000D03*
X83300000Y-109500000D03*
%TO.N,STAT*%
X91400000Y-111100000D03*
%TD*%
D18*
%TO.N,+5V*%
X92520000Y-134060000D02*
X93695000Y-132885000D01*
X80500000Y-92540000D02*
X81350000Y-93390000D01*
X90000000Y-66860000D02*
X97740000Y-59120000D01*
X90000000Y-68700000D02*
X90000000Y-66860000D01*
X90668299Y-134060000D02*
X92520000Y-134060000D01*
X89980000Y-132398299D02*
X89980000Y-133371701D01*
X83790000Y-90710000D02*
X83400000Y-91100000D01*
X87670000Y-90710000D02*
X83790000Y-90710000D01*
X88845000Y-91885000D02*
X87670000Y-90710000D01*
X94400000Y-102400000D02*
X94400000Y-127978299D01*
X94400000Y-127978299D02*
X89980000Y-132398299D01*
X87340000Y-93390000D02*
X88845000Y-91885000D01*
X81350000Y-93390000D02*
X87340000Y-93390000D01*
X89980000Y-133371701D02*
X90668299Y-134060000D01*
%TO.N,SCL*%
X80300000Y-84800000D02*
X84300000Y-84800000D01*
X84300000Y-84800000D02*
X91385000Y-91885000D01*
%TO.N,SDA*%
X88800000Y-65000000D02*
X88800000Y-84600000D01*
X87060000Y-61660000D02*
X87100000Y-61700000D01*
X82500000Y-61660000D02*
X87060000Y-61660000D01*
X88800000Y-84600000D02*
X89500000Y-85300000D01*
%TO.N,SW*%
X98865000Y-125175000D02*
X91155000Y-132885000D01*
X81375000Y-67865000D02*
X81375000Y-79905991D01*
X82500000Y-66740000D02*
X81375000Y-67865000D01*
X81375000Y-79905991D02*
X91155000Y-89685991D01*
X91155000Y-66654009D02*
X97274009Y-60535000D01*
X91155000Y-89685991D02*
X91155000Y-66654009D01*
X98865000Y-61194009D02*
X98865000Y-125175000D01*
X97274009Y-60535000D02*
X98205991Y-60535000D01*
X98205991Y-60535000D02*
X98865000Y-61194009D01*
%TO.N,DT*%
X79300000Y-128400000D02*
X84130000Y-128400000D01*
X84130000Y-128400000D02*
X88615000Y-132885000D01*
%TO.N,IN1*%
X109290000Y-126970000D02*
X109290000Y-120060000D01*
X109290000Y-88870000D02*
X109290000Y-81960000D01*
X109290000Y-69820000D02*
X109290000Y-81790000D01*
X109290000Y-126970000D02*
X109290000Y-138940000D01*
X101300000Y-57300000D02*
X106800000Y-57300000D01*
X109290000Y-54810000D02*
X109290000Y-50770000D01*
X109290000Y-50770000D02*
X109290000Y-62740000D01*
X106800000Y-57300000D02*
X109290000Y-54810000D01*
X109290000Y-146020000D02*
X109290000Y-139110000D01*
X109290000Y-107920000D02*
X109290000Y-119890000D01*
X109290000Y-88870000D02*
X109290000Y-100840000D01*
X109290000Y-69820000D02*
X109290000Y-62910000D01*
X109290000Y-107920000D02*
X109290000Y-101010000D01*
%TO.N,IN2*%
X128340000Y-69820000D02*
X128340000Y-81790000D01*
X128340000Y-107920000D02*
X128340000Y-119890000D01*
X128340000Y-88870000D02*
X128340000Y-100840000D01*
X83625000Y-75775000D02*
X82500000Y-76900000D01*
X128340000Y-88870000D02*
X128340000Y-81960000D01*
X116164745Y-50770000D02*
X114739745Y-49345000D01*
X101255000Y-52115991D02*
X98205991Y-55165000D01*
X83625000Y-66975000D02*
X83625000Y-75775000D01*
X128340000Y-126970000D02*
X128340000Y-120060000D01*
X114739745Y-49345000D02*
X101255000Y-49345000D01*
X95435000Y-55165000D02*
X83625000Y-66975000D01*
X128340000Y-69820000D02*
X128340000Y-50770000D01*
X128340000Y-126970000D02*
X128340000Y-138940000D01*
X128340000Y-107920000D02*
X128340000Y-101010000D01*
X128340000Y-146020000D02*
X128340000Y-139110000D01*
X98205991Y-55165000D02*
X95435000Y-55165000D01*
X128340000Y-50770000D02*
X116164745Y-50770000D01*
X101255000Y-49345000D02*
X101255000Y-52115991D01*
%TO.N,IN3*%
X147390000Y-88870000D02*
X147390000Y-100840000D01*
X147390000Y-107920000D02*
X147390000Y-101010000D01*
X85400000Y-76540000D02*
X82500000Y-79440000D01*
X147390000Y-50770000D02*
X147390000Y-69820000D01*
X147390000Y-126970000D02*
X147390000Y-138940000D01*
X147390000Y-126970000D02*
X147390000Y-120060000D01*
X147390000Y-107920000D02*
X147390000Y-119890000D01*
X147390000Y-88870000D02*
X147390000Y-81960000D01*
X147390000Y-146020000D02*
X147390000Y-139110000D01*
X85400000Y-69100000D02*
X85400000Y-76540000D01*
X147390000Y-69820000D02*
X147390000Y-81790000D01*
%TO.N,IN4*%
X166440000Y-107920000D02*
X166440000Y-119890000D01*
X166440000Y-88870000D02*
X166440000Y-81960000D01*
X166440000Y-69820000D02*
X166440000Y-50770000D01*
X166440000Y-88870000D02*
X166440000Y-100840000D01*
X166440000Y-126970000D02*
X166440000Y-120060000D01*
X166440000Y-126970000D02*
X166440000Y-138940000D01*
X166440000Y-146020000D02*
X166440000Y-139110000D01*
X166440000Y-107920000D02*
X166440000Y-101010000D01*
X166440000Y-69820000D02*
X166440000Y-81790000D01*
%TO.N,OUT6*%
X84500000Y-95100000D02*
X84500000Y-103000000D01*
X84500000Y-103000000D02*
X84400000Y-103100000D01*
X84500000Y-87700000D02*
X83700000Y-87700000D01*
X83700000Y-87700000D02*
X82500000Y-88900000D01*
%TO.N,Net-(BT1-+)*%
X89250000Y-42500000D02*
X98500000Y-42500000D01*
X80500000Y-107725305D02*
X80500000Y-95080000D01*
X88000000Y-114000000D02*
X86774695Y-114000000D01*
X86774695Y-114000000D02*
X80500000Y-107725305D01*
X79325000Y-93905000D02*
X79325000Y-52425000D01*
X80500000Y-95080000D02*
X79325000Y-93905000D01*
X79325000Y-52425000D02*
X89250000Y-42500000D01*
X98500000Y-42500000D02*
X99500000Y-43500000D01*
%TO.N,Net-(SW25-C)*%
X90020000Y-106020000D02*
X90000000Y-106000000D01*
X80500000Y-90000000D02*
X88621701Y-90000000D01*
X83300000Y-109500000D02*
X83300000Y-108100000D01*
X90020000Y-106080000D02*
X90020000Y-106020000D01*
X88621701Y-90000000D02*
X90020000Y-91398299D01*
X83300000Y-108100000D02*
X86100000Y-105300000D01*
X90020000Y-91398299D02*
X90020000Y-106080000D01*
X86100000Y-105305000D02*
X85855000Y-105550000D01*
X86100000Y-105300000D02*
X86100000Y-105305000D01*
%TO.N,STAT*%
X92560000Y-66840000D02*
X97740000Y-61660000D01*
X91400000Y-111100000D02*
X92560000Y-109940000D01*
X92560000Y-109940000D02*
X92560000Y-66840000D01*
%TD*%
%TA.AperFunction,Conductor*%
%TO.N,GND*%
G36*
X101943039Y-49690185D02*
G01*
X101988794Y-49742989D01*
X102000000Y-49794500D01*
X102000000Y-56850500D01*
X101980315Y-56917539D01*
X101927511Y-56963294D01*
X101876000Y-56974500D01*
X101868299Y-56974500D01*
X101801260Y-56954815D01*
X101769923Y-56925986D01*
X101763441Y-56917539D01*
X101728282Y-56871718D01*
X101602841Y-56775464D01*
X101503689Y-56734394D01*
X101456762Y-56714956D01*
X101456760Y-56714955D01*
X101300001Y-56694318D01*
X101299999Y-56694318D01*
X101143239Y-56714955D01*
X101143237Y-56714956D01*
X100997160Y-56775463D01*
X100871718Y-56871718D01*
X100775463Y-56997160D01*
X100714956Y-57143237D01*
X100714955Y-57143239D01*
X100694318Y-57299998D01*
X100694318Y-57300001D01*
X100714955Y-57456760D01*
X100714956Y-57456762D01*
X100775464Y-57602841D01*
X100871718Y-57728282D01*
X100997159Y-57824536D01*
X101143238Y-57885044D01*
X101221619Y-57895363D01*
X101299999Y-57905682D01*
X101300000Y-57905682D01*
X101300001Y-57905682D01*
X101352254Y-57898802D01*
X101456762Y-57885044D01*
X101602841Y-57824536D01*
X101728282Y-57728282D01*
X101769923Y-57674013D01*
X101826351Y-57632811D01*
X101868299Y-57625500D01*
X101876000Y-57625500D01*
X101943039Y-57645185D01*
X101988794Y-57697989D01*
X102000000Y-57749500D01*
X102000000Y-137876000D01*
X101980315Y-137943039D01*
X101927511Y-137988794D01*
X101876000Y-138000000D01*
X78673638Y-138000000D01*
X78606599Y-137980315D01*
X78560844Y-137927511D01*
X78549638Y-137876000D01*
X78549638Y-128773831D01*
X78569323Y-128706792D01*
X78622127Y-128661037D01*
X78691285Y-128651093D01*
X78754841Y-128680118D01*
X78772014Y-128698345D01*
X78830076Y-128774014D01*
X78871718Y-128828282D01*
X78997159Y-128924536D01*
X79143238Y-128985044D01*
X79221619Y-128995363D01*
X79299999Y-129005682D01*
X79300000Y-129005682D01*
X79300001Y-129005682D01*
X79352254Y-128998802D01*
X79456762Y-128985044D01*
X79602841Y-128924536D01*
X79728282Y-128828282D01*
X79769923Y-128774013D01*
X79826351Y-128732811D01*
X79868299Y-128725500D01*
X83943811Y-128725500D01*
X84010850Y-128745185D01*
X84031492Y-128761819D01*
X86892493Y-131622819D01*
X86925978Y-131684142D01*
X86920994Y-131753834D01*
X86879122Y-131809767D01*
X86813658Y-131834184D01*
X86804812Y-131834500D01*
X85205247Y-131834500D01*
X85146770Y-131846131D01*
X85146769Y-131846132D01*
X85080447Y-131890447D01*
X85036132Y-131956769D01*
X85036131Y-131956770D01*
X85024500Y-132015247D01*
X85024500Y-133754752D01*
X85036131Y-133813229D01*
X85036132Y-133813230D01*
X85080447Y-133879552D01*
X85146769Y-133923867D01*
X85146770Y-133923868D01*
X85205247Y-133935499D01*
X85205250Y-133935500D01*
X85205252Y-133935500D01*
X86944750Y-133935500D01*
X86944751Y-133935499D01*
X86959568Y-133932552D01*
X87003229Y-133923868D01*
X87003229Y-133923867D01*
X87003231Y-133923867D01*
X87069552Y-133879552D01*
X87113867Y-133813231D01*
X87113867Y-133813229D01*
X87113868Y-133813229D01*
X87123922Y-133762682D01*
X87125500Y-133754748D01*
X87125500Y-132155188D01*
X87145185Y-132088149D01*
X87197989Y-132042394D01*
X87267147Y-132032450D01*
X87330703Y-132061475D01*
X87337181Y-132067507D01*
X87613678Y-132344004D01*
X87647163Y-132405327D01*
X87642179Y-132475019D01*
X87640563Y-132479126D01*
X87639771Y-132481038D01*
X87639769Y-132481043D01*
X87639768Y-132481046D01*
X87612653Y-132570430D01*
X87579699Y-132679067D01*
X87559417Y-132885000D01*
X87579699Y-133090932D01*
X87579700Y-133090934D01*
X87639768Y-133288954D01*
X87737315Y-133471450D01*
X87758562Y-133497340D01*
X87868589Y-133631410D01*
X87949951Y-133698181D01*
X88028550Y-133762685D01*
X88211046Y-133860232D01*
X88409066Y-133920300D01*
X88409065Y-133920300D01*
X88427529Y-133922118D01*
X88615000Y-133940583D01*
X88820934Y-133920300D01*
X89018954Y-133860232D01*
X89201450Y-133762685D01*
X89361410Y-133631410D01*
X89478262Y-133489023D01*
X89536007Y-133449690D01*
X89605851Y-133447819D01*
X89665620Y-133484006D01*
X89681500Y-133505686D01*
X89719535Y-133571563D01*
X89719536Y-133571564D01*
X89719537Y-133571565D01*
X90403493Y-134255520D01*
X90403503Y-134255531D01*
X90407833Y-134259861D01*
X90407834Y-134259862D01*
X90468437Y-134320465D01*
X90505549Y-134341891D01*
X90505551Y-134341893D01*
X90533727Y-134358160D01*
X90542660Y-134363318D01*
X90625446Y-134385500D01*
X90625448Y-134385500D01*
X92562851Y-134385500D01*
X92562853Y-134385500D01*
X92645639Y-134363318D01*
X92719862Y-134320465D01*
X93154006Y-133886319D01*
X93215327Y-133852836D01*
X93285018Y-133857820D01*
X93289144Y-133859444D01*
X93291041Y-133860230D01*
X93291043Y-133860230D01*
X93291046Y-133860232D01*
X93489066Y-133920300D01*
X93489065Y-133920300D01*
X93507529Y-133922118D01*
X93695000Y-133940583D01*
X93900934Y-133920300D01*
X94098954Y-133860232D01*
X94281450Y-133762685D01*
X94441410Y-133631410D01*
X94572685Y-133471450D01*
X94670232Y-133288954D01*
X94690406Y-133222446D01*
X94728702Y-133164010D01*
X94792514Y-133135553D01*
X94861581Y-133146112D01*
X94913975Y-133192336D01*
X94928841Y-133226349D01*
X94961567Y-133348486D01*
X94961570Y-133348492D01*
X95061399Y-133562578D01*
X95196894Y-133756082D01*
X95363917Y-133923105D01*
X95557421Y-134058600D01*
X95771507Y-134158429D01*
X95771516Y-134158433D01*
X95985000Y-134215634D01*
X95985000Y-133318012D01*
X96042007Y-133350925D01*
X96169174Y-133385000D01*
X96300826Y-133385000D01*
X96427993Y-133350925D01*
X96485000Y-133318012D01*
X96485000Y-134215633D01*
X96698483Y-134158433D01*
X96698492Y-134158429D01*
X96912578Y-134058600D01*
X97106082Y-133923105D01*
X97273105Y-133756082D01*
X97408600Y-133562578D01*
X97508429Y-133348492D01*
X97508432Y-133348486D01*
X97565636Y-133135000D01*
X96668012Y-133135000D01*
X96700925Y-133077993D01*
X96735000Y-132950826D01*
X96735000Y-132819174D01*
X96700925Y-132692007D01*
X96668012Y-132635000D01*
X97565636Y-132635000D01*
X97565635Y-132634999D01*
X97508432Y-132421513D01*
X97508429Y-132421507D01*
X97408600Y-132207422D01*
X97408599Y-132207420D01*
X97273113Y-132013926D01*
X97273108Y-132013920D01*
X97106082Y-131846894D01*
X96912578Y-131711399D01*
X96698492Y-131611570D01*
X96698486Y-131611567D01*
X96485000Y-131554364D01*
X96485000Y-132451988D01*
X96427993Y-132419075D01*
X96300826Y-132385000D01*
X96169174Y-132385000D01*
X96042007Y-132419075D01*
X95985000Y-132451988D01*
X95985000Y-131554364D01*
X95984999Y-131554364D01*
X95771513Y-131611567D01*
X95771507Y-131611570D01*
X95557422Y-131711399D01*
X95557420Y-131711400D01*
X95363926Y-131846886D01*
X95363920Y-131846891D01*
X95196891Y-132013920D01*
X95196886Y-132013926D01*
X95061400Y-132207420D01*
X95061399Y-132207422D01*
X94961570Y-132421507D01*
X94961567Y-132421514D01*
X94928841Y-132543650D01*
X94892476Y-132603310D01*
X94829629Y-132633839D01*
X94760253Y-132625544D01*
X94706375Y-132581059D01*
X94690406Y-132547553D01*
X94670232Y-132481046D01*
X94572685Y-132298550D01*
X94490525Y-132198437D01*
X94441410Y-132138589D01*
X94291115Y-132015247D01*
X94281450Y-132007315D01*
X94098954Y-131909768D01*
X93900934Y-131849700D01*
X93900932Y-131849699D01*
X93900934Y-131849699D01*
X93695000Y-131829417D01*
X93489067Y-131849699D01*
X93291043Y-131909769D01*
X93218743Y-131948415D01*
X93108550Y-132007315D01*
X93108548Y-132007316D01*
X93108547Y-132007317D01*
X92948589Y-132138589D01*
X92817317Y-132298547D01*
X92719769Y-132481043D01*
X92659699Y-132679067D01*
X92639417Y-132885000D01*
X92659699Y-133090932D01*
X92719769Y-133288958D01*
X92720561Y-133290869D01*
X92720677Y-133291949D01*
X92721537Y-133294784D01*
X92720999Y-133294947D01*
X92728024Y-133360339D01*
X92696744Y-133422816D01*
X92693678Y-133425994D01*
X92421490Y-133698182D01*
X92360170Y-133731666D01*
X92333811Y-133734500D01*
X92078982Y-133734500D01*
X92011943Y-133714815D01*
X91966188Y-133662011D01*
X91956244Y-133592853D01*
X91983129Y-133531835D01*
X92011438Y-133497340D01*
X92032685Y-133471450D01*
X92130232Y-133288954D01*
X92190300Y-133090934D01*
X92210583Y-132885000D01*
X92190300Y-132679066D01*
X92130232Y-132481046D01*
X92130230Y-132481043D01*
X92130230Y-132481041D01*
X92129444Y-132479144D01*
X92129328Y-132478068D01*
X92128463Y-132475216D01*
X92129003Y-132475051D01*
X92121971Y-132409675D01*
X92153242Y-132347194D01*
X92156293Y-132344032D01*
X99054652Y-125445672D01*
X99054657Y-125445669D01*
X99064860Y-125435465D01*
X99064862Y-125435465D01*
X99125465Y-125374862D01*
X99168318Y-125300638D01*
X99190501Y-125217852D01*
X99190501Y-125132147D01*
X99190501Y-125124552D01*
X99190500Y-125124534D01*
X99190500Y-61151158D01*
X99190500Y-61151156D01*
X99168318Y-61068371D01*
X99168314Y-61068364D01*
X99125469Y-60994153D01*
X99125463Y-60994145D01*
X98405855Y-60274537D01*
X98405853Y-60274535D01*
X98363590Y-60250134D01*
X98331631Y-60231682D01*
X98304794Y-60224491D01*
X98269024Y-60214907D01*
X98209365Y-60178543D01*
X98178836Y-60115697D01*
X98187130Y-60046321D01*
X98231616Y-59992443D01*
X98242666Y-59985775D01*
X98298532Y-59955913D01*
X98298538Y-59955910D01*
X98450883Y-59830883D01*
X98575910Y-59678538D01*
X98622362Y-59591632D01*
X98668811Y-59504733D01*
X98668811Y-59504732D01*
X98668814Y-59504727D01*
X98726024Y-59316132D01*
X98745341Y-59120000D01*
X98726024Y-58923868D01*
X98668814Y-58735273D01*
X98668811Y-58735269D01*
X98668811Y-58735266D01*
X98575913Y-58561467D01*
X98575909Y-58561460D01*
X98450883Y-58409116D01*
X98298539Y-58284090D01*
X98298532Y-58284086D01*
X98124733Y-58191188D01*
X98124727Y-58191186D01*
X97936132Y-58133976D01*
X97936129Y-58133975D01*
X97740000Y-58114659D01*
X97543870Y-58133975D01*
X97355266Y-58191188D01*
X97181467Y-58284086D01*
X97181460Y-58284090D01*
X97029116Y-58409116D01*
X96904090Y-58561460D01*
X96904086Y-58561467D01*
X96811188Y-58735266D01*
X96753975Y-58923870D01*
X96734659Y-59120000D01*
X96753975Y-59316129D01*
X96753976Y-59316132D01*
X96809106Y-59497870D01*
X96809729Y-59567735D01*
X96778126Y-59621545D01*
X89739537Y-66660135D01*
X89739533Y-66660141D01*
X89696681Y-66734361D01*
X89696682Y-66734362D01*
X89674500Y-66817147D01*
X89674500Y-68131699D01*
X89654815Y-68198738D01*
X89625988Y-68230074D01*
X89571720Y-68271715D01*
X89475463Y-68397160D01*
X89414956Y-68543237D01*
X89414955Y-68543239D01*
X89394318Y-68699998D01*
X89394318Y-68700001D01*
X89414955Y-68856760D01*
X89414956Y-68856762D01*
X89450775Y-68943238D01*
X89475464Y-69002841D01*
X89571718Y-69128282D01*
X89697159Y-69224536D01*
X89843238Y-69285044D01*
X89921619Y-69295363D01*
X89999999Y-69305682D01*
X90000000Y-69305682D01*
X90000001Y-69305682D01*
X90052254Y-69298802D01*
X90156762Y-69285044D01*
X90302841Y-69224536D01*
X90428282Y-69128282D01*
X90524536Y-69002841D01*
X90585044Y-68856762D01*
X90585044Y-68856754D01*
X90585725Y-68854219D01*
X90586885Y-68852314D01*
X90588154Y-68849253D01*
X90588631Y-68849450D01*
X90622090Y-68794559D01*
X90684936Y-68764029D01*
X90754312Y-68772323D01*
X90808190Y-68816808D01*
X90829465Y-68883360D01*
X90829500Y-68886312D01*
X90829500Y-88600802D01*
X90809815Y-88667841D01*
X90757011Y-88713596D01*
X90687853Y-88723540D01*
X90624297Y-88694515D01*
X90617819Y-88688483D01*
X82571300Y-80641964D01*
X82537815Y-80580641D01*
X82542799Y-80510949D01*
X82584671Y-80455016D01*
X82646827Y-80430880D01*
X82696132Y-80426024D01*
X82884727Y-80368814D01*
X83058538Y-80275910D01*
X83210883Y-80150883D01*
X83335910Y-79998538D01*
X83428814Y-79824727D01*
X83486024Y-79636132D01*
X83505341Y-79440000D01*
X83486024Y-79243868D01*
X83430892Y-79062126D01*
X83430270Y-78992262D01*
X83461871Y-78938454D01*
X85660465Y-76739862D01*
X85681246Y-76703868D01*
X85703318Y-76665638D01*
X85725500Y-76582853D01*
X85725500Y-69668298D01*
X85745185Y-69601259D01*
X85774010Y-69569925D01*
X85828282Y-69528282D01*
X85924536Y-69402841D01*
X85985044Y-69256762D01*
X86005682Y-69100000D01*
X86003558Y-69083870D01*
X85985044Y-68943239D01*
X85985044Y-68943238D01*
X85924536Y-68797159D01*
X85828282Y-68671718D01*
X85702841Y-68575464D01*
X85556762Y-68514956D01*
X85556760Y-68514955D01*
X85400001Y-68494318D01*
X85399999Y-68494318D01*
X85243239Y-68514955D01*
X85243237Y-68514956D01*
X85097160Y-68575463D01*
X84971718Y-68671718D01*
X84875463Y-68797160D01*
X84814956Y-68943237D01*
X84814955Y-68943239D01*
X84794318Y-69099998D01*
X84794318Y-69100001D01*
X84814955Y-69256760D01*
X84814956Y-69256762D01*
X84824581Y-69280000D01*
X84875464Y-69402841D01*
X84971718Y-69528282D01*
X85025987Y-69569924D01*
X85067189Y-69626349D01*
X85074500Y-69668298D01*
X85074500Y-76353810D01*
X85054815Y-76420849D01*
X85038181Y-76441491D01*
X83001545Y-78478126D01*
X82940222Y-78511611D01*
X82877870Y-78509106D01*
X82696132Y-78453976D01*
X82696129Y-78453975D01*
X82500000Y-78434659D01*
X82303870Y-78453975D01*
X82115266Y-78511188D01*
X81941467Y-78604086D01*
X81941460Y-78604091D01*
X81903165Y-78635519D01*
X81838855Y-78662832D01*
X81769987Y-78651041D01*
X81718427Y-78603889D01*
X81700500Y-78539666D01*
X81700500Y-77800333D01*
X81720185Y-77733294D01*
X81772989Y-77687539D01*
X81842147Y-77677595D01*
X81903166Y-77704481D01*
X81941459Y-77735908D01*
X81941467Y-77735913D01*
X82115266Y-77828811D01*
X82115269Y-77828811D01*
X82115273Y-77828814D01*
X82303868Y-77886024D01*
X82500000Y-77905341D01*
X82696132Y-77886024D01*
X82884727Y-77828814D01*
X83058538Y-77735910D01*
X83210883Y-77610883D01*
X83335910Y-77458538D01*
X83428814Y-77284727D01*
X83486024Y-77096132D01*
X83505341Y-76900000D01*
X83486024Y-76703868D01*
X83430892Y-76522126D01*
X83430270Y-76452262D01*
X83461871Y-76398454D01*
X83885465Y-75974862D01*
X83928318Y-75900639D01*
X83950500Y-75817853D01*
X83950500Y-75732147D01*
X83950500Y-67161189D01*
X83970185Y-67094150D01*
X83986819Y-67073508D01*
X86060329Y-64999998D01*
X88194318Y-64999998D01*
X88194318Y-65000001D01*
X88214955Y-65156760D01*
X88214956Y-65156762D01*
X88275464Y-65302841D01*
X88371718Y-65428282D01*
X88425987Y-65469924D01*
X88467189Y-65526349D01*
X88474500Y-65568298D01*
X88474500Y-84642852D01*
X88496682Y-84725640D01*
X88518108Y-84762750D01*
X88539535Y-84799862D01*
X88539537Y-84799864D01*
X88867988Y-85128315D01*
X88901473Y-85189638D01*
X88903246Y-85232181D01*
X88894318Y-85299998D01*
X88894318Y-85300001D01*
X88914955Y-85456760D01*
X88914956Y-85456762D01*
X88975464Y-85602841D01*
X89071718Y-85728282D01*
X89197159Y-85824536D01*
X89343238Y-85885044D01*
X89421619Y-85895363D01*
X89499999Y-85905682D01*
X89500000Y-85905682D01*
X89500001Y-85905682D01*
X89552254Y-85898802D01*
X89656762Y-85885044D01*
X89802841Y-85824536D01*
X89928282Y-85728282D01*
X90024536Y-85602841D01*
X90085044Y-85456762D01*
X90102452Y-85324536D01*
X90105682Y-85300001D01*
X90105682Y-85299998D01*
X90085044Y-85143239D01*
X90085044Y-85143238D01*
X90024536Y-84997159D01*
X89928282Y-84871718D01*
X89802841Y-84775464D01*
X89656762Y-84714956D01*
X89656760Y-84714955D01*
X89500001Y-84694318D01*
X89499999Y-84694318D01*
X89432181Y-84703246D01*
X89363145Y-84692480D01*
X89328315Y-84667988D01*
X89161819Y-84501492D01*
X89128334Y-84440169D01*
X89125500Y-84413811D01*
X89125500Y-65568298D01*
X89145185Y-65501259D01*
X89174010Y-65469925D01*
X89228282Y-65428282D01*
X89324536Y-65302841D01*
X89385044Y-65156762D01*
X89405682Y-65000000D01*
X89385044Y-64843238D01*
X89324536Y-64697159D01*
X89228282Y-64571718D01*
X89102841Y-64475464D01*
X88956762Y-64414956D01*
X88956760Y-64414955D01*
X88800001Y-64394318D01*
X88799999Y-64394318D01*
X88643239Y-64414955D01*
X88643237Y-64414956D01*
X88497160Y-64475463D01*
X88371718Y-64571718D01*
X88275463Y-64697160D01*
X88214956Y-64843237D01*
X88214955Y-64843239D01*
X88194318Y-64999998D01*
X86060329Y-64999998D01*
X95533508Y-55526819D01*
X95594831Y-55493334D01*
X95621189Y-55490500D01*
X97160859Y-55490500D01*
X97227898Y-55510185D01*
X97273653Y-55562989D01*
X97283597Y-55632147D01*
X97254572Y-55695703D01*
X97219312Y-55723858D01*
X97181467Y-55744086D01*
X97181460Y-55744090D01*
X97029116Y-55869116D01*
X96904090Y-56021460D01*
X96904086Y-56021467D01*
X96811188Y-56195266D01*
X96753975Y-56383870D01*
X96734659Y-56580000D01*
X96753975Y-56776129D01*
X96753976Y-56776132D01*
X96791575Y-56900080D01*
X96811188Y-56964733D01*
X96904086Y-57138532D01*
X96904090Y-57138539D01*
X97029116Y-57290883D01*
X97181460Y-57415909D01*
X97181467Y-57415913D01*
X97355266Y-57508811D01*
X97355269Y-57508811D01*
X97355273Y-57508814D01*
X97543868Y-57566024D01*
X97740000Y-57585341D01*
X97936132Y-57566024D01*
X98124727Y-57508814D01*
X98298538Y-57415910D01*
X98450883Y-57290883D01*
X98575910Y-57138538D01*
X98651734Y-56996682D01*
X98668811Y-56964733D01*
X98668811Y-56964732D01*
X98668814Y-56964727D01*
X98726024Y-56776132D01*
X98745341Y-56580000D01*
X98726024Y-56383868D01*
X98668814Y-56195273D01*
X98668811Y-56195269D01*
X98668811Y-56195266D01*
X98575913Y-56021467D01*
X98575909Y-56021460D01*
X98450883Y-55869116D01*
X98298539Y-55744090D01*
X98298535Y-55744088D01*
X98242665Y-55714224D01*
X98192821Y-55665261D01*
X98177361Y-55597123D01*
X98201193Y-55531443D01*
X98256752Y-55489075D01*
X98269013Y-55485095D01*
X98331630Y-55468318D01*
X98405853Y-55425465D01*
X101515465Y-52315853D01*
X101558318Y-52241630D01*
X101580500Y-52158844D01*
X101580500Y-52073138D01*
X101580500Y-49794500D01*
X101600185Y-49727461D01*
X101652989Y-49681706D01*
X101704500Y-49670500D01*
X101876000Y-49670500D01*
X101943039Y-49690185D01*
G37*
%TD.AperFunction*%
%TA.AperFunction,Conductor*%
G36*
X82750000Y-58804314D02*
G01*
X82745606Y-58799920D01*
X82654394Y-58747259D01*
X82552661Y-58720000D01*
X82447339Y-58720000D01*
X82345606Y-58747259D01*
X82254394Y-58799920D01*
X82250000Y-58804314D01*
X82250000Y-56895686D01*
X82254394Y-56900080D01*
X82345606Y-56952741D01*
X82447339Y-56980000D01*
X82552661Y-56980000D01*
X82654394Y-56952741D01*
X82745606Y-56900080D01*
X82750000Y-56895686D01*
X82750000Y-58804314D01*
G37*
%TD.AperFunction*%
%TA.AperFunction,Conductor*%
G36*
X101942933Y-41149510D02*
G01*
X101988742Y-41202267D01*
X102000000Y-41253894D01*
X102000000Y-48895500D01*
X101980315Y-48962539D01*
X101927511Y-49008294D01*
X101876000Y-49019500D01*
X101212147Y-49019500D01*
X101129362Y-49041682D01*
X101129355Y-49041685D01*
X101055144Y-49084530D01*
X101055136Y-49084536D01*
X100994536Y-49145136D01*
X100994530Y-49145144D01*
X100951685Y-49219355D01*
X100951682Y-49219362D01*
X100929500Y-49302147D01*
X100929500Y-51929801D01*
X100909815Y-51996840D01*
X100893181Y-52017482D01*
X98941963Y-53968699D01*
X98880640Y-54002184D01*
X98810948Y-53997200D01*
X98755015Y-53955328D01*
X98730879Y-53893172D01*
X98726024Y-53843868D01*
X98668814Y-53655273D01*
X98668811Y-53655269D01*
X98668811Y-53655266D01*
X98575913Y-53481467D01*
X98575909Y-53481460D01*
X98450883Y-53329116D01*
X98298539Y-53204090D01*
X98298532Y-53204086D01*
X98124733Y-53111188D01*
X98124727Y-53111186D01*
X97936132Y-53053976D01*
X97936129Y-53053975D01*
X97740000Y-53034659D01*
X97543870Y-53053975D01*
X97355266Y-53111188D01*
X97181467Y-53204086D01*
X97181460Y-53204090D01*
X97029116Y-53329116D01*
X96904090Y-53481460D01*
X96904086Y-53481467D01*
X96811188Y-53655266D01*
X96753975Y-53843870D01*
X96734659Y-54040000D01*
X96753975Y-54236129D01*
X96811188Y-54424733D01*
X96904086Y-54598532D01*
X96904091Y-54598539D01*
X96935519Y-54636835D01*
X96962832Y-54701145D01*
X96951041Y-54770013D01*
X96903889Y-54821573D01*
X96839666Y-54839500D01*
X95392147Y-54839500D01*
X95309359Y-54861682D01*
X95235138Y-54904535D01*
X95235135Y-54904537D01*
X83657861Y-66481810D01*
X83596538Y-66515295D01*
X83526846Y-66510311D01*
X83470913Y-66468439D01*
X83451521Y-66430128D01*
X83428814Y-66355273D01*
X83428812Y-66355270D01*
X83428812Y-66355268D01*
X83335913Y-66181467D01*
X83335909Y-66181460D01*
X83210883Y-66029116D01*
X83058539Y-65904090D01*
X83058532Y-65904086D01*
X82884733Y-65811188D01*
X82884727Y-65811186D01*
X82696132Y-65753976D01*
X82696129Y-65753975D01*
X82500000Y-65734659D01*
X82303870Y-65753975D01*
X82115266Y-65811188D01*
X81941467Y-65904086D01*
X81941460Y-65904090D01*
X81789116Y-66029116D01*
X81664090Y-66181460D01*
X81664086Y-66181467D01*
X81571188Y-66355266D01*
X81513975Y-66543870D01*
X81494659Y-66740000D01*
X81513975Y-66936129D01*
X81513976Y-66936132D01*
X81569106Y-67117870D01*
X81569729Y-67187735D01*
X81538126Y-67241545D01*
X81114537Y-67665135D01*
X81114533Y-67665141D01*
X81071681Y-67739361D01*
X81071682Y-67739362D01*
X81049500Y-67822147D01*
X81049500Y-79948843D01*
X81071682Y-80031631D01*
X81093108Y-80068741D01*
X81114535Y-80105853D01*
X81114536Y-80105854D01*
X81114537Y-80105855D01*
X90890194Y-89881511D01*
X90890204Y-89881522D01*
X90894534Y-89885852D01*
X90894535Y-89885853D01*
X90955138Y-89946456D01*
X90955140Y-89946457D01*
X90955141Y-89946458D01*
X91029358Y-89989307D01*
X91029359Y-89989308D01*
X91029361Y-89989308D01*
X91029362Y-89989309D01*
X91112147Y-90011492D01*
X91112149Y-90011492D01*
X91197851Y-90011492D01*
X91197853Y-90011492D01*
X91280639Y-89989309D01*
X91354862Y-89946456D01*
X91415465Y-89885853D01*
X91458318Y-89811630D01*
X91480501Y-89728844D01*
X91480501Y-89643138D01*
X91480501Y-89635543D01*
X91480500Y-89635525D01*
X91480500Y-66840196D01*
X91500185Y-66773157D01*
X91516814Y-66752520D01*
X96538037Y-61731296D01*
X96599358Y-61697813D01*
X96669050Y-61702797D01*
X96724983Y-61744669D01*
X96749119Y-61806823D01*
X96753975Y-61856129D01*
X96754167Y-61856762D01*
X96809106Y-62037870D01*
X96809729Y-62107735D01*
X96778126Y-62161545D01*
X92299537Y-66640135D01*
X92299535Y-66640138D01*
X92256681Y-66714361D01*
X92256681Y-66714362D01*
X92251322Y-66734359D01*
X92251323Y-66734360D01*
X92234500Y-66797145D01*
X92234500Y-90961017D01*
X92214815Y-91028056D01*
X92162011Y-91073811D01*
X92092853Y-91083755D01*
X92031836Y-91056871D01*
X91971453Y-91007317D01*
X91971451Y-91007316D01*
X91971450Y-91007315D01*
X91815546Y-90923982D01*
X91788956Y-90909769D01*
X91788955Y-90909768D01*
X91788954Y-90909768D01*
X91590934Y-90849700D01*
X91590932Y-90849699D01*
X91590934Y-90849699D01*
X91385000Y-90829417D01*
X91179067Y-90849699D01*
X91067054Y-90883678D01*
X90981046Y-90909768D01*
X90981043Y-90909769D01*
X90981041Y-90909770D01*
X90979132Y-90910561D01*
X90978051Y-90910677D01*
X90975217Y-90911537D01*
X90975053Y-90910999D01*
X90909662Y-90918026D01*
X90847185Y-90886747D01*
X90844005Y-90883678D01*
X84499864Y-84539537D01*
X84499862Y-84539535D01*
X84462750Y-84518108D01*
X84425640Y-84496682D01*
X84384246Y-84485591D01*
X84342853Y-84474500D01*
X84342852Y-84474500D01*
X80868299Y-84474500D01*
X80801260Y-84454815D01*
X80769923Y-84425986D01*
X80728283Y-84371719D01*
X80728282Y-84371718D01*
X80602841Y-84275464D01*
X80456762Y-84214956D01*
X80456760Y-84214955D01*
X80300001Y-84194318D01*
X80299999Y-84194318D01*
X80143239Y-84214955D01*
X80143237Y-84214956D01*
X79997160Y-84275463D01*
X79871713Y-84371722D01*
X79865971Y-84377465D01*
X79864691Y-84376185D01*
X79816445Y-84411413D01*
X79746699Y-84415566D01*
X79685780Y-84381353D01*
X79653028Y-84319635D01*
X79650500Y-84294723D01*
X79650500Y-64200000D01*
X81494659Y-64200000D01*
X81513975Y-64396129D01*
X81571188Y-64584733D01*
X81664086Y-64758532D01*
X81664090Y-64758539D01*
X81789116Y-64910883D01*
X81941460Y-65035909D01*
X81941467Y-65035913D01*
X82115266Y-65128811D01*
X82115269Y-65128811D01*
X82115273Y-65128814D01*
X82303868Y-65186024D01*
X82500000Y-65205341D01*
X82696132Y-65186024D01*
X82884727Y-65128814D01*
X83058538Y-65035910D01*
X83210883Y-64910883D01*
X83335910Y-64758538D01*
X83428814Y-64584727D01*
X83486024Y-64396132D01*
X83505341Y-64200000D01*
X83486024Y-64003868D01*
X83428814Y-63815273D01*
X83428811Y-63815269D01*
X83428811Y-63815266D01*
X83335913Y-63641467D01*
X83335909Y-63641460D01*
X83210883Y-63489116D01*
X83058539Y-63364090D01*
X83058532Y-63364086D01*
X82884733Y-63271188D01*
X82884727Y-63271186D01*
X82696132Y-63213976D01*
X82696129Y-63213975D01*
X82500000Y-63194659D01*
X82303870Y-63213975D01*
X82115266Y-63271188D01*
X81941467Y-63364086D01*
X81941460Y-63364090D01*
X81789116Y-63489116D01*
X81664090Y-63641460D01*
X81664086Y-63641467D01*
X81571188Y-63815266D01*
X81513975Y-64003870D01*
X81494659Y-64200000D01*
X79650500Y-64200000D01*
X79650500Y-61660000D01*
X81494659Y-61660000D01*
X81513975Y-61856129D01*
X81514167Y-61856762D01*
X81569105Y-62037868D01*
X81571188Y-62044733D01*
X81664086Y-62218532D01*
X81664090Y-62218539D01*
X81789116Y-62370883D01*
X81941460Y-62495909D01*
X81941467Y-62495913D01*
X82115266Y-62588811D01*
X82115269Y-62588811D01*
X82115273Y-62588814D01*
X82303868Y-62646024D01*
X82500000Y-62665341D01*
X82696132Y-62646024D01*
X82884727Y-62588814D01*
X82939312Y-62559638D01*
X82971632Y-62542362D01*
X83058538Y-62495910D01*
X83210883Y-62370883D01*
X83335910Y-62218538D01*
X83335910Y-62218536D01*
X83335914Y-62218532D01*
X83425437Y-62051047D01*
X83474399Y-62001202D01*
X83534795Y-61985500D01*
X86501008Y-61985500D01*
X86568047Y-62005185D01*
X86599384Y-62034014D01*
X86655951Y-62107735D01*
X86671718Y-62128282D01*
X86797159Y-62224536D01*
X86943238Y-62285044D01*
X87021619Y-62295363D01*
X87099999Y-62305682D01*
X87100000Y-62305682D01*
X87100001Y-62305682D01*
X87152254Y-62298802D01*
X87256762Y-62285044D01*
X87402841Y-62224536D01*
X87528282Y-62128282D01*
X87624536Y-62002841D01*
X87685044Y-61856762D01*
X87705682Y-61700000D01*
X87685044Y-61543238D01*
X87624536Y-61397159D01*
X87528282Y-61271718D01*
X87402841Y-61175464D01*
X87344156Y-61151156D01*
X87256762Y-61114956D01*
X87256760Y-61114955D01*
X87100001Y-61094318D01*
X87099999Y-61094318D01*
X86943239Y-61114955D01*
X86943237Y-61114956D01*
X86797160Y-61175463D01*
X86797159Y-61175464D01*
X86671718Y-61271718D01*
X86660767Y-61285988D01*
X86604342Y-61327189D01*
X86562394Y-61334500D01*
X83534795Y-61334500D01*
X83467756Y-61314815D01*
X83425437Y-61268953D01*
X83335914Y-61101467D01*
X83335909Y-61101460D01*
X83210883Y-60949116D01*
X83058539Y-60824090D01*
X83058532Y-60824086D01*
X82884733Y-60731188D01*
X82884727Y-60731186D01*
X82696132Y-60673976D01*
X82696129Y-60673975D01*
X82500000Y-60654659D01*
X82303870Y-60673975D01*
X82115266Y-60731188D01*
X81941467Y-60824086D01*
X81941460Y-60824090D01*
X81789116Y-60949116D01*
X81664090Y-61101460D01*
X81664086Y-61101467D01*
X81571188Y-61275266D01*
X81513975Y-61463870D01*
X81494659Y-61660000D01*
X79650500Y-61660000D01*
X79650500Y-56329999D01*
X81221127Y-56329999D01*
X81221128Y-56330000D01*
X82184314Y-56330000D01*
X82179920Y-56334394D01*
X82127259Y-56425606D01*
X82100000Y-56527339D01*
X82100000Y-56632661D01*
X82127259Y-56734394D01*
X82179920Y-56825606D01*
X82184314Y-56830000D01*
X81221128Y-56830000D01*
X81273730Y-57026317D01*
X81273734Y-57026326D01*
X81369865Y-57232482D01*
X81500342Y-57418820D01*
X81661179Y-57579657D01*
X81847517Y-57710134D01*
X81906457Y-57737618D01*
X81958896Y-57783790D01*
X81978048Y-57850984D01*
X81957832Y-57917865D01*
X81906457Y-57962382D01*
X81847517Y-57989865D01*
X81661179Y-58120342D01*
X81500342Y-58281179D01*
X81369865Y-58467517D01*
X81273734Y-58673673D01*
X81273730Y-58673682D01*
X81221127Y-58869999D01*
X81221128Y-58870000D01*
X82184314Y-58870000D01*
X82179920Y-58874394D01*
X82127259Y-58965606D01*
X82100000Y-59067339D01*
X82100000Y-59172661D01*
X82127259Y-59274394D01*
X82179920Y-59365606D01*
X82184314Y-59370000D01*
X81221128Y-59370000D01*
X81273730Y-59566317D01*
X81273734Y-59566326D01*
X81369865Y-59772482D01*
X81500342Y-59958820D01*
X81661179Y-60119657D01*
X81847517Y-60250134D01*
X82053673Y-60346265D01*
X82053682Y-60346269D01*
X82249999Y-60398872D01*
X82250000Y-60398871D01*
X82250000Y-59435686D01*
X82254394Y-59440080D01*
X82345606Y-59492741D01*
X82447339Y-59520000D01*
X82552661Y-59520000D01*
X82654394Y-59492741D01*
X82745606Y-59440080D01*
X82750000Y-59435686D01*
X82750000Y-60398872D01*
X82946317Y-60346269D01*
X82946326Y-60346265D01*
X83152482Y-60250134D01*
X83338820Y-60119657D01*
X83499657Y-59958820D01*
X83630134Y-59772482D01*
X83726265Y-59566326D01*
X83726269Y-59566317D01*
X83778872Y-59370000D01*
X82815686Y-59370000D01*
X82820080Y-59365606D01*
X82872741Y-59274394D01*
X82900000Y-59172661D01*
X82900000Y-59067339D01*
X82872741Y-58965606D01*
X82820080Y-58874394D01*
X82815686Y-58870000D01*
X83778872Y-58870000D01*
X83778872Y-58869999D01*
X83726269Y-58673682D01*
X83726265Y-58673673D01*
X83630134Y-58467517D01*
X83499657Y-58281179D01*
X83338820Y-58120342D01*
X83152481Y-57989865D01*
X83152479Y-57989864D01*
X83093543Y-57962382D01*
X83041103Y-57916210D01*
X83021951Y-57849017D01*
X83042166Y-57782136D01*
X83093543Y-57737618D01*
X83152479Y-57710135D01*
X83152481Y-57710134D01*
X83338820Y-57579657D01*
X83499657Y-57418820D01*
X83630134Y-57232482D01*
X83726265Y-57026326D01*
X83726269Y-57026317D01*
X83778872Y-56830000D01*
X82815686Y-56830000D01*
X82820080Y-56825606D01*
X82872741Y-56734394D01*
X82900000Y-56632661D01*
X82900000Y-56527339D01*
X82872741Y-56425606D01*
X82820080Y-56334394D01*
X82815686Y-56330000D01*
X83778872Y-56330000D01*
X83778872Y-56329999D01*
X83726269Y-56133682D01*
X83726265Y-56133673D01*
X83630134Y-55927517D01*
X83499657Y-55741179D01*
X83338820Y-55580342D01*
X83152482Y-55449865D01*
X82946328Y-55353734D01*
X82750000Y-55301127D01*
X82750000Y-56264314D01*
X82745606Y-56259920D01*
X82654394Y-56207259D01*
X82552661Y-56180000D01*
X82447339Y-56180000D01*
X82345606Y-56207259D01*
X82254394Y-56259920D01*
X82250000Y-56264314D01*
X82250000Y-55301127D01*
X82053671Y-55353734D01*
X81847517Y-55449865D01*
X81661179Y-55580342D01*
X81500342Y-55741179D01*
X81369865Y-55927517D01*
X81273734Y-56133673D01*
X81273730Y-56133682D01*
X81221127Y-56329999D01*
X79650500Y-56329999D01*
X79650500Y-54040000D01*
X81494659Y-54040000D01*
X81513975Y-54236129D01*
X81571188Y-54424733D01*
X81664086Y-54598532D01*
X81664090Y-54598539D01*
X81789116Y-54750883D01*
X81941460Y-54875909D01*
X81941467Y-54875913D01*
X82115266Y-54968811D01*
X82115269Y-54968811D01*
X82115273Y-54968814D01*
X82303868Y-55026024D01*
X82500000Y-55045341D01*
X82696132Y-55026024D01*
X82884727Y-54968814D01*
X83058538Y-54875910D01*
X83210883Y-54750883D01*
X83335910Y-54598538D01*
X83428814Y-54424727D01*
X83486024Y-54236132D01*
X83505341Y-54040000D01*
X83486024Y-53843868D01*
X83428814Y-53655273D01*
X83428811Y-53655269D01*
X83428811Y-53655266D01*
X83335913Y-53481467D01*
X83335909Y-53481460D01*
X83210883Y-53329116D01*
X83058539Y-53204090D01*
X83058532Y-53204086D01*
X82884733Y-53111188D01*
X82884727Y-53111186D01*
X82696132Y-53053976D01*
X82696129Y-53053975D01*
X82500000Y-53034659D01*
X82303870Y-53053975D01*
X82115266Y-53111188D01*
X81941467Y-53204086D01*
X81941460Y-53204090D01*
X81789116Y-53329116D01*
X81664090Y-53481460D01*
X81664086Y-53481467D01*
X81571188Y-53655266D01*
X81513975Y-53843870D01*
X81494659Y-54040000D01*
X79650500Y-54040000D01*
X79650500Y-52611188D01*
X79670185Y-52544149D01*
X79686819Y-52523507D01*
X81287819Y-50922507D01*
X81349142Y-50889022D01*
X81418834Y-50894006D01*
X81474767Y-50935878D01*
X81499184Y-51001342D01*
X81499500Y-51010188D01*
X81499500Y-52319752D01*
X81511131Y-52378229D01*
X81511132Y-52378230D01*
X81555447Y-52444552D01*
X81621769Y-52488867D01*
X81621770Y-52488868D01*
X81680247Y-52500499D01*
X81680250Y-52500500D01*
X81680252Y-52500500D01*
X83319750Y-52500500D01*
X83319751Y-52500499D01*
X83334568Y-52497552D01*
X83378229Y-52488868D01*
X83378229Y-52488867D01*
X83378231Y-52488867D01*
X83444552Y-52444552D01*
X83488867Y-52378231D01*
X83488867Y-52378229D01*
X83488868Y-52378229D01*
X83500499Y-52319752D01*
X83500500Y-52319750D01*
X83500500Y-51500000D01*
X96734659Y-51500000D01*
X96753975Y-51696129D01*
X96811188Y-51884733D01*
X96904086Y-52058532D01*
X96904090Y-52058539D01*
X97029116Y-52210883D01*
X97181460Y-52335909D01*
X97181467Y-52335913D01*
X97355266Y-52428811D01*
X97355269Y-52428811D01*
X97355273Y-52428814D01*
X97543868Y-52486024D01*
X97740000Y-52505341D01*
X97936132Y-52486024D01*
X98124727Y-52428814D01*
X98298538Y-52335910D01*
X98450883Y-52210883D01*
X98575910Y-52058538D01*
X98622362Y-51971632D01*
X98668811Y-51884733D01*
X98668811Y-51884732D01*
X98668814Y-51884727D01*
X98726024Y-51696132D01*
X98745341Y-51500000D01*
X98726024Y-51303868D01*
X98668814Y-51115273D01*
X98668811Y-51115269D01*
X98668811Y-51115266D01*
X98575913Y-50941467D01*
X98575909Y-50941460D01*
X98450883Y-50789116D01*
X98298539Y-50664090D01*
X98298532Y-50664086D01*
X98124733Y-50571188D01*
X98124727Y-50571186D01*
X97936132Y-50513976D01*
X97936129Y-50513975D01*
X97740000Y-50494659D01*
X97543870Y-50513975D01*
X97355266Y-50571188D01*
X97181467Y-50664086D01*
X97181460Y-50664090D01*
X97029116Y-50789116D01*
X96904090Y-50941460D01*
X96904086Y-50941467D01*
X96811188Y-51115266D01*
X96753975Y-51303870D01*
X96734659Y-51500000D01*
X83500500Y-51500000D01*
X83500500Y-50680249D01*
X83500499Y-50680247D01*
X83488868Y-50621770D01*
X83488867Y-50621769D01*
X83444552Y-50555447D01*
X83378230Y-50511132D01*
X83378229Y-50511131D01*
X83319752Y-50499500D01*
X83319748Y-50499500D01*
X82010189Y-50499500D01*
X81943150Y-50479815D01*
X81897395Y-50427011D01*
X81887451Y-50357853D01*
X81916476Y-50294297D01*
X81922508Y-50287819D01*
X89348507Y-42861819D01*
X89409830Y-42828334D01*
X89436188Y-42825500D01*
X96322984Y-42825500D01*
X96390023Y-42845185D01*
X96435778Y-42897989D01*
X96445722Y-42967147D01*
X96433984Y-43004772D01*
X96399651Y-43073719D01*
X96349494Y-43249999D01*
X96349495Y-43250000D01*
X97184314Y-43250000D01*
X97179920Y-43254394D01*
X97127259Y-43345606D01*
X97100000Y-43447339D01*
X97100000Y-43552661D01*
X97127259Y-43654394D01*
X97179920Y-43745606D01*
X97184314Y-43750000D01*
X96349495Y-43750000D01*
X96399651Y-43926280D01*
X96496715Y-44121208D01*
X96627945Y-44294985D01*
X96788868Y-44441685D01*
X96974012Y-44556322D01*
X96974023Y-44556327D01*
X97177060Y-44634984D01*
X97250000Y-44648619D01*
X97250000Y-43815686D01*
X97254394Y-43820080D01*
X97345606Y-43872741D01*
X97447339Y-43900000D01*
X97552661Y-43900000D01*
X97654394Y-43872741D01*
X97745606Y-43820080D01*
X97750000Y-43815686D01*
X97750000Y-44648619D01*
X97822939Y-44634984D01*
X98025976Y-44556327D01*
X98025987Y-44556322D01*
X98211130Y-44441685D01*
X98211131Y-44441685D01*
X98372055Y-44294984D01*
X98372057Y-44294982D01*
X98423172Y-44227296D01*
X98479281Y-44185659D01*
X98548993Y-44180968D01*
X98610175Y-44214710D01*
X98629137Y-44243217D01*
X98629348Y-44243077D01*
X98680447Y-44319552D01*
X98746769Y-44363867D01*
X98746770Y-44363868D01*
X98805247Y-44375499D01*
X98805250Y-44375500D01*
X98805252Y-44375500D01*
X100194750Y-44375500D01*
X100194751Y-44375499D01*
X100209568Y-44372552D01*
X100253229Y-44363868D01*
X100253229Y-44363867D01*
X100253231Y-44363867D01*
X100319552Y-44319552D01*
X100363867Y-44253231D01*
X100363867Y-44253229D01*
X100363868Y-44253229D01*
X100375499Y-44194752D01*
X100375500Y-44194750D01*
X100375500Y-42805249D01*
X100375499Y-42805247D01*
X100363868Y-42746770D01*
X100363867Y-42746769D01*
X100319552Y-42680447D01*
X100253230Y-42636132D01*
X100253229Y-42636131D01*
X100194752Y-42624500D01*
X100194748Y-42624500D01*
X99136189Y-42624500D01*
X99069150Y-42604815D01*
X99048508Y-42588181D01*
X98699864Y-42239537D01*
X98699862Y-42239535D01*
X98662750Y-42218108D01*
X98625640Y-42196682D01*
X98584246Y-42185591D01*
X98542853Y-42174500D01*
X98542852Y-42174500D01*
X89300465Y-42174500D01*
X89300449Y-42174499D01*
X89292853Y-42174499D01*
X89207147Y-42174499D01*
X89174033Y-42183372D01*
X89124359Y-42196682D01*
X89124358Y-42196683D01*
X89050141Y-42239532D01*
X89050136Y-42239536D01*
X79064537Y-52225135D01*
X79064535Y-52225138D01*
X79021682Y-52299361D01*
X79011889Y-52335910D01*
X79011889Y-52335911D01*
X79011888Y-52335910D01*
X78999500Y-52382145D01*
X78999500Y-93947852D01*
X79021682Y-94030640D01*
X79043108Y-94067750D01*
X79064535Y-94104862D01*
X79064537Y-94104864D01*
X79413181Y-94453508D01*
X79446666Y-94514831D01*
X79449500Y-94541189D01*
X79449500Y-95949752D01*
X79461131Y-96008229D01*
X79461132Y-96008230D01*
X79505447Y-96074552D01*
X79571769Y-96118867D01*
X79571770Y-96118868D01*
X79630247Y-96130499D01*
X79630250Y-96130500D01*
X79630252Y-96130500D01*
X80050500Y-96130500D01*
X80117539Y-96150185D01*
X80163294Y-96202989D01*
X80174500Y-96254500D01*
X80174500Y-107768157D01*
X80196682Y-107850945D01*
X80218108Y-107888055D01*
X80239535Y-107925167D01*
X80239536Y-107925168D01*
X80239537Y-107925169D01*
X86509889Y-114195520D01*
X86509899Y-114195531D01*
X86514229Y-114199861D01*
X86514230Y-114199862D01*
X86574833Y-114260465D01*
X86611945Y-114281891D01*
X86611947Y-114281893D01*
X86649053Y-114303317D01*
X86649055Y-114303317D01*
X86649056Y-114303318D01*
X86731842Y-114325501D01*
X86731844Y-114325501D01*
X86825144Y-114325501D01*
X86825160Y-114325500D01*
X87431701Y-114325500D01*
X87498740Y-114345185D01*
X87530076Y-114374013D01*
X87571718Y-114428282D01*
X87697159Y-114524536D01*
X87843238Y-114585044D01*
X87921619Y-114595363D01*
X87999999Y-114605682D01*
X88000000Y-114605682D01*
X88000001Y-114605682D01*
X88052254Y-114598802D01*
X88156762Y-114585044D01*
X88302841Y-114524536D01*
X88428282Y-114428282D01*
X88524536Y-114302841D01*
X88585044Y-114156762D01*
X88605682Y-114000000D01*
X88585044Y-113843238D01*
X88524536Y-113697159D01*
X88428282Y-113571718D01*
X88302841Y-113475464D01*
X88156762Y-113414956D01*
X88156760Y-113414955D01*
X88000001Y-113394318D01*
X87999999Y-113394318D01*
X87843239Y-113414955D01*
X87843237Y-113414956D01*
X87697160Y-113475463D01*
X87571716Y-113571719D01*
X87530077Y-113625986D01*
X87473649Y-113667189D01*
X87431701Y-113674500D01*
X86960883Y-113674500D01*
X86893844Y-113654815D01*
X86873202Y-113638181D01*
X83491327Y-110256305D01*
X83457842Y-110194982D01*
X83462826Y-110125290D01*
X83504698Y-110069357D01*
X83531554Y-110054063D01*
X83602841Y-110024536D01*
X83728282Y-109928282D01*
X83824536Y-109802841D01*
X83885044Y-109656762D01*
X83905682Y-109500000D01*
X83885044Y-109343238D01*
X83824536Y-109197159D01*
X83728282Y-109071718D01*
X83728280Y-109071716D01*
X83728279Y-109071715D01*
X83674012Y-109030074D01*
X83632810Y-108973646D01*
X83625500Y-108931699D01*
X83625500Y-108286188D01*
X83645185Y-108219149D01*
X83661814Y-108198512D01*
X85678898Y-106181427D01*
X85740219Y-106147944D01*
X85782758Y-106146171D01*
X85855000Y-106155682D01*
X86011762Y-106135044D01*
X86157841Y-106074536D01*
X86283282Y-105978282D01*
X86379536Y-105852841D01*
X86440044Y-105706762D01*
X86460682Y-105550000D01*
X86440044Y-105393238D01*
X86440043Y-105393235D01*
X86434939Y-105380912D01*
X86425500Y-105333460D01*
X86425500Y-105257149D01*
X86425499Y-105257145D01*
X86422823Y-105247159D01*
X86411804Y-105206033D01*
X86403318Y-105174361D01*
X86360465Y-105100138D01*
X86299862Y-105039535D01*
X86262750Y-105018108D01*
X86225640Y-104996682D01*
X86156419Y-104978135D01*
X86142853Y-104974500D01*
X86059468Y-104974500D01*
X86019736Y-104966597D01*
X86019613Y-104967060D01*
X86012557Y-104965169D01*
X86012018Y-104965062D01*
X86011762Y-104964956D01*
X86011760Y-104964955D01*
X85855001Y-104944318D01*
X85854999Y-104944318D01*
X85698239Y-104964955D01*
X85698237Y-104964956D01*
X85552160Y-105025463D01*
X85426718Y-105121718D01*
X85330463Y-105247160D01*
X85269956Y-105393237D01*
X85269955Y-105393239D01*
X85249318Y-105549998D01*
X85249318Y-105550002D01*
X85257664Y-105613400D01*
X85246898Y-105682435D01*
X85222406Y-105717265D01*
X83039537Y-107900135D01*
X83039533Y-107900141D01*
X82996681Y-107974361D01*
X82996682Y-107974362D01*
X82974500Y-108057147D01*
X82974500Y-108931699D01*
X82954815Y-108998738D01*
X82925988Y-109030074D01*
X82871720Y-109071715D01*
X82775464Y-109197159D01*
X82745936Y-109268445D01*
X82702094Y-109322848D01*
X82635800Y-109344912D01*
X82568101Y-109327632D01*
X82543694Y-109308672D01*
X80861819Y-107626797D01*
X80828334Y-107565474D01*
X80825500Y-107539116D01*
X80825500Y-96254500D01*
X80845185Y-96187461D01*
X80897989Y-96141706D01*
X80949500Y-96130500D01*
X81369750Y-96130500D01*
X81369751Y-96130499D01*
X81384568Y-96127552D01*
X81428229Y-96118868D01*
X81428229Y-96118867D01*
X81428231Y-96118867D01*
X81494552Y-96074552D01*
X81538867Y-96008231D01*
X81538867Y-96008229D01*
X81538868Y-96008229D01*
X81550499Y-95949752D01*
X81550500Y-95949750D01*
X81550500Y-94210249D01*
X81550499Y-94210247D01*
X81538868Y-94151770D01*
X81538867Y-94151769D01*
X81494552Y-94085447D01*
X81428230Y-94041132D01*
X81428229Y-94041131D01*
X81369752Y-94029500D01*
X81369748Y-94029500D01*
X79961189Y-94029500D01*
X79894150Y-94009815D01*
X79873508Y-93993181D01*
X79686819Y-93806492D01*
X79653334Y-93745169D01*
X79650500Y-93718811D01*
X79650500Y-93463982D01*
X79670185Y-93396943D01*
X79722989Y-93351188D01*
X79792147Y-93341244D01*
X79853165Y-93368129D01*
X79913546Y-93417682D01*
X79913550Y-93417685D01*
X80096046Y-93515232D01*
X80294066Y-93575300D01*
X80294065Y-93575300D01*
X80312529Y-93577118D01*
X80500000Y-93595583D01*
X80705934Y-93575300D01*
X80903954Y-93515232D01*
X80903962Y-93515227D01*
X80905850Y-93514446D01*
X80906924Y-93514330D01*
X80909784Y-93513463D01*
X80909948Y-93514004D01*
X80975318Y-93506970D01*
X81037801Y-93538238D01*
X81040995Y-93541321D01*
X81085194Y-93585520D01*
X81085204Y-93585531D01*
X81089534Y-93589861D01*
X81089535Y-93589862D01*
X81150138Y-93650465D01*
X81150140Y-93650466D01*
X81150144Y-93650469D01*
X81224355Y-93693314D01*
X81224362Y-93693318D01*
X81307148Y-93715501D01*
X81307150Y-93715501D01*
X81400449Y-93715501D01*
X81400465Y-93715500D01*
X87382851Y-93715500D01*
X87382853Y-93715500D01*
X87465639Y-93693318D01*
X87539862Y-93650465D01*
X88304006Y-92886319D01*
X88365327Y-92852836D01*
X88435018Y-92857820D01*
X88439144Y-92859444D01*
X88441041Y-92860230D01*
X88441043Y-92860230D01*
X88441046Y-92860232D01*
X88639066Y-92920300D01*
X88639065Y-92920300D01*
X88657529Y-92922118D01*
X88845000Y-92940583D01*
X89050934Y-92920300D01*
X89248954Y-92860232D01*
X89431450Y-92762685D01*
X89491835Y-92713129D01*
X89556145Y-92685816D01*
X89625013Y-92697607D01*
X89676573Y-92744760D01*
X89694500Y-92808982D01*
X89694500Y-98191017D01*
X89674815Y-98258056D01*
X89622011Y-98303811D01*
X89552853Y-98313755D01*
X89491836Y-98286871D01*
X89431453Y-98237317D01*
X89431451Y-98237316D01*
X89431450Y-98237315D01*
X89248954Y-98139768D01*
X89050934Y-98079700D01*
X89050932Y-98079699D01*
X89050934Y-98079699D01*
X88845000Y-98059417D01*
X88639067Y-98079699D01*
X88441043Y-98139769D01*
X88407634Y-98157627D01*
X88258550Y-98237315D01*
X88258548Y-98237316D01*
X88258547Y-98237317D01*
X88098589Y-98368589D01*
X87967317Y-98528547D01*
X87967315Y-98528550D01*
X87895887Y-98662181D01*
X87888358Y-98676267D01*
X87839395Y-98726111D01*
X87771257Y-98741571D01*
X87705578Y-98717739D01*
X87663209Y-98662181D01*
X87655000Y-98617813D01*
X87655000Y-98217172D01*
X87654999Y-98217155D01*
X87648598Y-98157627D01*
X87648596Y-98157620D01*
X87598354Y-98022913D01*
X87598350Y-98022906D01*
X87512190Y-97907812D01*
X87512187Y-97907809D01*
X87397093Y-97821649D01*
X87397086Y-97821645D01*
X87262379Y-97771403D01*
X87262372Y-97771401D01*
X87202844Y-97765000D01*
X86555000Y-97765000D01*
X86555000Y-98681988D01*
X86497993Y-98649075D01*
X86370826Y-98615000D01*
X86239174Y-98615000D01*
X86112007Y-98649075D01*
X86055000Y-98681988D01*
X86055000Y-97765000D01*
X85407155Y-97765000D01*
X85347627Y-97771401D01*
X85347620Y-97771403D01*
X85212913Y-97821645D01*
X85212906Y-97821649D01*
X85097812Y-97907809D01*
X85048766Y-97973326D01*
X84992832Y-98015196D01*
X84923140Y-98020180D01*
X84861818Y-97986694D01*
X84828333Y-97925370D01*
X84825500Y-97899014D01*
X84825500Y-95668298D01*
X84845185Y-95601259D01*
X84874010Y-95569925D01*
X84928282Y-95528282D01*
X85024536Y-95402841D01*
X85085044Y-95256762D01*
X85105682Y-95100000D01*
X85085044Y-94943238D01*
X85024536Y-94797159D01*
X84928282Y-94671718D01*
X84802841Y-94575464D01*
X84656762Y-94514956D01*
X84656760Y-94514955D01*
X84500001Y-94494318D01*
X84499999Y-94494318D01*
X84343239Y-94514955D01*
X84343237Y-94514956D01*
X84197160Y-94575463D01*
X84071718Y-94671718D01*
X83975463Y-94797160D01*
X83914956Y-94943237D01*
X83914955Y-94943239D01*
X83894318Y-95099998D01*
X83894318Y-95100001D01*
X83914955Y-95256760D01*
X83914956Y-95256762D01*
X83975464Y-95402841D01*
X84071718Y-95528282D01*
X84125987Y-95569924D01*
X84167189Y-95626349D01*
X84174500Y-95668298D01*
X84174500Y-102460573D01*
X84154815Y-102527612D01*
X84102011Y-102573367D01*
X84097962Y-102575130D01*
X84097167Y-102575459D01*
X84097158Y-102575464D01*
X83971719Y-102671716D01*
X83875463Y-102797160D01*
X83814956Y-102943237D01*
X83814955Y-102943239D01*
X83794318Y-103099998D01*
X83794318Y-103100001D01*
X83814955Y-103256760D01*
X83814956Y-103256762D01*
X83875464Y-103402841D01*
X83971718Y-103528282D01*
X84097159Y-103624536D01*
X84243238Y-103685044D01*
X84321619Y-103695363D01*
X84399999Y-103705682D01*
X84400000Y-103705682D01*
X84400001Y-103705682D01*
X84452254Y-103698802D01*
X84556762Y-103685044D01*
X84702841Y-103624536D01*
X84828282Y-103528282D01*
X84924536Y-103402841D01*
X84985044Y-103256762D01*
X85005682Y-103100000D01*
X84985044Y-102943238D01*
X84924536Y-102797159D01*
X84924535Y-102797158D01*
X84924535Y-102797157D01*
X84851124Y-102701485D01*
X84825930Y-102636315D01*
X84825500Y-102625999D01*
X84825500Y-100330985D01*
X84845185Y-100263946D01*
X84897989Y-100218191D01*
X84967147Y-100208247D01*
X85030703Y-100237272D01*
X85048767Y-100256674D01*
X85097813Y-100322190D01*
X85212906Y-100408350D01*
X85212913Y-100408354D01*
X85347620Y-100458596D01*
X85347627Y-100458598D01*
X85407155Y-100464999D01*
X85407172Y-100465000D01*
X86055000Y-100465000D01*
X86055000Y-99548012D01*
X86112007Y-99580925D01*
X86239174Y-99615000D01*
X86370826Y-99615000D01*
X86497993Y-99580925D01*
X86555000Y-99548012D01*
X86555000Y-100465000D01*
X87202828Y-100465000D01*
X87202844Y-100464999D01*
X87262372Y-100458598D01*
X87262379Y-100458596D01*
X87397086Y-100408354D01*
X87397093Y-100408350D01*
X87512187Y-100322190D01*
X87512190Y-100322187D01*
X87598350Y-100207093D01*
X87598354Y-100207086D01*
X87648596Y-100072379D01*
X87648598Y-100072372D01*
X87654999Y-100012844D01*
X87655000Y-100012827D01*
X87655000Y-99612186D01*
X87674685Y-99545147D01*
X87727489Y-99499392D01*
X87796647Y-99489448D01*
X87860203Y-99518473D01*
X87888356Y-99553729D01*
X87967315Y-99701450D01*
X87995499Y-99735793D01*
X88098589Y-99861410D01*
X88164884Y-99915816D01*
X88258550Y-99992685D01*
X88441046Y-100090232D01*
X88639066Y-100150300D01*
X88639065Y-100150300D01*
X88657529Y-100152118D01*
X88845000Y-100170583D01*
X89050934Y-100150300D01*
X89248954Y-100090232D01*
X89431450Y-99992685D01*
X89491835Y-99943129D01*
X89556145Y-99915816D01*
X89625013Y-99927607D01*
X89676573Y-99974760D01*
X89694500Y-100038982D01*
X89694500Y-105416354D01*
X89674815Y-105483393D01*
X89645989Y-105514727D01*
X89600020Y-105550001D01*
X89571718Y-105571718D01*
X89475463Y-105697160D01*
X89414956Y-105843237D01*
X89414955Y-105843239D01*
X89394318Y-105999998D01*
X89394318Y-106000001D01*
X89414955Y-106156760D01*
X89414956Y-106156762D01*
X89475464Y-106302841D01*
X89571718Y-106428282D01*
X89697159Y-106524536D01*
X89843238Y-106585044D01*
X89921619Y-106595363D01*
X89999999Y-106605682D01*
X90000000Y-106605682D01*
X90000001Y-106605682D01*
X90052254Y-106598802D01*
X90156762Y-106585044D01*
X90302841Y-106524536D01*
X90428282Y-106428282D01*
X90524536Y-106302841D01*
X90585044Y-106156762D01*
X90605682Y-106000000D01*
X90585044Y-105843238D01*
X90524536Y-105697159D01*
X90428282Y-105571718D01*
X90428280Y-105571717D01*
X90428280Y-105571716D01*
X90394011Y-105545420D01*
X90352810Y-105488991D01*
X90345500Y-105447046D01*
X90345500Y-99850835D01*
X90365185Y-99783796D01*
X90417989Y-99738041D01*
X90487147Y-99728097D01*
X90550703Y-99757122D01*
X90565354Y-99772171D01*
X90638589Y-99861410D01*
X90704884Y-99915816D01*
X90798550Y-99992685D01*
X90981046Y-100090232D01*
X91179066Y-100150300D01*
X91179065Y-100150300D01*
X91197529Y-100152118D01*
X91385000Y-100170583D01*
X91590934Y-100150300D01*
X91788954Y-100090232D01*
X91971450Y-99992685D01*
X92031835Y-99943129D01*
X92096145Y-99915816D01*
X92165013Y-99927607D01*
X92216573Y-99974760D01*
X92234500Y-100038982D01*
X92234500Y-109753811D01*
X92214815Y-109820850D01*
X92198181Y-109841492D01*
X91571684Y-110467988D01*
X91510361Y-110501473D01*
X91467818Y-110503246D01*
X91400001Y-110494318D01*
X91399999Y-110494318D01*
X91243239Y-110514955D01*
X91243237Y-110514956D01*
X91097160Y-110575463D01*
X90971718Y-110671718D01*
X90875463Y-110797160D01*
X90814956Y-110943237D01*
X90814955Y-110943239D01*
X90794318Y-111099998D01*
X90794318Y-111100001D01*
X90814955Y-111256760D01*
X90814956Y-111256762D01*
X90875464Y-111402841D01*
X90971718Y-111528282D01*
X91097159Y-111624536D01*
X91243238Y-111685044D01*
X91321619Y-111695363D01*
X91399999Y-111705682D01*
X91400000Y-111705682D01*
X91400001Y-111705682D01*
X91452254Y-111698802D01*
X91556762Y-111685044D01*
X91702841Y-111624536D01*
X91828282Y-111528282D01*
X91924536Y-111402841D01*
X91985044Y-111256762D01*
X92005682Y-111100000D01*
X91996753Y-111032180D01*
X92007518Y-110963145D01*
X92032008Y-110928316D01*
X92749652Y-110210673D01*
X92749657Y-110210669D01*
X92759860Y-110200465D01*
X92759862Y-110200465D01*
X92820465Y-110139862D01*
X92828878Y-110125290D01*
X92852113Y-110085047D01*
X92852114Y-110085044D01*
X92861171Y-110069357D01*
X92863318Y-110065639D01*
X92885501Y-109982853D01*
X92885501Y-109897147D01*
X92885501Y-109889552D01*
X92885500Y-109889534D01*
X92885500Y-99850835D01*
X92905185Y-99783796D01*
X92957989Y-99738041D01*
X93027147Y-99728097D01*
X93090703Y-99757122D01*
X93105354Y-99772171D01*
X93178589Y-99861410D01*
X93244884Y-99915816D01*
X93338550Y-99992685D01*
X93521046Y-100090232D01*
X93719066Y-100150300D01*
X93719065Y-100150300D01*
X93737529Y-100152118D01*
X93925000Y-100170583D01*
X94130934Y-100150300D01*
X94328954Y-100090232D01*
X94511450Y-99992685D01*
X94671410Y-99861410D01*
X94802685Y-99701450D01*
X94900232Y-99518954D01*
X94960300Y-99320934D01*
X94980583Y-99115000D01*
X94960300Y-98909066D01*
X94900232Y-98711046D01*
X94802685Y-98528550D01*
X94744646Y-98457829D01*
X94671410Y-98368589D01*
X94511452Y-98237317D01*
X94511453Y-98237317D01*
X94511450Y-98237315D01*
X94328954Y-98139768D01*
X94130934Y-98079700D01*
X94130932Y-98079699D01*
X94130934Y-98079699D01*
X93925000Y-98059417D01*
X93719067Y-98079699D01*
X93521043Y-98139769D01*
X93487634Y-98157627D01*
X93338550Y-98237315D01*
X93338548Y-98237316D01*
X93338547Y-98237317D01*
X93178589Y-98368590D01*
X93105353Y-98457829D01*
X93047608Y-98497163D01*
X92977763Y-98499034D01*
X92917995Y-98462847D01*
X92887279Y-98400091D01*
X92885500Y-98379164D01*
X92885500Y-92620835D01*
X92905185Y-92553796D01*
X92957989Y-92508041D01*
X93027147Y-92498097D01*
X93090703Y-92527122D01*
X93105354Y-92542171D01*
X93178589Y-92631410D01*
X93244884Y-92685816D01*
X93338550Y-92762685D01*
X93521046Y-92860232D01*
X93719066Y-92920300D01*
X93719065Y-92920300D01*
X93737529Y-92922118D01*
X93925000Y-92940583D01*
X94130934Y-92920300D01*
X94328954Y-92860232D01*
X94511450Y-92762685D01*
X94671410Y-92631410D01*
X94802685Y-92471450D01*
X94900232Y-92288954D01*
X94960300Y-92090934D01*
X94980583Y-91885000D01*
X94960300Y-91679066D01*
X94900232Y-91481046D01*
X94802685Y-91298550D01*
X94744646Y-91227829D01*
X94671410Y-91138589D01*
X94511452Y-91007317D01*
X94511453Y-91007317D01*
X94511450Y-91007315D01*
X94328954Y-90909768D01*
X94130934Y-90849700D01*
X94130932Y-90849699D01*
X94130934Y-90849699D01*
X93925000Y-90829417D01*
X93719067Y-90849699D01*
X93521043Y-90909769D01*
X93448743Y-90948415D01*
X93338550Y-91007315D01*
X93338548Y-91007316D01*
X93338547Y-91007317D01*
X93178589Y-91138590D01*
X93105353Y-91227829D01*
X93047608Y-91267163D01*
X92977763Y-91269034D01*
X92917995Y-91232847D01*
X92887279Y-91170091D01*
X92885500Y-91149164D01*
X92885500Y-67026188D01*
X92905185Y-66959149D01*
X92921814Y-66938512D01*
X97238454Y-62621871D01*
X97299775Y-62588388D01*
X97362126Y-62590892D01*
X97543868Y-62646024D01*
X97740000Y-62665341D01*
X97936132Y-62646024D01*
X98124727Y-62588814D01*
X98179312Y-62559638D01*
X98211632Y-62542362D01*
X98298538Y-62495910D01*
X98336834Y-62464480D01*
X98401144Y-62437167D01*
X98470011Y-62448957D01*
X98521572Y-62496109D01*
X98539500Y-62560333D01*
X98539500Y-63299666D01*
X98519815Y-63366705D01*
X98467011Y-63412460D01*
X98397853Y-63422404D01*
X98336835Y-63395519D01*
X98298539Y-63364091D01*
X98298532Y-63364086D01*
X98124733Y-63271188D01*
X98124727Y-63271186D01*
X97936132Y-63213976D01*
X97936129Y-63213975D01*
X97740000Y-63194659D01*
X97543870Y-63213975D01*
X97355266Y-63271188D01*
X97181467Y-63364086D01*
X97181460Y-63364090D01*
X97029116Y-63489116D01*
X96904090Y-63641460D01*
X96904086Y-63641467D01*
X96811188Y-63815266D01*
X96753975Y-64003870D01*
X96734659Y-64200000D01*
X96753975Y-64396129D01*
X96811188Y-64584733D01*
X96904086Y-64758532D01*
X96904090Y-64758539D01*
X97029116Y-64910883D01*
X97181460Y-65035909D01*
X97181467Y-65035913D01*
X97355266Y-65128811D01*
X97355269Y-65128811D01*
X97355273Y-65128814D01*
X97543868Y-65186024D01*
X97740000Y-65205341D01*
X97936132Y-65186024D01*
X98124727Y-65128814D01*
X98298538Y-65035910D01*
X98336834Y-65004480D01*
X98401144Y-64977167D01*
X98470011Y-64988957D01*
X98521572Y-65036109D01*
X98539500Y-65100333D01*
X98539500Y-65839666D01*
X98519815Y-65906705D01*
X98467011Y-65952460D01*
X98397853Y-65962404D01*
X98336835Y-65935519D01*
X98298539Y-65904091D01*
X98298532Y-65904086D01*
X98124733Y-65811188D01*
X98124727Y-65811186D01*
X97936132Y-65753976D01*
X97936129Y-65753975D01*
X97740000Y-65734659D01*
X97543870Y-65753975D01*
X97355266Y-65811188D01*
X97181467Y-65904086D01*
X97181460Y-65904090D01*
X97029116Y-66029116D01*
X96904090Y-66181460D01*
X96904086Y-66181467D01*
X96811188Y-66355266D01*
X96753975Y-66543870D01*
X96734659Y-66740000D01*
X96753975Y-66936129D01*
X96753976Y-66936132D01*
X96809105Y-67117868D01*
X96811188Y-67124733D01*
X96904086Y-67298532D01*
X96904090Y-67298539D01*
X97029116Y-67450883D01*
X97181460Y-67575909D01*
X97181467Y-67575913D01*
X97355266Y-67668811D01*
X97355269Y-67668811D01*
X97355273Y-67668814D01*
X97543868Y-67726024D01*
X97740000Y-67745341D01*
X97936132Y-67726024D01*
X98124727Y-67668814D01*
X98131605Y-67665138D01*
X98211632Y-67622362D01*
X98298538Y-67575910D01*
X98336834Y-67544480D01*
X98401144Y-67517167D01*
X98470011Y-67528957D01*
X98521572Y-67576109D01*
X98539500Y-67640333D01*
X98539500Y-68379666D01*
X98519815Y-68446705D01*
X98467011Y-68492460D01*
X98397853Y-68502404D01*
X98336835Y-68475519D01*
X98298539Y-68444091D01*
X98298532Y-68444086D01*
X98124733Y-68351188D01*
X98124727Y-68351186D01*
X97936132Y-68293976D01*
X97936129Y-68293975D01*
X97740000Y-68274659D01*
X97543870Y-68293975D01*
X97355266Y-68351188D01*
X97181467Y-68444086D01*
X97181460Y-68444090D01*
X97029116Y-68569116D01*
X96904090Y-68721460D01*
X96904086Y-68721467D01*
X96811188Y-68895266D01*
X96753975Y-69083870D01*
X96734659Y-69280000D01*
X96753975Y-69476129D01*
X96811188Y-69664733D01*
X96904086Y-69838532D01*
X96904090Y-69838539D01*
X97029116Y-69990883D01*
X97181460Y-70115909D01*
X97181467Y-70115913D01*
X97355266Y-70208811D01*
X97355269Y-70208811D01*
X97355273Y-70208814D01*
X97543868Y-70266024D01*
X97740000Y-70285341D01*
X97936132Y-70266024D01*
X98124727Y-70208814D01*
X98298538Y-70115910D01*
X98336834Y-70084480D01*
X98401144Y-70057167D01*
X98470011Y-70068957D01*
X98521572Y-70116109D01*
X98539500Y-70180333D01*
X98539500Y-70919666D01*
X98519815Y-70986705D01*
X98467011Y-71032460D01*
X98397853Y-71042404D01*
X98336835Y-71015519D01*
X98298539Y-70984091D01*
X98298532Y-70984086D01*
X98124733Y-70891188D01*
X98124727Y-70891186D01*
X97936132Y-70833976D01*
X97936129Y-70833975D01*
X97740000Y-70814659D01*
X97543870Y-70833975D01*
X97355266Y-70891188D01*
X97181467Y-70984086D01*
X97181460Y-70984090D01*
X97029116Y-71109116D01*
X96904090Y-71261460D01*
X96904086Y-71261467D01*
X96811188Y-71435266D01*
X96753975Y-71623870D01*
X96734659Y-71820000D01*
X96753975Y-72016129D01*
X96811188Y-72204733D01*
X96904086Y-72378532D01*
X96904090Y-72378539D01*
X97029116Y-72530883D01*
X97181460Y-72655909D01*
X97181467Y-72655913D01*
X97355266Y-72748811D01*
X97355269Y-72748811D01*
X97355273Y-72748814D01*
X97543868Y-72806024D01*
X97740000Y-72825341D01*
X97936132Y-72806024D01*
X98124727Y-72748814D01*
X98298538Y-72655910D01*
X98336834Y-72624480D01*
X98401144Y-72597167D01*
X98470011Y-72608957D01*
X98521572Y-72656109D01*
X98539500Y-72720333D01*
X98539500Y-73459666D01*
X98519815Y-73526705D01*
X98467011Y-73572460D01*
X98397853Y-73582404D01*
X98336835Y-73555519D01*
X98298539Y-73524091D01*
X98298532Y-73524086D01*
X98124733Y-73431188D01*
X98124727Y-73431186D01*
X97936132Y-73373976D01*
X97936129Y-73373975D01*
X97740000Y-73354659D01*
X97543870Y-73373975D01*
X97355266Y-73431188D01*
X97181467Y-73524086D01*
X97181460Y-73524090D01*
X97029116Y-73649116D01*
X96904090Y-73801460D01*
X96904086Y-73801467D01*
X96811188Y-73975266D01*
X96753975Y-74163870D01*
X96734659Y-74360000D01*
X96753975Y-74556129D01*
X96811188Y-74744733D01*
X96904086Y-74918532D01*
X96904090Y-74918539D01*
X97029116Y-75070883D01*
X97181460Y-75195909D01*
X97181467Y-75195913D01*
X97355266Y-75288811D01*
X97355269Y-75288811D01*
X97355273Y-75288814D01*
X97543868Y-75346024D01*
X97740000Y-75365341D01*
X97936132Y-75346024D01*
X98124727Y-75288814D01*
X98298538Y-75195910D01*
X98336834Y-75164480D01*
X98401144Y-75137167D01*
X98470011Y-75148957D01*
X98521572Y-75196109D01*
X98539500Y-75260333D01*
X98539500Y-75999666D01*
X98519815Y-76066705D01*
X98467011Y-76112460D01*
X98397853Y-76122404D01*
X98336835Y-76095519D01*
X98298539Y-76064091D01*
X98298532Y-76064086D01*
X98124733Y-75971188D01*
X98124727Y-75971186D01*
X97936132Y-75913976D01*
X97936129Y-75913975D01*
X97740000Y-75894659D01*
X97543870Y-75913975D01*
X97355266Y-75971188D01*
X97181467Y-76064086D01*
X97181460Y-76064090D01*
X97029116Y-76189116D01*
X96904090Y-76341460D01*
X96904086Y-76341467D01*
X96811188Y-76515266D01*
X96811186Y-76515273D01*
X96765573Y-76665640D01*
X96753976Y-76703869D01*
X96734659Y-76900000D01*
X96753975Y-77096129D01*
X96811188Y-77284733D01*
X96904086Y-77458532D01*
X96904090Y-77458539D01*
X97029116Y-77610883D01*
X97181460Y-77735909D01*
X97181467Y-77735913D01*
X97355266Y-77828811D01*
X97355269Y-77828811D01*
X97355273Y-77828814D01*
X97543868Y-77886024D01*
X97740000Y-77905341D01*
X97936132Y-77886024D01*
X98124727Y-77828814D01*
X98298538Y-77735910D01*
X98336834Y-77704480D01*
X98401144Y-77677167D01*
X98470011Y-77688957D01*
X98521572Y-77736109D01*
X98539500Y-77800333D01*
X98539500Y-78539666D01*
X98519815Y-78606705D01*
X98467011Y-78652460D01*
X98397853Y-78662404D01*
X98336835Y-78635519D01*
X98298539Y-78604091D01*
X98298532Y-78604086D01*
X98124733Y-78511188D01*
X98124727Y-78511186D01*
X97936132Y-78453976D01*
X97936129Y-78453975D01*
X97740000Y-78434659D01*
X97543870Y-78453975D01*
X97355266Y-78511188D01*
X97181467Y-78604086D01*
X97181460Y-78604090D01*
X97029116Y-78729116D01*
X96904090Y-78881460D01*
X96904086Y-78881467D01*
X96811188Y-79055266D01*
X96753975Y-79243870D01*
X96734659Y-79440000D01*
X96753975Y-79636129D01*
X96811188Y-79824733D01*
X96904086Y-79998532D01*
X96904090Y-79998539D01*
X97029116Y-80150883D01*
X97181460Y-80275909D01*
X97181467Y-80275913D01*
X97355266Y-80368811D01*
X97355269Y-80368811D01*
X97355273Y-80368814D01*
X97543868Y-80426024D01*
X97740000Y-80445341D01*
X97936132Y-80426024D01*
X98124727Y-80368814D01*
X98298538Y-80275910D01*
X98336834Y-80244480D01*
X98401144Y-80217167D01*
X98470011Y-80228957D01*
X98521572Y-80276109D01*
X98539500Y-80340333D01*
X98539500Y-124988810D01*
X98519815Y-125055849D01*
X98503181Y-125076491D01*
X91695994Y-131883677D01*
X91634671Y-131917162D01*
X91564979Y-131912178D01*
X91560869Y-131910561D01*
X91558958Y-131909769D01*
X91459944Y-131879734D01*
X91360934Y-131849700D01*
X91360932Y-131849699D01*
X91360934Y-131849699D01*
X91283193Y-131842043D01*
X91218406Y-131815882D01*
X91178047Y-131758848D01*
X91174930Y-131689047D01*
X91207666Y-131630959D01*
X91284261Y-131554364D01*
X94660465Y-128178161D01*
X94703318Y-128103938D01*
X94725500Y-128021152D01*
X94725500Y-127935446D01*
X94725500Y-102968298D01*
X94745185Y-102901259D01*
X94774010Y-102869925D01*
X94828282Y-102828282D01*
X94924536Y-102702841D01*
X94985044Y-102556762D01*
X95005682Y-102400000D01*
X94985044Y-102243238D01*
X94924536Y-102097159D01*
X94828282Y-101971718D01*
X94702841Y-101875464D01*
X94556762Y-101814956D01*
X94556760Y-101814955D01*
X94400001Y-101794318D01*
X94399999Y-101794318D01*
X94243239Y-101814955D01*
X94243237Y-101814956D01*
X94097160Y-101875463D01*
X93971718Y-101971718D01*
X93875463Y-102097160D01*
X93814956Y-102243237D01*
X93814955Y-102243239D01*
X93794318Y-102399998D01*
X93794318Y-102400001D01*
X93814955Y-102556760D01*
X93814956Y-102556762D01*
X93862571Y-102671716D01*
X93875464Y-102702841D01*
X93971718Y-102828282D01*
X94025987Y-102869924D01*
X94067189Y-102926349D01*
X94074500Y-102968298D01*
X94074500Y-127792110D01*
X94054815Y-127859149D01*
X94038181Y-127879791D01*
X89719537Y-132198434D01*
X89719530Y-132198443D01*
X89681501Y-132264311D01*
X89630934Y-132312526D01*
X89562326Y-132325748D01*
X89497462Y-132299780D01*
X89478261Y-132280974D01*
X89361410Y-132138589D01*
X89211115Y-132015247D01*
X89201450Y-132007315D01*
X89018954Y-131909768D01*
X88820934Y-131849700D01*
X88820932Y-131849699D01*
X88820934Y-131849699D01*
X88615000Y-131829417D01*
X88409067Y-131849699D01*
X88300430Y-131882653D01*
X88211046Y-131909768D01*
X88211043Y-131909769D01*
X88211038Y-131909771D01*
X88209126Y-131910563D01*
X88208045Y-131910679D01*
X88205217Y-131911537D01*
X88205054Y-131911000D01*
X88139656Y-131918024D01*
X88077180Y-131886743D01*
X88074004Y-131883678D01*
X84329864Y-128139537D01*
X84329863Y-128139536D01*
X84329862Y-128139535D01*
X84283554Y-128112799D01*
X84255640Y-128096682D01*
X84214246Y-128085591D01*
X84172853Y-128074500D01*
X84172852Y-128074500D01*
X79868299Y-128074500D01*
X79801260Y-128054815D01*
X79769923Y-128025986D01*
X79728283Y-127971719D01*
X79681011Y-127935446D01*
X79602841Y-127875464D01*
X79456762Y-127814956D01*
X79456760Y-127814955D01*
X79300001Y-127794318D01*
X79299999Y-127794318D01*
X79143239Y-127814955D01*
X79143237Y-127814956D01*
X78997160Y-127875463D01*
X78871718Y-127971718D01*
X78772014Y-128101655D01*
X78715585Y-128142857D01*
X78645839Y-128147012D01*
X78584919Y-128112799D01*
X78552167Y-128051082D01*
X78549638Y-128026168D01*
X78549638Y-45202009D01*
X78549704Y-45199133D01*
X80843730Y-45199133D01*
X80843730Y-45199142D01*
X80863334Y-45460758D01*
X80863335Y-45460763D01*
X80921714Y-45716540D01*
X80921716Y-45716549D01*
X80921718Y-45716554D01*
X81017570Y-45960781D01*
X81148752Y-46187995D01*
X81280874Y-46353671D01*
X81312336Y-46393123D01*
X81463749Y-46533612D01*
X81504659Y-46571571D01*
X81721434Y-46719366D01*
X81721439Y-46719368D01*
X81721440Y-46719369D01*
X81721441Y-46719370D01*
X81822228Y-46767906D01*
X81957811Y-46833199D01*
X81957812Y-46833199D01*
X81957815Y-46833201D01*
X82208523Y-46910534D01*
X82467956Y-46949638D01*
X82730320Y-46949638D01*
X82989753Y-46910534D01*
X83240461Y-46833201D01*
X83476842Y-46719366D01*
X83693617Y-46571571D01*
X83885943Y-46393119D01*
X84049524Y-46187995D01*
X84180706Y-45960781D01*
X84276558Y-45716554D01*
X84334940Y-45460768D01*
X84354546Y-45199138D01*
X84352978Y-45178220D01*
X84334941Y-44937517D01*
X84334940Y-44937512D01*
X84334940Y-44937508D01*
X84276558Y-44681722D01*
X84180706Y-44437495D01*
X84049524Y-44210281D01*
X83885943Y-44005157D01*
X83885942Y-44005156D01*
X83885939Y-44005152D01*
X83693617Y-43826705D01*
X83683900Y-43820080D01*
X83476842Y-43678910D01*
X83476838Y-43678908D01*
X83476835Y-43678906D01*
X83476834Y-43678905D01*
X83240463Y-43565076D01*
X83240465Y-43565076D01*
X82989761Y-43487744D01*
X82989757Y-43487743D01*
X82989753Y-43487742D01*
X82864961Y-43468932D01*
X82730325Y-43448638D01*
X82730320Y-43448638D01*
X82467956Y-43448638D01*
X82467950Y-43448638D01*
X82306385Y-43472991D01*
X82208523Y-43487742D01*
X82208520Y-43487743D01*
X82208514Y-43487744D01*
X81957811Y-43565076D01*
X81721441Y-43678905D01*
X81721440Y-43678906D01*
X81504658Y-43826705D01*
X81312336Y-44005152D01*
X81148752Y-44210281D01*
X81017570Y-44437494D01*
X80921720Y-44681716D01*
X80921714Y-44681735D01*
X80863335Y-44937512D01*
X80863334Y-44937517D01*
X80843730Y-45199133D01*
X78549704Y-45199133D01*
X78549770Y-45196282D01*
X78566648Y-44831220D01*
X78567705Y-44819816D01*
X78617799Y-44460707D01*
X78619899Y-44449470D01*
X78702916Y-44096504D01*
X78706039Y-44085525D01*
X78821278Y-43741700D01*
X78825401Y-43731060D01*
X78971867Y-43399346D01*
X78976950Y-43389137D01*
X79153395Y-43072357D01*
X79159421Y-43062625D01*
X79364341Y-42763480D01*
X79371224Y-42754367D01*
X79602870Y-42475405D01*
X79610564Y-42466965D01*
X79866965Y-42210564D01*
X79875405Y-42202870D01*
X80154367Y-41971224D01*
X80163480Y-41964341D01*
X80462631Y-41759417D01*
X80472357Y-41753395D01*
X80789137Y-41576950D01*
X80799346Y-41571867D01*
X81131060Y-41425401D01*
X81141700Y-41421278D01*
X81485525Y-41306039D01*
X81496504Y-41302916D01*
X81849470Y-41219899D01*
X81860707Y-41217799D01*
X82219825Y-41167704D01*
X82231211Y-41166648D01*
X82596283Y-41149770D01*
X82602010Y-41149638D01*
X82636078Y-41149638D01*
X82636305Y-41149598D01*
X101875876Y-41129895D01*
X101942933Y-41149510D01*
G37*
%TD.AperFunction*%
%TA.AperFunction,Conductor*%
G36*
X83144275Y-90345185D02*
G01*
X83190030Y-90397989D01*
X83199974Y-90467147D01*
X83170949Y-90530703D01*
X83124688Y-90564061D01*
X83097161Y-90575462D01*
X82971718Y-90671718D01*
X82875463Y-90797160D01*
X82814956Y-90943237D01*
X82814955Y-90943239D01*
X82794318Y-91099998D01*
X82794318Y-91100001D01*
X82814955Y-91256760D01*
X82814956Y-91256761D01*
X82814956Y-91256762D01*
X82875464Y-91402841D01*
X82971718Y-91528282D01*
X83097159Y-91624536D01*
X83243238Y-91685044D01*
X83296128Y-91692007D01*
X83399999Y-91705682D01*
X83400000Y-91705682D01*
X83400001Y-91705682D01*
X83452254Y-91698802D01*
X83556762Y-91685044D01*
X83702841Y-91624536D01*
X83828282Y-91528282D01*
X83924536Y-91402841D01*
X83985044Y-91256762D01*
X83997849Y-91159500D01*
X83999980Y-91143314D01*
X84028247Y-91079418D01*
X84086571Y-91040947D01*
X84122919Y-91035500D01*
X84831000Y-91035500D01*
X84898039Y-91055185D01*
X84943794Y-91107989D01*
X84955000Y-91159500D01*
X84955000Y-91635000D01*
X85871988Y-91635000D01*
X85839075Y-91692007D01*
X85805000Y-91819174D01*
X85805000Y-91950826D01*
X85839075Y-92077993D01*
X85871988Y-92135000D01*
X84955000Y-92135000D01*
X84955000Y-92782844D01*
X84961401Y-92842372D01*
X84961402Y-92842376D01*
X84981838Y-92897166D01*
X84986822Y-92966858D01*
X84953337Y-93028181D01*
X84892014Y-93061666D01*
X84865656Y-93064500D01*
X81605859Y-93064500D01*
X81538820Y-93044815D01*
X81493065Y-92992011D01*
X81483121Y-92922853D01*
X81487196Y-92904512D01*
X81535300Y-92745934D01*
X81555583Y-92540000D01*
X81535300Y-92334066D01*
X81475232Y-92136046D01*
X81377685Y-91953550D01*
X81321428Y-91885000D01*
X81246410Y-91793589D01*
X81122630Y-91692007D01*
X81086450Y-91662315D01*
X80903954Y-91564768D01*
X80705934Y-91504700D01*
X80705932Y-91504699D01*
X80705934Y-91504699D01*
X80500000Y-91484417D01*
X80294067Y-91504699D01*
X80096043Y-91564769D01*
X79913546Y-91662317D01*
X79853164Y-91711871D01*
X79788853Y-91739183D01*
X79719986Y-91727391D01*
X79668426Y-91680238D01*
X79650500Y-91616017D01*
X79650500Y-90923982D01*
X79670185Y-90856943D01*
X79722989Y-90811188D01*
X79792147Y-90801244D01*
X79853165Y-90828129D01*
X79913546Y-90877682D01*
X79913550Y-90877685D01*
X80096046Y-90975232D01*
X80294066Y-91035300D01*
X80294065Y-91035300D01*
X80312529Y-91037118D01*
X80500000Y-91055583D01*
X80705934Y-91035300D01*
X80903954Y-90975232D01*
X81086450Y-90877685D01*
X81246410Y-90746410D01*
X81377685Y-90586450D01*
X81475232Y-90403954D01*
X81475234Y-90403945D01*
X81476021Y-90402049D01*
X81476701Y-90401203D01*
X81478104Y-90398581D01*
X81478601Y-90398846D01*
X81519862Y-90347645D01*
X81586156Y-90325579D01*
X81590583Y-90325500D01*
X83077236Y-90325500D01*
X83144275Y-90345185D01*
G37*
%TD.AperFunction*%
%TD*%
M02*
