%TF.GenerationSoftware,KiCad,Pcbnew,8.0.2*%
%TF.CreationDate,2024-06-24T21:49:00-04:00*%
%TF.ProjectId,MacroPad,4d616372-6f50-4616-942e-6b696361645f,rev?*%
%TF.SameCoordinates,Original*%
%TF.FileFunction,Other,User*%
%FSLAX46Y46*%
G04 Gerber Fmt 4.6, Leading zero omitted, Abs format (unit mm)*
G04 Created by KiCad (PCBNEW 8.0.2) date 2024-06-24 21:49:00*
%MOMM*%
%LPD*%
G01*
G04 APERTURE LIST*
%ADD10C,0.050000*%
%ADD11C,0.040000*%
G04 APERTURE END LIST*
D10*
%TO.C,C2*%
X92787500Y-117230000D02*
X89487500Y-117230000D01*
X92787500Y-115770000D02*
X92787500Y-117230000D01*
X89487500Y-117230000D02*
X89487500Y-115770000D01*
X89487500Y-115770000D02*
X92787500Y-115770000D01*
%TO.C,C1*%
X86545000Y-119150000D02*
X86545000Y-115850000D01*
X88005000Y-119150000D02*
X86545000Y-119150000D01*
X86545000Y-115850000D02*
X88005000Y-115850000D01*
X88005000Y-115850000D02*
X88005000Y-119150000D01*
%TO.C,D23*%
X141125000Y-158562500D02*
X143325000Y-158562500D01*
X143325000Y-153662500D01*
X141125000Y-153662500D01*
X141125000Y-158562500D01*
%TO.C,SW21*%
X106500000Y-141960000D02*
X119700000Y-141960000D01*
X106500000Y-155160000D02*
X106500000Y-141960000D01*
X119700000Y-141960000D02*
X119700000Y-155160000D01*
X119700000Y-155160000D02*
X106500000Y-155160000D01*
%TO.C,SW4*%
X163650000Y-46710000D02*
X176850000Y-46710000D01*
X163650000Y-59910000D02*
X163650000Y-46710000D01*
X176850000Y-46710000D02*
X176850000Y-59910000D01*
X176850000Y-59910000D02*
X163650000Y-59910000D01*
%TO.C,SW10*%
X125550000Y-84810000D02*
X138750000Y-84810000D01*
X125550000Y-98010000D02*
X125550000Y-84810000D01*
X138750000Y-84810000D02*
X138750000Y-98010000D01*
X138750000Y-98010000D02*
X125550000Y-98010000D01*
%TO.C,SW7*%
X144600000Y-65760000D02*
X157800000Y-65760000D01*
X144600000Y-78960000D02*
X144600000Y-65760000D01*
X157800000Y-65760000D02*
X157800000Y-78960000D01*
X157800000Y-78960000D02*
X144600000Y-78960000D01*
%TO.C,SW9*%
X106500000Y-84810000D02*
X119700000Y-84810000D01*
X106500000Y-98010000D02*
X106500000Y-84810000D01*
X119700000Y-84810000D02*
X119700000Y-98010000D01*
X119700000Y-98010000D02*
X106500000Y-98010000D01*
%TO.C,SW25*%
X78700000Y-88230000D02*
X78700000Y-96880000D01*
X78700000Y-96880000D02*
X82300000Y-96880000D01*
X82300000Y-88230000D02*
X78700000Y-88230000D01*
X82300000Y-96880000D02*
X82300000Y-88230000D01*
%TO.C,SW23*%
X144600000Y-141960000D02*
X157800000Y-141960000D01*
X144600000Y-155160000D02*
X144600000Y-141960000D01*
X157800000Y-141960000D02*
X157800000Y-155160000D01*
X157800000Y-155160000D02*
X144600000Y-155160000D01*
%TO.C,SW0*%
X84275000Y-131085000D02*
X84275000Y-134685000D01*
X84275000Y-134685000D02*
X98025000Y-134685000D01*
X98025000Y-131085000D02*
X84275000Y-131085000D01*
X98025000Y-134685000D02*
X98025000Y-131085000D01*
%TO.C,D24*%
X160175000Y-158562500D02*
X162375000Y-158562500D01*
X162375000Y-153662500D01*
X160175000Y-153662500D01*
X160175000Y-158562500D01*
%TO.C,D15*%
X141125000Y-120462500D02*
X143325000Y-120462500D01*
X143325000Y-115562500D01*
X141125000Y-115562500D01*
X141125000Y-120462500D01*
%TO.C,D5*%
X103025000Y-82362500D02*
X105225000Y-82362500D01*
X105225000Y-77462500D01*
X103025000Y-77462500D01*
X103025000Y-82362500D01*
%TO.C,D10*%
X122075000Y-101412500D02*
X124275000Y-101412500D01*
X124275000Y-96512500D01*
X122075000Y-96512500D01*
X122075000Y-101412500D01*
%TO.C,D3*%
X141125000Y-63312500D02*
X143325000Y-63312500D01*
X143325000Y-58412500D01*
X141125000Y-58412500D01*
X141125000Y-63312500D01*
%TO.C,SW17*%
X106500000Y-122910000D02*
X119700000Y-122910000D01*
X106500000Y-136110000D02*
X106500000Y-122910000D01*
X119700000Y-122910000D02*
X119700000Y-136110000D01*
X119700000Y-136110000D02*
X106500000Y-136110000D01*
%TO.C,SW15*%
X144600000Y-103860000D02*
X157800000Y-103860000D01*
X144600000Y-117060000D02*
X144600000Y-103860000D01*
X157800000Y-103860000D02*
X157800000Y-117060000D01*
X157800000Y-117060000D02*
X144600000Y-117060000D01*
%TO.C,D22*%
X122075000Y-158562500D02*
X124275000Y-158562500D01*
X124275000Y-153662500D01*
X122075000Y-153662500D01*
X122075000Y-158562500D01*
%TO.C,SW20*%
X163650000Y-122910000D02*
X176850000Y-122910000D01*
X163650000Y-136110000D02*
X163650000Y-122910000D01*
X176850000Y-122910000D02*
X176850000Y-136110000D01*
X176850000Y-136110000D02*
X163650000Y-136110000D01*
%TO.C,SW12*%
X163650000Y-84810000D02*
X176850000Y-84810000D01*
X163650000Y-98010000D02*
X163650000Y-84810000D01*
X176850000Y-84810000D02*
X176850000Y-98010000D01*
X176850000Y-98010000D02*
X163650000Y-98010000D01*
%TO.C,D6*%
X122075000Y-82362500D02*
X124275000Y-82362500D01*
X124275000Y-77462500D01*
X122075000Y-77462500D01*
X122075000Y-82362500D01*
%TO.C,D9*%
X103025000Y-101412500D02*
X105225000Y-101412500D01*
X105225000Y-96512500D01*
X103025000Y-96512500D01*
X103025000Y-101412500D01*
%TO.C,SW1*%
X106500000Y-46710000D02*
X119700000Y-46710000D01*
X106500000Y-59910000D02*
X106500000Y-46710000D01*
X119700000Y-46710000D02*
X119700000Y-59910000D01*
X119700000Y-59910000D02*
X106500000Y-59910000D01*
%TO.C,D21*%
X103025000Y-158562500D02*
X105225000Y-158562500D01*
X105225000Y-153662500D01*
X103025000Y-153662500D01*
X103025000Y-158562500D01*
%TO.C,D8*%
X160175000Y-82362500D02*
X162375000Y-82362500D01*
X162375000Y-77462500D01*
X160175000Y-77462500D01*
X160175000Y-82362500D01*
%TO.C,SW6*%
X125550000Y-65760000D02*
X138750000Y-65760000D01*
X125550000Y-78960000D02*
X125550000Y-65760000D01*
X138750000Y-65760000D02*
X138750000Y-78960000D01*
X138750000Y-78960000D02*
X125550000Y-78960000D01*
%TO.C,D16*%
X160175000Y-120462500D02*
X162375000Y-120462500D01*
X162375000Y-115562500D01*
X160175000Y-115562500D01*
X160175000Y-120462500D01*
%TO.C,D7*%
X141125000Y-82362500D02*
X143325000Y-82362500D01*
X143325000Y-77462500D01*
X141125000Y-77462500D01*
X141125000Y-82362500D01*
%TO.C,SW8*%
X163650000Y-65760000D02*
X176850000Y-65760000D01*
X163650000Y-78960000D02*
X163650000Y-65760000D01*
X176850000Y-65760000D02*
X176850000Y-78960000D01*
X176850000Y-78960000D02*
X163650000Y-78960000D01*
%TO.C,D11*%
X141125000Y-101412500D02*
X143325000Y-101412500D01*
X143325000Y-96512500D01*
X141125000Y-96512500D01*
X141125000Y-101412500D01*
%TO.C,SW14*%
X125550000Y-103860000D02*
X138750000Y-103860000D01*
X125550000Y-117060000D02*
X125550000Y-103860000D01*
X138750000Y-103860000D02*
X138750000Y-117060000D01*
X138750000Y-117060000D02*
X125550000Y-117060000D01*
%TO.C,D20*%
X160175000Y-139512500D02*
X162375000Y-139512500D01*
X162375000Y-134612500D01*
X160175000Y-134612500D01*
X160175000Y-139512500D01*
%TO.C,D2*%
X122075000Y-63312500D02*
X124275000Y-63312500D01*
X124275000Y-58412500D01*
X122075000Y-58412500D01*
X122075000Y-63312500D01*
%TO.C,SW16*%
X163650000Y-103860000D02*
X176850000Y-103860000D01*
X163650000Y-117060000D02*
X163650000Y-103860000D01*
X176850000Y-103860000D02*
X176850000Y-117060000D01*
X176850000Y-117060000D02*
X163650000Y-117060000D01*
%TO.C,SW18*%
X125550000Y-122910000D02*
X138750000Y-122910000D01*
X125550000Y-136110000D02*
X125550000Y-122910000D01*
X138750000Y-122910000D02*
X138750000Y-136110000D01*
X138750000Y-136110000D02*
X125550000Y-136110000D01*
%TO.C,SW19*%
X144600000Y-122910000D02*
X157800000Y-122910000D01*
X144600000Y-136110000D02*
X144600000Y-122910000D01*
X157800000Y-122910000D02*
X157800000Y-136110000D01*
X157800000Y-136110000D02*
X144600000Y-136110000D01*
%TO.C,D17*%
X103025000Y-139512500D02*
X105225000Y-139512500D01*
X105225000Y-134612500D01*
X103025000Y-134612500D01*
X103025000Y-139512500D01*
%TO.C,D14*%
X122075000Y-120462500D02*
X124275000Y-120462500D01*
X124275000Y-115562500D01*
X122075000Y-115562500D01*
X122075000Y-120462500D01*
%TO.C,D18*%
X122075000Y-139512500D02*
X124275000Y-139512500D01*
X124275000Y-134612500D01*
X122075000Y-134612500D01*
X122075000Y-139512500D01*
%TO.C,D1*%
X103025000Y-63312500D02*
X105225000Y-63312500D01*
X105225000Y-58412500D01*
X103025000Y-58412500D01*
X103025000Y-63312500D01*
%TO.C,SW13*%
X106500000Y-103860000D02*
X119700000Y-103860000D01*
X106500000Y-117060000D02*
X106500000Y-103860000D01*
X119700000Y-103860000D02*
X119700000Y-117060000D01*
X119700000Y-117060000D02*
X106500000Y-117060000D01*
%TO.C,SW22*%
X125550000Y-141960000D02*
X138750000Y-141960000D01*
X125550000Y-155160000D02*
X125550000Y-141960000D01*
X138750000Y-141960000D02*
X138750000Y-155160000D01*
X138750000Y-155160000D02*
X125550000Y-155160000D01*
%TO.C,BT1*%
X96000000Y-42000000D02*
X96000000Y-45000000D01*
X96000000Y-45000000D02*
X101000000Y-45000000D01*
X101000000Y-42000000D02*
X96000000Y-42000000D01*
X101000000Y-45000000D02*
X101000000Y-42000000D01*
%TO.C,SW11*%
X144600000Y-84810000D02*
X157800000Y-84810000D01*
X144600000Y-98010000D02*
X144600000Y-84810000D01*
X157800000Y-84810000D02*
X157800000Y-98010000D01*
X157800000Y-98010000D02*
X144600000Y-98010000D01*
D11*
%TO.C,U1*%
X84115000Y-90385000D02*
X84115000Y-128385000D01*
X84115000Y-128385000D02*
X96115000Y-128385000D01*
X96115000Y-90385000D02*
X84115000Y-90385000D01*
X96115000Y-128385000D02*
X96115000Y-90385000D01*
%TO.C,D19*%
D10*
X141125000Y-139512500D02*
X143325000Y-139512500D01*
X143325000Y-134612500D01*
X141125000Y-134612500D01*
X141125000Y-139512500D01*
%TO.C,SW5*%
X106500000Y-65760000D02*
X119700000Y-65760000D01*
X106500000Y-78960000D02*
X106500000Y-65760000D01*
X119700000Y-65760000D02*
X119700000Y-78960000D01*
X119700000Y-78960000D02*
X106500000Y-78960000D01*
%TO.C,SW2*%
X125550000Y-46710000D02*
X138750000Y-46710000D01*
X125550000Y-59910000D02*
X125550000Y-46710000D01*
X138750000Y-46710000D02*
X138750000Y-59910000D01*
X138750000Y-59910000D02*
X125550000Y-59910000D01*
%TO.C,D4*%
X160175000Y-63312500D02*
X162375000Y-63312500D01*
X162375000Y-58412500D01*
X160175000Y-58412500D01*
X160175000Y-63312500D01*
%TO.C,D13*%
X103025000Y-120462500D02*
X105225000Y-120462500D01*
X105225000Y-115562500D01*
X103025000Y-115562500D01*
X103025000Y-120462500D01*
%TO.C,SW24*%
X163650000Y-141960000D02*
X176850000Y-141960000D01*
X163650000Y-155160000D02*
X163650000Y-141960000D01*
X176850000Y-141960000D02*
X176850000Y-155160000D01*
X176850000Y-155160000D02*
X163650000Y-155160000D01*
%TO.C,R2*%
X93920000Y-105550000D02*
X97080000Y-105550000D01*
X93920000Y-110450000D02*
X93920000Y-105550000D01*
X97080000Y-105550000D02*
X97080000Y-110450000D01*
X97080000Y-110450000D02*
X93920000Y-110450000D01*
%TO.C,D12*%
X160175000Y-101412500D02*
X162375000Y-101412500D01*
X162375000Y-96512500D01*
X160175000Y-96512500D01*
X160175000Y-101412500D01*
%TO.C,SW3*%
X144600000Y-46710000D02*
X157800000Y-46710000D01*
X144600000Y-59910000D02*
X144600000Y-46710000D01*
X157800000Y-46710000D02*
X157800000Y-59910000D01*
X157800000Y-59910000D02*
X144600000Y-59910000D01*
%TO.C,U2*%
X80976000Y-45023000D02*
X80976000Y-80837000D01*
X80976000Y-45023000D02*
X99264000Y-45023000D01*
X99264000Y-80837000D02*
X80976000Y-80837000D01*
X99264000Y-80837000D02*
X99264000Y-45023000D01*
%TD*%
M02*
