%TF.GenerationSoftware,KiCad,Pcbnew,8.0.2*%
%TF.CreationDate,2024-06-24T21:49:00-04:00*%
%TF.ProjectId,MacroPad,4d616372-6f50-4616-942e-6b696361645f,rev?*%
%TF.SameCoordinates,Original*%
%TF.FileFunction,Soldermask,Bot*%
%TF.FilePolarity,Negative*%
%FSLAX46Y46*%
G04 Gerber Fmt 4.6, Leading zero omitted, Abs format (unit mm)*
G04 Created by KiCad (PCBNEW 8.0.2) date 2024-06-24 21:49:00*
%MOMM*%
%LPD*%
G01*
G04 APERTURE LIST*
%ADD10C,1.700000*%
%ADD11C,4.000000*%
%ADD12C,2.200000*%
%ADD13R,1.700000X1.700000*%
%ADD14O,1.700000X1.700000*%
%ADD15R,1.350000X1.350000*%
%ADD16O,1.350000X1.350000*%
%ADD17R,1.600000X1.600000*%
%ADD18O,1.600000X1.600000*%
G04 APERTURE END LIST*
D10*
%TO.C,SW21*%
X108020000Y-148560000D03*
D11*
X113100000Y-148560000D03*
D10*
X118180000Y-148560000D03*
D12*
X115640000Y-143480000D03*
X109290000Y-146020000D03*
%TD*%
D10*
%TO.C,SW4*%
X165170000Y-53310000D03*
D11*
X170250000Y-53310000D03*
D10*
X175330000Y-53310000D03*
D12*
X172790000Y-48230000D03*
X166440000Y-50770000D03*
%TD*%
D10*
%TO.C,SW10*%
X127070000Y-91410000D03*
D11*
X132150000Y-91410000D03*
D10*
X137230000Y-91410000D03*
D12*
X134690000Y-86330000D03*
X128340000Y-88870000D03*
%TD*%
D10*
%TO.C,SW7*%
X146120000Y-72360000D03*
D11*
X151200000Y-72360000D03*
D10*
X156280000Y-72360000D03*
D12*
X153740000Y-67280000D03*
X147390000Y-69820000D03*
%TD*%
D10*
%TO.C,SW9*%
X108020000Y-91410000D03*
D11*
X113100000Y-91410000D03*
D10*
X118180000Y-91410000D03*
D12*
X115640000Y-86330000D03*
X109290000Y-88870000D03*
%TD*%
D13*
%TO.C,SW25*%
X80500000Y-95080000D03*
D14*
X80500000Y-92540000D03*
X80500000Y-90000000D03*
%TD*%
D10*
%TO.C,SW23*%
X146120000Y-148560000D03*
D11*
X151200000Y-148560000D03*
D10*
X156280000Y-148560000D03*
D12*
X153740000Y-143480000D03*
X147390000Y-146020000D03*
%TD*%
D13*
%TO.C,SW0*%
X86075000Y-132885000D03*
D14*
X88615000Y-132885000D03*
X91155000Y-132885000D03*
X93695000Y-132885000D03*
X96235000Y-132885000D03*
%TD*%
D10*
%TO.C,SW17*%
X108020000Y-129510000D03*
D11*
X113100000Y-129510000D03*
D10*
X118180000Y-129510000D03*
D12*
X115640000Y-124430000D03*
X109290000Y-126970000D03*
%TD*%
D10*
%TO.C,SW15*%
X146120000Y-110460000D03*
D11*
X151200000Y-110460000D03*
D10*
X156280000Y-110460000D03*
D12*
X153740000Y-105380000D03*
X147390000Y-107920000D03*
%TD*%
D10*
%TO.C,SW20*%
X165170000Y-129510000D03*
D11*
X170250000Y-129510000D03*
D10*
X175330000Y-129510000D03*
D12*
X172790000Y-124430000D03*
X166440000Y-126970000D03*
%TD*%
D10*
%TO.C,SW12*%
X165170000Y-91410000D03*
D11*
X170250000Y-91410000D03*
D10*
X175330000Y-91410000D03*
D12*
X172790000Y-86330000D03*
X166440000Y-88870000D03*
%TD*%
D10*
%TO.C,SW1*%
X108020000Y-53310000D03*
D11*
X113100000Y-53310000D03*
D10*
X118180000Y-53310000D03*
D12*
X115640000Y-48230000D03*
X109290000Y-50770000D03*
%TD*%
D10*
%TO.C,SW6*%
X127070000Y-72360000D03*
D11*
X132150000Y-72360000D03*
D10*
X137230000Y-72360000D03*
D12*
X134690000Y-67280000D03*
X128340000Y-69820000D03*
%TD*%
D10*
%TO.C,SW8*%
X165170000Y-72360000D03*
D11*
X170250000Y-72360000D03*
D10*
X175330000Y-72360000D03*
D12*
X172790000Y-67280000D03*
X166440000Y-69820000D03*
%TD*%
D10*
%TO.C,SW14*%
X127070000Y-110460000D03*
D11*
X132150000Y-110460000D03*
D10*
X137230000Y-110460000D03*
D12*
X134690000Y-105380000D03*
X128340000Y-107920000D03*
%TD*%
D10*
%TO.C,SW16*%
X165170000Y-110460000D03*
D11*
X170250000Y-110460000D03*
D10*
X175330000Y-110460000D03*
D12*
X172790000Y-105380000D03*
X166440000Y-107920000D03*
%TD*%
D10*
%TO.C,SW18*%
X127070000Y-129510000D03*
D11*
X132150000Y-129510000D03*
D10*
X137230000Y-129510000D03*
D12*
X134690000Y-124430000D03*
X128340000Y-126970000D03*
%TD*%
D10*
%TO.C,SW19*%
X146120000Y-129510000D03*
D11*
X151200000Y-129510000D03*
D10*
X156280000Y-129510000D03*
D12*
X153740000Y-124430000D03*
X147390000Y-126970000D03*
%TD*%
D10*
%TO.C,SW13*%
X108020000Y-110460000D03*
D11*
X113100000Y-110460000D03*
D10*
X118180000Y-110460000D03*
D12*
X115640000Y-105380000D03*
X109290000Y-107920000D03*
%TD*%
D10*
%TO.C,SW22*%
X127070000Y-148560000D03*
D11*
X132150000Y-148560000D03*
D10*
X137230000Y-148560000D03*
D12*
X134690000Y-143480000D03*
X128340000Y-146020000D03*
%TD*%
D15*
%TO.C,BT1*%
X99500000Y-43500000D03*
D16*
X97500000Y-43500000D03*
%TD*%
D10*
%TO.C,SW11*%
X146120000Y-91410000D03*
D11*
X151200000Y-91410000D03*
D10*
X156280000Y-91410000D03*
D12*
X153740000Y-86330000D03*
X147390000Y-88870000D03*
%TD*%
D13*
%TO.C,U1*%
X86305000Y-91885000D03*
D14*
X91385000Y-91885000D03*
X93925000Y-91885000D03*
X88845000Y-91885000D03*
%TD*%
D10*
%TO.C,SW5*%
X108020000Y-72360000D03*
D11*
X113100000Y-72360000D03*
D10*
X118180000Y-72360000D03*
D12*
X115640000Y-67280000D03*
X109290000Y-69820000D03*
%TD*%
D10*
%TO.C,SW2*%
X127070000Y-53310000D03*
D11*
X132150000Y-53310000D03*
D10*
X137230000Y-53310000D03*
D12*
X134690000Y-48230000D03*
X128340000Y-50770000D03*
%TD*%
D10*
%TO.C,SW24*%
X165170000Y-148560000D03*
D11*
X170250000Y-148560000D03*
D10*
X175330000Y-148560000D03*
D12*
X172790000Y-143480000D03*
X166440000Y-146020000D03*
%TD*%
D10*
%TO.C,SW3*%
X146120000Y-53310000D03*
D11*
X151200000Y-53310000D03*
D10*
X156280000Y-53310000D03*
D12*
X153740000Y-48230000D03*
X147390000Y-50770000D03*
%TD*%
D17*
%TO.C,U2*%
X82500000Y-51500000D03*
D18*
X82500000Y-54040000D03*
X82500000Y-56580000D03*
X82500000Y-59120000D03*
X82500000Y-61660000D03*
X82500000Y-64200000D03*
X82500000Y-66740000D03*
X82500000Y-69280000D03*
X82500000Y-71820000D03*
X82500000Y-74360000D03*
X82500000Y-76900000D03*
X82500000Y-79440000D03*
X97740000Y-79440000D03*
X97740000Y-76900000D03*
X97740000Y-74360000D03*
X97740000Y-71820000D03*
X97740000Y-69280000D03*
X97740000Y-66740000D03*
X97740000Y-64200000D03*
X97740000Y-61660000D03*
X97740000Y-59120000D03*
X97740000Y-56580000D03*
X97740000Y-54040000D03*
X97740000Y-51500000D03*
%TD*%
D13*
%TO.C,U3*%
X86305000Y-99115000D03*
D14*
X91385000Y-99115000D03*
X93925000Y-99115000D03*
X88845000Y-99115000D03*
%TD*%
M02*
