M48
; DRILL file {KiCad 8.0.2} date 2024-06-24T21:49:01-0400
; FORMAT={-:-/ absolute / inch / decimal}
; #@! TF.CreationDate,2024-06-24T21:49:01-04:00
; #@! TF.GenerationSoftware,Kicad,Pcbnew,8.0.2
; #@! TF.FileFunction,NonPlated,1,2,NPTH
FMAT,2
INCH
; #@! TA.AperFunction,NonPlated,NPTH,ComponentDrill
T1C0.0669
; #@! TA.AperFunction,NonPlated,NPTH,ComponentDrill
T2C0.1575
%
G90
G05
T1
X4.2528Y-2.0988
X4.2528Y-2.8488
X4.2528Y-3.5988
X4.2528Y-4.3488
X4.2528Y-5.0988
X4.2528Y-5.8488
X4.6528Y-2.0988
X4.6528Y-2.8488
X4.6528Y-3.5988
X4.6528Y-4.3488
X4.6528Y-5.0988
X4.6528Y-5.8488
X5.0028Y-2.0988
X5.0028Y-2.8488
X5.0028Y-3.5988
X5.0028Y-4.3488
X5.0028Y-5.0988
X5.0028Y-5.8488
X5.4028Y-2.0988
X5.4028Y-2.8488
X5.4028Y-3.5988
X5.4028Y-4.3488
X5.4028Y-5.0988
X5.4028Y-5.8488
X5.7528Y-2.0988
X5.7528Y-2.8488
X5.7528Y-3.5988
X5.7528Y-4.3488
X5.7528Y-5.0988
X5.7528Y-5.8488
X6.1528Y-2.0988
X6.1528Y-2.8488
X6.1528Y-3.5988
X6.1528Y-4.3488
X6.1528Y-5.0988
X6.1528Y-5.8488
X6.5028Y-2.0988
X6.5028Y-2.8488
X6.5028Y-3.5988
X6.5028Y-4.3488
X6.5028Y-5.0988
X6.5028Y-5.8488
X6.9028Y-2.0988
X6.9028Y-2.8488
X6.9028Y-3.5988
X6.9028Y-4.3488
X6.9028Y-5.0988
X6.9028Y-5.8488
T2
X4.4528Y-2.0988
X4.4528Y-2.8488
X4.4528Y-3.5988
X4.4528Y-4.3488
X4.4528Y-5.0988
X4.4528Y-5.8488
X5.2028Y-2.0988
X5.2028Y-2.8488
X5.2028Y-3.5988
X5.2028Y-4.3488
X5.2028Y-5.0988
X5.2028Y-5.8488
X5.9528Y-2.0988
X5.9528Y-2.8488
X5.9528Y-3.5988
X5.9528Y-4.3488
X5.9528Y-5.0988
X5.9528Y-5.8488
X6.7028Y-2.0988
X6.7028Y-2.8488
X6.7028Y-3.5988
X6.7028Y-4.3488
X6.7028Y-5.0988
X6.7028Y-5.8488
M30
